<?xml version="1.0" encoding="UTF-8" standalone="no"?><!DOCTYPE svg PUBLIC "-//W3C//DTD SVG 1.1//EN" "http://www.w3.org/Graphics/SVG/1.1/DTD/svg11.dtd"><svg width="100%" height="100%" viewBox="0 0 72 19" version="1.1" xmlns="http://www.w3.org/2000/svg" xmlns:xlink="http://www.w3.org/1999/xlink" xml:space="preserve" xmlns:serif="http://www.serif.com/" style="fill-rule:evenodd;clip-rule:evenodd;stroke-linejoin:round;stroke-miterlimit:2;"><g id="SHD-logo" serif:id="SHD logo"><g><path d="M1.24,14.051c-0.414,0 -0.658,0.013 -1.153,0.088l0,4.307c0.502,0.075 0.834,0.082 1.221,0.082c1.486,0 2.408,-0.943 2.408,-2.266c0,-1.323 -0.868,-2.211 -2.476,-2.211Zm0.088,3.981c-0.278,0 -0.475,-0.013 -0.692,-0.033l0,-3.413c0.238,-0.02 0.407,-0.027 0.604,-0.027c1.303,0 1.9,0.699 1.9,1.717c0,1.031 -0.611,1.756 -1.812,1.756Z" style="fill:#677a8d;fill-rule:nonzero;"/><path d="M10.14,17.965l-2.225,0l0,-1.493l1.92,0c0.027,-0.088 0.04,-0.163 0.04,-0.251c0,-0.081 -0.013,-0.163 -0.04,-0.251l-1.92,0l0,-1.35l2.157,0c0.027,-0.074 0.041,-0.156 0.041,-0.244c0,-0.088 -0.014,-0.19 -0.041,-0.264l-2.7,0l0,4.355l2.768,0c0.027,-0.082 0.041,-0.177 0.041,-0.265c0,-0.081 -0.014,-0.163 -0.041,-0.237Z" style="fill:#677a8d;fill-rule:nonzero;"/><path d="M16.862,14.057c-0.067,0 -0.149,0.007 -0.237,0.027c-0.285,1.269 -0.733,2.544 -1.323,3.813c-0.597,-1.262 -1.044,-2.537 -1.37,-3.813c-0.081,-0.02 -0.163,-0.027 -0.237,-0.027c-0.136,0 -0.245,0.027 -0.353,0.068c0.393,1.452 0.929,2.89 1.648,4.328c0.102,0.027 0.183,0.034 0.278,0.034c0.095,0 0.19,-0.007 0.285,-0.034c0.712,-1.445 1.269,-2.883 1.642,-4.328c-0.095,-0.041 -0.204,-0.068 -0.333,-0.068Z" style="fill:#677a8d;fill-rule:nonzero;"/><path d="M23.429,17.965l-2.225,0l0,-1.493l1.92,0c0.027,-0.088 0.04,-0.163 0.04,-0.251c0,-0.081 -0.013,-0.163 -0.04,-0.251l-1.92,0l0,-1.35l2.157,0c0.027,-0.074 0.041,-0.156 0.041,-0.244c0,-0.088 -0.014,-0.19 -0.041,-0.264l-2.7,0l0,4.355l2.768,0c0.027,-0.082 0.041,-0.177 0.041,-0.265c0,-0.081 -0.014,-0.163 -0.041,-0.237Z" style="fill:#677a8d;fill-rule:nonzero;"/><path d="M29.636,17.971l-1.988,0l0,-3.859c-0.095,-0.021 -0.19,-0.034 -0.285,-0.034c-0.088,0 -0.169,0.013 -0.264,0.034l0,4.355l2.537,0c0.027,-0.095 0.034,-0.184 0.034,-0.265c0,-0.075 -0.007,-0.149 -0.034,-0.231Z" style="fill:#677a8d;fill-rule:nonzero;"/><path d="M34.716,18.568c1.262,0 2.171,-1.01 2.171,-2.286c0,-1.322 -0.909,-2.292 -2.171,-2.292c-1.261,0 -2.17,1.003 -2.17,2.292c0,1.31 0.909,2.286 2.17,2.286Zm0,-0.508c-0.963,0 -1.594,-0.747 -1.594,-1.778c0,-1.051 0.631,-1.784 1.594,-1.784c0.964,0 1.595,0.733 1.595,1.784c0,1.031 -0.631,1.778 -1.595,1.778Z" style="fill:#677a8d;fill-rule:nonzero;"/><path d="M41.812,14.037c-0.55,0 -0.963,0.061 -1.282,0.149l0,4.281c0.095,0.027 0.176,0.034 0.271,0.034c0.095,0 0.183,-0.007 0.278,-0.034l0,-1.642c0.204,0.02 0.441,0.034 0.74,0.034c1.133,0 1.723,-0.631 1.723,-1.465c0,-0.814 -0.557,-1.357 -1.73,-1.357Zm0,2.34c-0.305,0 -0.543,-0.013 -0.733,-0.034l0,-1.757c0.224,-0.033 0.482,-0.054 0.726,-0.054c0.773,0 1.16,0.333 1.16,0.862c0,0.583 -0.325,0.983 -1.153,0.983Z" style="fill:#677a8d;fill-rule:nonzero;"/><path d="M50.909,14.084c-0.102,0 -0.156,0.007 -0.224,0.021l-1.418,3.174l-0.068,0.218l-0.081,-0.218l-1.493,-3.174c-0.074,-0.021 -0.142,-0.027 -0.21,-0.027c-0.142,0 -0.244,0.027 -0.332,0.061l0,4.328c0.101,0.02 0.176,0.034 0.264,0.034c0.082,0 0.177,-0.014 0.265,-0.034l0,-2.639l-0.027,-0.679l0.088,0.211l1.234,2.686c0.102,0.02 0.177,0.027 0.251,0.027c0.075,0 0.156,-0.007 0.251,-0.027l1.215,-2.666l0.088,-0.231l-0.041,0.679l0,2.639c0.102,0.02 0.183,0.034 0.271,0.034c0.089,0 0.17,-0.014 0.265,-0.034l0,-4.335c-0.102,-0.034 -0.203,-0.048 -0.298,-0.048Z" style="fill:#677a8d;fill-rule:nonzero;"/><path d="M57.909,17.965l-2.225,0l0,-1.493l1.92,0c0.027,-0.088 0.041,-0.163 0.041,-0.251c0,-0.081 -0.014,-0.163 -0.041,-0.251l-1.92,0l0,-1.35l2.157,0c0.027,-0.074 0.041,-0.156 0.041,-0.244c0,-0.088 -0.014,-0.19 -0.041,-0.264l-2.7,0l0,4.355l2.768,0c0.027,-0.082 0.041,-0.177 0.041,-0.265c0,-0.081 -0.014,-0.163 -0.041,-0.237Z" style="fill:#677a8d;fill-rule:nonzero;"/><path d="M64.74,14.078c-0.095,0 -0.156,0.013 -0.258,0.034l0,3.106l0.007,0.299l-0.115,-0.197l-2.307,-3.229c-0.183,-0.04 -0.386,0.021 -0.488,0.075l0,4.301c0.095,0.027 0.176,0.034 0.264,0.034c0.095,0 0.163,-0.007 0.258,-0.034l0,-3.467l0.109,0.217l2.313,3.27c0.156,0 0.346,-0.02 0.482,-0.061l0,-4.314c-0.089,-0.021 -0.177,-0.034 -0.265,-0.034Z" style="fill:#677a8d;fill-rule:nonzero;"/><path d="M71.829,14.363c0,-0.089 -0.014,-0.163 -0.034,-0.251l-3.324,0c-0.02,0.088 -0.034,0.162 -0.034,0.251c0,0.081 0.014,0.162 0.034,0.251l1.391,0l0,3.859c0.094,0.021 0.183,0.034 0.271,0.034c0.095,0 0.183,-0.013 0.278,-0.034l0,-3.859l1.384,0c0.02,-0.089 0.034,-0.17 0.034,-0.251Z" style="fill:#677a8d;fill-rule:nonzero;"/></g><g><path d="M3.379,9.859c2.136,0 3.482,-1.082 3.467,-2.984c-0.015,-1.726 -1.214,-2.457 -3.043,-2.911c-1.609,-0.395 -1.901,-0.731 -1.901,-1.346c0,-0.614 0.599,-1.097 1.609,-1.097c1.053,0 1.799,0.337 2.384,0.761c0.439,-0.249 0.761,-0.834 0.805,-1.346c-0.6,-0.468 -1.58,-0.936 -3.131,-0.936c-1.989,0 -3.291,1.112 -3.291,2.735c0.015,1.858 1.39,2.473 2.896,2.824c1.741,0.424 2.034,0.877 2.034,1.492c0,0.746 -0.556,1.272 -1.814,1.272c-1.068,0 -1.946,-0.409 -2.531,-0.936c-0.424,0.249 -0.761,0.702 -0.863,1.302c0.556,0.527 1.609,1.17 3.379,1.17Z" style="fill:#649ace;fill-rule:nonzero;"/><path d="M12.668,0.234c-0.278,-0.073 -0.527,-0.088 -0.834,-0.088c-0.278,0 -0.585,0.015 -0.863,0.088c-1.39,2.838 -2.531,5.939 -3.452,9.289c0.278,0.117 0.585,0.161 0.936,0.161c0.234,0 0.483,-0.015 0.746,-0.059c0.19,-0.76 0.395,-1.521 0.615,-2.252l3.978,0c0.22,0.731 0.439,1.477 0.629,2.252c0.205,0.044 0.468,0.059 0.688,0.059c0.38,0 0.717,-0.044 1.039,-0.161c-0.951,-3.35 -2.107,-6.436 -3.482,-9.289Zm-2.414,5.734c0.381,-1.141 0.82,-2.238 1.302,-3.32l0.234,-0.6l0.249,0.6c0.468,1.068 0.907,2.179 1.302,3.32l-3.087,0Z" style="fill:#649ace;fill-rule:nonzero;"/><path d="M24.414,0.161c-0.292,0 -0.497,0.029 -0.804,0.088l0,5.983l0.029,0.658l-0.263,-0.468l-4.33,-6.232c-0.541,-0.088 -1.2,0.015 -1.551,0.146l0,9.289c0.307,0.059 0.542,0.088 0.805,0.088c0.278,0 0.526,-0.029 0.819,-0.088l0,-6.085l-0.029,-0.585l0.263,0.497l4.345,6.232c0.482,0.014 1.053,-0.015 1.536,-0.132l0,-9.303c-0.278,-0.059 -0.542,-0.088 -0.82,-0.088Z" style="fill:#649ace;fill-rule:nonzero;"/><path d="M30.28,0.073c-1.111,0 -1.828,0.059 -2.75,0.205l0,9.318c0.98,0.146 1.77,0.176 2.838,0.176c3.218,0 5.266,-1.961 5.266,-4.93c0,-2.853 -1.887,-4.769 -5.354,-4.769Zm0.176,8.177c-0.468,0 -0.878,-0.014 -1.258,-0.044l0,-6.538c0.424,-0.044 0.775,-0.044 1.126,-0.044c2.355,0 3.511,1.316 3.511,3.262c0,2.004 -1.17,3.364 -3.379,3.364Z" style="fill:#649ace;fill-rule:nonzero;"/><path d="M44.309,0.161c-0.278,0 -0.541,0.029 -0.834,0.088l0,3.847l-4.432,0l0,-3.847c-0.278,-0.073 -0.571,-0.088 -0.863,-0.088c-0.264,0 -0.527,0.015 -0.79,0.088l0,9.376c0.292,0.059 0.555,0.088 0.819,0.088c0.278,0 0.556,-0.029 0.834,-0.088l0,-4.008l4.432,0l0,4.008c0.307,0.059 0.6,0.088 0.878,0.088c0.278,0 0.526,-0.029 0.79,-0.088l0,-9.376c-0.278,-0.059 -0.556,-0.088 -0.834,-0.088Z" style="fill:#649ace;fill-rule:nonzero;"/><path d="M48.302,9.713c0.278,0 0.541,-0.029 0.805,-0.088l0,-9.376c-0.278,-0.073 -0.556,-0.103 -0.834,-0.103c-0.263,0 -0.541,0.03 -0.819,0.103l0,9.376c0.292,0.059 0.556,0.088 0.848,0.088Z" style="fill:#649ace;fill-rule:nonzero;"/><path d="M57.167,8.133l-4.096,0l0,-7.899c-0.278,-0.058 -0.556,-0.088 -0.834,-0.088c-0.278,0 -0.541,0.03 -0.819,0.088l0,9.391l5.749,0c0.058,-0.263 0.088,-0.526 0.088,-0.76c0,-0.249 -0.03,-0.483 -0.088,-0.732Z" style="fill:#649ace;fill-rule:nonzero;"/><path d="M64.379,8.133l-4.096,0l0,-7.899c-0.278,-0.058 -0.556,-0.088 -0.834,-0.088c-0.278,0 -0.541,0.03 -0.819,0.088l0,9.391l5.749,0c0.058,-0.263 0.087,-0.526 0.087,-0.76c0,-0.249 -0.029,-0.483 -0.087,-0.732Z" style="fill:#649ace;fill-rule:nonzero;"/><path d="M68.533,9.859c2.136,0 3.482,-1.082 3.467,-2.984c-0.015,-1.726 -1.214,-2.457 -3.043,-2.911c-1.609,-0.395 -1.901,-0.731 -1.901,-1.346c0,-0.614 0.599,-1.097 1.609,-1.097c1.053,0 1.799,0.337 2.384,0.761c0.439,-0.249 0.761,-0.834 0.805,-1.346c-0.6,-0.468 -1.58,-0.936 -3.131,-0.936c-1.989,0 -3.291,1.112 -3.291,2.735c0.014,1.858 1.39,2.473 2.896,2.824c1.741,0.424 2.034,0.877 2.034,1.492c0,0.746 -0.556,1.272 -1.814,1.272c-1.068,0 -1.946,-0.409 -2.531,-0.936c-0.424,0.249 -0.761,0.702 -0.863,1.302c0.556,0.527 1.609,1.17 3.379,1.17Z" style="fill:#649ace;fill-rule:nonzero;"/></g></g></svg>