<?xml version="1.0" encoding="UTF-8" standalone="no"?><!DOCTYPE svg PUBLIC "-//W3C//DTD SVG 1.1//EN" "http://www.w3.org/Graphics/SVG/1.1/DTD/svg11.dtd"><svg width="100%" height="100%" viewBox="0 0 110 44" version="1.1" xmlns="http://www.w3.org/2000/svg" xmlns:xlink="http://www.w3.org/1999/xlink" xml:space="preserve" xmlns:serif="http://www.serif.com/" style="fill-rule:evenodd;clip-rule:evenodd;stroke-linejoin:round;stroke-miterlimit:2;"><g id="Logo-background" serif:id="Logo background"><path d="M-19.2,21.873c0,0 60.609,18.86 69.097,21.501c0.588,0.183 1.227,-0.028 1.591,-0.525c4.407,-6.027 31.312,-42.816 31.312,-42.816l-102,0l0,21.84Z" style="fill:#e3eefd;"/><path d="M30.96,-1.44l0,16.8c0,0 45.871,15.02 53.245,17.434c0.593,0.194 1.244,-0.016 1.612,-0.52c3.865,-5.3 24.583,-33.714 24.583,-33.714l-79.44,0Z" style="fill:#e3eefd;"/><path d="M0,21.84c0,0 60.609,18.86 69.097,21.501c0.588,0.183 1.227,-0.028 1.591,-0.525c4.407,-6.027 31.312,-42.816 31.312,-42.816l-102,0l0,21.84Z" style="fill:#3b85e9;"/></g></svg>