<?xml version="1.0" encoding="UTF-8" standalone="no"?>
<!DOCTYPE svg PUBLIC "-//W3C//DTD SVG 1.1//EN" "http://www.w3.org/Graphics/SVG/1.1/DTD/svg11.dtd">
<svg width="100%" height="100%" viewBox="0 0 60 16" version="1.1" xmlns="http://www.w3.org/2000/svg" xmlns:xlink="http://www.w3.org/1999/xlink" xml:space="preserve" xmlns:serif="http://www.serif.com/" style="fill-rule:evenodd;clip-rule:evenodd;stroke-linejoin:round;stroke-miterlimit:2;">
    <g transform="matrix(0.0306057,-0.0306057,0.0306057,0.0306057,0.434849,12.3919)">
        <rect x="0" y="0" width="392" height="105" style="fill:rgb(246,249,251);"/>
        <g transform="matrix(-1.83697e-16,1,-1,-1.83697e-16,392,2.84217e-14)">
            <rect x="0" y="0" width="392" height="105" style="fill:rgb(246,249,251);"/>
        </g>
        <g transform="matrix(-1.83697e-16,1,-1,-1.83697e-16,679,287)">
            <rect x="0" y="0" width="392" height="105" style="fill:rgb(246,249,251);"/>
        </g>
        <g transform="matrix(-1.83697e-16,1,-1,-1.83697e-16,966,574)">
            <rect x="0" y="0" width="392" height="105" style="fill:rgb(246,249,251);"/>
        </g>
        <g transform="matrix(1,2.28848e-17,-2.28848e-17,1,287,287)">
            <rect x="0" y="0" width="392" height="105" style="fill:rgb(246,249,251);"/>
        </g>
        <g transform="matrix(1,2.28848e-17,-2.28848e-17,1,574,574)">
            <rect x="0" y="0" width="392" height="105" style="fill:rgb(246,249,251);"/>
        </g>
    </g>
</svg>
