<?xml version="1.0" encoding="UTF-8" standalone="no"?>
<!DOCTYPE svg PUBLIC "-//W3C//DTD SVG 1.1//EN" "http://www.w3.org/Graphics/SVG/1.1/DTD/svg11.dtd">
<svg width="100%" height="100%" viewBox="0 0 2000 169" version="1.1" xmlns="http://www.w3.org/2000/svg" xmlns:xlink="http://www.w3.org/1999/xlink" xml:space="preserve" xmlns:serif="http://www.serif.com/" style="fill-rule:evenodd;clip-rule:evenodd;stroke-linejoin:round;stroke-miterlimit:2;">
    <g transform="matrix(1,0,0,0.42,0,64)">
        <rect x="0" y="200" width="2000" height="50" style="fill:rgb(238,244,250);"/>
    </g>
    <g id="Back-hills" serif:id="Back hills" transform="matrix(-0.826476,1.83057e-18,0,0.303973,2032.92,-177.698)">
        <path d="M39.829,887.097L39.829,982.507L2459.74,982.507L2459.74,859.6C2459.74,859.6 2437.72,844.932 2430.26,842.965C2343.4,820.09 2319.22,847.08 2287.88,842.965C2241.46,836.869 2227.63,804.095 2186.49,798.072C2158.45,793.966 2104.74,794.989 2077.55,789.636C2043.08,782.849 2035.24,770.032 2000.11,769.929C1922.33,769.701 1799.85,805.027 1719.83,796.705C1648.87,789.325 1582.64,733.094 1520,720C1462.56,707.994 1402.4,723.582 1343.97,718.141C1284.33,712.587 1222.98,677.659 1162.13,686.674C1099.05,696.019 1035.99,765.502 965.5,774.211C941.634,777.159 823.66,788.216 794.107,791.885C716.754,801.489 669.197,762.401 608.9,760.712C543.413,758.879 456.824,800.894 390.621,808.93C331.41,816.118 265.655,797.088 211.683,808.93C159.141,820.46 121.533,870.492 66.792,879.988C56.233,881.819 39.829,887.097 39.829,887.097Z" style="fill:rgb(29,52,74);"/>
    </g>
    <g id="Tree-Left" serif:id="Tree Left" transform="matrix(0.20873,-0.0112762,0.0123611,0.228813,509.719,-169.562)">
        <g transform="matrix(0.707918,0,0,0.707918,269.804,351.654)">
            <path d="M729,827C746.683,817.402 778.655,813.928 796,828C813.667,842.333 821.896,884.715 835,913C848.667,942.5 864.833,978.333 878,1005C889.355,1028 907,1050.33 914,1073C920.714,1094.74 928.5,1121.67 920,1141C911.5,1160.33 887.464,1184.7 863,1189C809,1198.5 647.5,1211.83 596,1198C563.443,1189.26 545.882,1138.72 554,1106C560.689,1079.04 557.924,1045.35 585.169,1006.65C602.731,981.71 615.25,955.33 626.682,937.104C636.765,921.03 678.383,899.615 689.899,885.585C703.582,868.918 711.317,836.598 729,827Z" style="fill:rgb(80,153,123);"/>
        </g>
        <g transform="matrix(0.707918,0,0,0.707918,269.804,351.654)">
            <path d="M737.879,838.301C749.984,822.789 780.404,816.005 796,828C812.187,840.45 821.896,884.715 835,913C848.667,942.5 864.833,978.333 878,1005C889.355,1028 907,1050.33 914,1073C920.714,1094.74 928.5,1121.67 920,1141C911.5,1160.33 887.264,1183.68 863,1189C815.121,1199.49 663.98,1212.38 632.727,1203.96C607.561,1197.18 672.734,1164.41 675.483,1138.49C678.243,1112.47 632.138,1081.36 649.287,1047.83C660.996,1024.94 656.652,1002.73 671.738,975.591C677.875,964.551 701.795,953.415 708.623,939.968C721.181,915.238 723.316,856.962 737.879,838.301Z" style="fill:rgb(52,102,101);"/>
        </g>
    </g>
    <g id="Tree-Right" serif:id="Tree Right" transform="matrix(0.137914,0.0113863,-0.0124818,0.151183,1263.01,-96.9271)">
        <g transform="matrix(0.707918,0,0,0.707918,269.804,351.654)">
            <path d="M729,827C746.645,813.305 778.655,813.928 796,828C813.667,842.333 821.896,884.715 835,913C848.667,942.5 868.137,975.708 878,1005C887.073,1031.95 887.177,1066.08 894.177,1088.75C899.909,1107.31 925.196,1124.29 920,1141C914.804,1157.71 887.464,1184.7 863,1189C809,1198.5 647.5,1211.83 596,1198C563.443,1189.26 545.882,1138.72 554,1106C565,1061.67 632.833,978.5 662,932C684.061,896.828 706.667,844.333 729,827Z" style="fill:rgb(80,153,123);"/>
        </g>
        <g transform="matrix(0.707918,0,0,0.707918,269.804,351.654)">
            <path d="M737.879,838.301C745.54,823.531 780.087,816.429 796,828C814.036,841.115 826.323,889.284 846.098,916.993C866.145,945.085 906.415,967.309 916.281,996.547C926.147,1025.79 904.674,1068.35 905.294,1092.42C905.729,1109.34 926.787,1125.5 920,1141C912.951,1157.1 887.264,1183.68 863,1189C815.121,1199.49 663.98,1212.38 632.727,1203.96C607.561,1197.18 666.379,1162.91 675.483,1138.49C685.767,1110.9 677.282,1071.96 694.431,1038.44C710.903,1006.24 667.587,1011.76 691.2,965.256C697.393,953.06 746.172,936.354 750.036,916.616C754.007,896.33 730.218,853.07 737.879,838.301Z" style="fill:rgb(52,102,101);"/>
        </g>
    </g>
    <g id="Sand" transform="matrix(0.369577,0,0,0.369577,541.633,-403.105)">
        <g id="a" transform="matrix(2.7058,0,0,2.7058,-1465.55,974.371)">
            <path d="M0,162.321C0,162.321 31.212,161.843 62.407,160.656C77.82,160.069 81.008,158.553 89,158.321C102.328,157.935 123.833,157.822 139,156.12C152.838,154.568 166.104,149.005 180,148.11C195.833,147.09 218.5,150.852 234,150C247.188,149.275 259.943,144.987 273,143C288.333,140.667 308.833,136.833 326,136C342.66,135.191 359.349,138.987 376,138C398.5,136.667 434,129 461,128C486.684,127.049 514.667,132.667 538,132C559.16,131.395 581,126.333 601,124C619.976,121.786 645.187,119.102 658,118C674.661,116.567 693.999,114.024 712,115C739.667,116.5 788.333,126 824,127C858.045,127.955 901.833,123 926,121C940.423,119.806 955.134,119.145 969,115C985.167,110.167 1003.85,96.002 1023,92C1045.33,87.333 1081,88.5 1103,87C1120.34,85.817 1137.62,82.855 1155,83C1175,83.167 1201.17,84.5 1223,88C1244.39,91.429 1267.67,99.667 1286,104C1301.59,107.684 1317.18,111.489 1333,114C1354,117.333 1392.17,122.333 1412,124C1425.29,125.117 1438.72,122.793 1452,124C1468.5,125.5 1491.11,132.743 1511,133C1536.83,133.333 1582.5,127.667 1607,126C1623.99,124.844 1640.97,122.719 1658,123C1678.17,123.333 1712,126.333 1728,128C1736.78,128.914 1746.49,131.145 1754,133C1768.83,136.667 1794,147.333 1811,150C1825.82,152.325 1833.05,147.714 1856,149C1871.53,149.87 1891.67,156 1904,158C1912.61,159.396 1921.29,160.546 1930,161C1946,161.833 2000,163 2000,163L2000,200C2000,200 1975.88,201.797 1963.8,202C1914.26,202.833 1763.51,205 1702.76,205C1668.26,205 1633.81,202.16 1599.31,202C1563.32,201.833 1519.71,203.333 1486.79,204C1458.46,204.574 1430.13,206.3 1401.8,206C1370.29,205.667 1321.69,202.5 1297.77,202C1284.6,201.725 1271.42,202.241 1258.27,203C1232.27,204.5 1180.71,210.777 1141.8,211C1083.55,211.333 959.458,206.167 908.784,205C885.11,204.455 861.429,204.311 837.751,204C812.335,203.667 783.44,202.713 756.284,203C724.785,203.333 684.615,206.151 648.76,206C609.258,205.833 547.932,202.667 519.273,202C505.123,201.671 490.959,201.58 476.811,202C459.979,202.5 437.817,205 418.282,205C394.196,205 360.975,202 332.294,202C285.886,202 187.582,205.333 139.83,205C108.438,204.781 69.089,200.833 45.784,200C30.532,199.455 0,200 0,200L0,162.321Z" style="fill:rgb(194,180,180);"/>
        </g>
        <g id="Right-shadow" serif:id="Right shadow" transform="matrix(-1,0,0,0.755277,3301.05,666.662)">
            <path d="M77.055,937.416C43.71,973.892 156.936,964.292 195.415,951.801C233.8,939.341 253.683,921.964 276.417,918.063C359.527,903.8 456.379,903.199 469.058,889.573C485.205,872.219 351.955,850.223 292.294,847.679C246.524,845.727 143.665,853.812 78.087,869.096C17.11,883.307 116.972,893.751 77.055,937.416Z" style="fill:rgb(182,173,168);"/>
        </g>
        <g id="Tree-front-shadow" serif:id="Tree front shadow" transform="matrix(-0.806864,-0.00944541,0.0071339,-0.609406,1967.86,1981.32)">
            <path d="M78.087,869.096C17.11,883.307 110.938,935.632 149.416,923.141C187.801,910.681 253.683,921.964 276.417,918.063C359.527,903.8 351.955,850.223 292.294,847.679C246.524,845.727 143.665,853.812 78.087,869.096Z" style="fill:rgb(182,173,168);"/>
        </g>
        <g id="Bush-left-shadow" serif:id="Bush left shadow" transform="matrix(-0.401838,0.00470405,0.00446678,0.38157,-154.869,1073.01)">
            <path d="M78.087,869.096C17.11,883.307 110.938,935.632 149.416,923.141C187.801,910.681 253.683,921.964 276.417,918.063C359.527,903.8 351.955,850.223 292.294,847.679C246.524,845.727 143.665,853.812 78.087,869.096Z" style="fill:rgb(182,173,168);"/>
        </g>
        <g id="Left-shadow" serif:id="Left shadow" transform="matrix(-1,0,0,0.755277,-373.417,720.778)">
            <path d="M106.819,926.669C170.606,1008.23 183.994,903.389 222.473,890.898C260.858,878.438 329.862,945.464 357.591,921.645C391.632,892.404 542.659,949.127 474.47,893.155C456.369,878.298 433.407,869.205 381.237,853.727C329.625,838.415 251.614,823.867 221.943,822.601C186.721,821.099 170.538,859.268 131.332,857.229C101.433,855.675 77.29,854.882 67.263,861.931C12.389,900.509 96.571,913.564 106.819,926.669Z" style="fill:rgb(182,173,168);"/>
        </g>
        <g id="Main-shadow" serif:id="Main shadow" transform="matrix(1,0,0,0.755277,0,666.662)">
            <path d="M596.114,948.335C676.777,950.655 814.469,1022.83 854.6,1022.92C912.92,1023.03 1012.26,1033.5 1094.06,1027.73C1144.64,1024.17 1257.36,1055.7 1310.81,1051.19C1377.54,1045.54 1412.48,1031.23 1465.5,1019.81C1558.42,999.8 1656.42,981.251 1717.09,980.675C1829.66,979.606 1939.86,974.347 2008.32,962.191C2053.4,954.188 2093.65,1000.2 2150.57,973.827C2221.15,941.13 2340.27,936.707 2311.53,910.679C2263.4,867.089 2201.34,897.313 2149,880C2095.24,862.22 2043.91,825.706 1989,804C1918.17,776 1802.17,726 1724,712C1657.01,700.002 1547.44,711.873 1520,720C1511.06,722.649 1644.6,718.778 1673.03,739.266C1703.18,761.002 1625.33,805.328 1611.35,806.004C1581.06,807.468 1426.11,774.668 1399.12,783.843C1330.12,807.303 1283.74,858.239 1270.23,847.382C1255.85,835.824 1260.89,787.602 1252.47,789.913C1198.96,804.6 1158.2,882.066 1103.3,892.65C1048.39,903.235 993.545,844.709 923.059,853.417C904.463,855.715 750.87,862.013 641.932,864.836C560.16,866.955 513.051,844.304 469.058,846.583C436.928,848.247 398.035,869.972 377.972,878.507C371.006,881.47 348.044,892.627 309.005,879.392C209.865,845.783 95.646,939.927 199.861,933.615C265.813,929.621 308.443,1006.69 370.619,1009C436.661,1011.45 518.309,946.097 596.114,948.335Z" style="fill:rgb(182,173,168);"/>
        </g>
        <g id="Bush-shadow" serif:id="Bush shadow" transform="matrix(-0.467372,0.0513151,0.042522,0.387285,954.05,997.835)">
            <path d="M78.087,869.096C17.11,883.307 89.312,952.47 127.791,939.98C166.176,927.519 269.588,905.883 292.322,901.982C375.433,887.719 351.955,850.223 292.294,847.679C246.524,845.727 143.665,853.812 78.087,869.096Z" style="fill:rgb(172,165,160);"/>
        </g>
    </g>
    <g id="Bush" transform="matrix(0.216315,0.00446658,-0.00316255,0.153161,697.165,-89.9885)">
        <g transform="matrix(0.707918,0,0,0.707918,269.804,351.654)">
            <path d="M662,932C683.547,919.263 723.408,886.409 751.037,888.171C778.666,889.934 806.614,923.104 827.774,942.575C847.427,960.659 863.629,983.263 878,1005C892.144,1026.39 907,1050.33 914,1073C920.714,1094.74 928.5,1121.67 920,1141C911.5,1160.33 887.464,1184.7 863,1189C809,1198.5 647.5,1211.83 596,1198C563.443,1189.26 545.882,1138.72 554,1106C557.801,1090.68 584.756,1057.02 597.765,1034.37C611.488,1010.48 606.454,986.36 621.755,964.592C633.93,947.272 647.14,940.784 662,932Z" style="fill:rgb(80,153,123);"/>
        </g>
        <g transform="matrix(0.707918,0,0,0.707918,269.804,351.654)">
            <path d="M708.623,939.968C721.181,915.238 746.053,890.544 766.192,890.282C786.331,890.021 810.966,919.426 829.459,938.4C848.093,957.519 863.91,982.567 878,1005C891.641,1026.72 907,1050.33 914,1073C920.714,1094.74 928.5,1121.67 920,1141C911.5,1160.33 887.264,1183.68 863,1189C815.121,1199.49 669.578,1212.09 632.727,1203.96C611.771,1199.33 639.633,1161.57 641.896,1140.23C644.656,1114.21 632.138,1081.36 649.287,1047.83C659.397,1028.07 709.232,1033.92 721.802,1011.73C729.712,997.772 699.503,957.928 708.623,939.968Z" style="fill:rgb(52,102,101);"/>
        </g>
    </g>
    <g id="Bush-Left" serif:id="Bush Left" transform="matrix(0.174958,0.00361263,-0.00255791,0.123879,312.628,-33.1264)">
        <g transform="matrix(0.707918,0,0,0.707918,269.804,351.654)">
            <path d="M662,932C680.002,914.458 723.408,886.409 751.037,888.171C778.666,889.934 808.315,920.6 827.774,942.575C847.039,964.33 853.423,998.284 867.794,1020.02C880.717,1039.57 905.299,1052.84 914,1073C922.701,1093.16 928.5,1121.67 920,1141C911.5,1160.33 887.464,1184.7 863,1189C809,1198.5 645.763,1211.88 596,1198C564.677,1189.26 556.303,1138.41 564.421,1105.7C568.222,1090.38 584.756,1057.02 597.765,1034.37C611.488,1010.48 627.727,1015.19 643.027,993.421C655.202,976.1 646.653,946.955 662,932Z" style="fill:rgb(80,153,123);"/>
        </g>
        <g transform="matrix(0.707918,0,0,0.707918,269.804,351.654)">
            <path d="M708.623,939.968C721.181,915.238 746.053,890.544 766.192,890.282C786.331,890.021 813.123,917.54 829.459,938.4C846.392,960.023 853.704,997.589 867.794,1020.02C880.257,1039.87 905.299,1052.84 914,1073C922.701,1093.16 927.803,1119.63 920,1141C911.556,1164.13 887.597,1206.48 863.333,1211.8C845.94,1215.61 815.797,1197.86 782.949,1202C725.376,1209.27 658.471,1213.75 632.727,1203.96C599.088,1191.15 605.67,1111.01 620.409,1096.68C656.649,1061.45 663.403,1080.56 680.551,1047.04C690.661,1027.27 688.175,1019.81 700.745,997.623C708.655,983.662 699.503,957.928 708.623,939.968Z" style="fill:rgb(52,102,101);"/>
        </g>
    </g>
    <g id="Tree-Front" serif:id="Tree Front" transform="matrix(0.363905,-0.0196591,0.0215506,0.398918,879.012,-332.286)">
        <g transform="matrix(0.707918,0,0,0.707918,269.804,351.654)">
            <path d="M729,827C742.001,815.137 770.955,809.729 781.694,823.672C798.273,845.198 813.142,924.96 828.473,956.153C838.905,977.376 860.702,992.219 873.684,1010.83C886.21,1028.78 899.027,1047.17 906.365,1067.79C914.085,1089.49 927.228,1120.8 920,1141C912.772,1161.2 887.464,1184.7 863,1189C809,1198.5 647.5,1211.83 596,1198C563.443,1189.26 549.294,1139.38 554,1106C559.691,1065.63 600.977,1002.29 630.144,955.79C638.849,941.912 688.25,916.563 697.377,900.607C711.382,876.125 714.947,839.822 729,827Z" style="fill:rgb(80,153,123);"/>
        </g>
        <g transform="matrix(0.707918,0,0,0.707918,269.804,351.654)">
            <path d="M737.879,838.301C740.705,833.39 747.914,819.625 755.951,816.723C769.423,811.859 786.231,820.487 796,828C802.631,833.1 819.556,852.554 824.692,865.047C832.092,883.05 831.725,932.751 839.461,949.448C853.127,978.948 865.515,986.237 878,1005C892.275,1026.45 918.104,1051.71 925.111,1078.17C932.118,1104.63 932.287,1143.29 920.042,1163.77C907.798,1184.25 877.904,1197.72 851.647,1201.04C834.781,1203.17 801.346,1197 771.05,1199.27C713.506,1203.57 646.578,1206.33 626.65,1200.8C604.249,1194.58 659.994,1164.52 663.389,1141.52C667.537,1113.42 634.385,1065.77 651.534,1032.24C660.327,1015.06 717.821,1016.82 728.439,998.264C737.712,982.057 713.597,960.019 724.605,938.34C731.288,925.18 732.272,916.088 740.838,893.088C748.369,872.868 730.315,851.443 737.879,838.301Z" style="fill:rgb(52,102,101);"/>
        </g>
    </g>
</svg>
