<?xml version="1.0" encoding="UTF-8" standalone="no"?><!DOCTYPE svg PUBLIC "-//W3C//DTD SVG 1.1//EN" "http://www.w3.org/Graphics/SVG/1.1/DTD/svg11.dtd"><svg width="100%" height="100%" viewBox="0 0 432 64" version="1.1" xmlns="http://www.w3.org/2000/svg" xmlns:xlink="http://www.w3.org/1999/xlink" xml:space="preserve" xmlns:serif="http://www.serif.com/" style="fill-rule:evenodd;clip-rule:evenodd;stroke-linecap:round;stroke-linejoin:round;stroke-miterlimit:1.5;"><g id="back-hill---sharp" serif:id="back hill - sharp"><path id="light" d="M122.716,62.88l10.484,-6.72l8.64,-1.92l10.08,-4.32l9.6,-5.28l8.64,-0.24l7.92,-2.259l9.36,1.539l6.96,5.52l14.88,6l9.12,1.68l4.8,3.12l13.44,2.4l-113.924,4.08l0,-3.6Z" style="fill:#fafdff;stroke:#e1ebf2;stroke-width:0.5px;"/><path id="dark" d="M176.16,60.72l-5.76,-1.92l-0.72,-2.64l4.32,-2.64l4.56,-1.92l-0.48,-3.84l0.48,-3.36l3.84,-1.44l5.04,0.72l4.8,3.84l2.16,1.68l14.88,6l5.52,3.84l-1.2,3.12l-5.76,0.24l-8.16,-0.24l-6.706,0l-5.534,-0.48l-11.28,-0.96Z" style="fill:#ebf2f7;stroke:#e1ebf2;stroke-width:0.5px;"/></g><g id="front-hill---sharp" serif:id="front hill - sharp"><path id="light1" serif:id="light" d="M-3.84,62.16l3.431,-1.352l2.432,1.073l9.252,-0.441l16.805,0.72l18.96,-5.76l12.72,-9.367l14.73,-4.892l6.39,-7.581l14.16,-5.535l13.68,6.015l9.832,8.171l11.528,2.229l15.84,6.187l17.04,6.213l15.6,0l14.88,4.32l16.236,-0.72l22.119,0.72l20.928,0l11.594,-1.92l4.045,0.24l9.637,1.68l178.721,0l0,3.12l-460.56,0l0,-3.12Z" style="fill:#fafdff;stroke:#e1ebf2;stroke-width:0.5px;"/><path id="dark1" serif:id="dark" d="M28.08,62.16l15.12,-0.96l12,-2.16l11.52,0.24l19.2,-1.44l6.96,-2.88l9.12,-1.2l6.96,-1.173l4.08,-3.394l-3.36,-5.033l-5.76,-3.306l-2.16,-3.654l-4.8,-3.72l-6.72,-1.2l-6.094,2.153l-3.266,0.127l-6.24,7.581l-14.88,4.772l-12.48,9.487l-19.2,5.76Z" style="fill:#ebf2f7;stroke:#e1ebf2;stroke-width:0.5px;"/></g></svg>