<?xml version="1.0" encoding="UTF-8" standalone="no"?><!DOCTYPE svg PUBLIC "-//W3C//DTD SVG 1.1//EN" "http://www.w3.org/Graphics/SVG/1.1/DTD/svg11.dtd"><svg width="100%" height="100%" viewBox="0 0 432 63" version="1.1" xmlns="http://www.w3.org/2000/svg" xmlns:xlink="http://www.w3.org/1999/xlink" xml:space="preserve" xmlns:serif="http://www.serif.com/" style="fill-rule:evenodd;clip-rule:evenodd;stroke-linejoin:round;stroke-miterlimit:2;"><g id="back-hill" serif:id="back hill"><path id="light" d="M172.32,62.4l120.404,0c0,0 -7.485,-3.539 -25.293,-10.446c-9.247,-3.587 -25.107,-12.629 -35.673,-8.949c-5.99,2.086 -13.892,7.368 -21.58,11.117c-13.701,6.682 -37.858,8.278 -37.858,8.278Z" style="fill:#335f9a;"/><path id="dark" d="M172.32,62.4l46.63,0c0,0 40.524,-0.944 22.716,-7.851c-9.247,-3.587 0.658,-15.224 -9.908,-11.544c-5.99,2.086 -13.892,7.368 -21.58,11.117c-13.701,6.682 -37.858,8.278 -37.858,8.278Z" style="fill:#325686;"/></g><g id="front-hill" serif:id="front hill"><path id="light1" serif:id="light" d="M214.768,62.4l173.312,0c0,0 -12.901,-0.251 -42.297,-18.127c-7.689,-4.676 -15.744,-16.684 -25.425,-13.525c-16.928,5.523 -36.503,17.404 -52.034,22.063c-31.496,9.447 -53.556,9.589 -53.556,9.589l0,0Z" style="fill:#38639d;"/><path id="dark1" serif:id="dark" d="M388.08,62.4c0,0 -12.901,-0.251 -42.297,-18.127c-7.689,-4.676 -17.566,-17.412 -26.677,-11.713c-7.492,4.687 -2.422,4.601 -17.275,13.141c-19.6,11.27 86.249,16.699 86.249,16.699Z" style="fill:#325686;"/></g></svg>