<?xml version="1.0" encoding="UTF-8" standalone="no"?><!DOCTYPE svg PUBLIC "-//W3C//DTD SVG 1.1//EN" "http://www.w3.org/Graphics/SVG/1.1/DTD/svg11.dtd"><svg width="100%" height="100%" viewBox="0 0 480 48" version="1.1" xmlns="http://www.w3.org/2000/svg" xmlns:xlink="http://www.w3.org/1999/xlink" xml:space="preserve" xmlns:serif="http://www.serif.com/" style="fill-rule:evenodd;clip-rule:evenodd;stroke-linejoin:round;stroke-miterlimit:2;"><path id="Back-hills" serif:id="Back hills" d="M393.96,39.35l-307.92,0c0,0 2.341,-0.726 6.334,-3.084c1.744,-1.03 4.426,-3.926 6.321,-4.601c3.751,-1.338 7.404,-3.971 9.365,-4.374c9.63,-1.976 12.311,0.356 15.786,0c5.147,-0.526 6.679,-3.359 11.241,-3.879c3.109,-0.355 9.065,-0.266 12.078,-0.729c3.822,-0.586 4.692,-1.694 8.587,-1.703c8.623,-0.02 22.203,3.033 31.075,2.314c7.868,-0.638 14.361,-5.826 22.156,-6.628c7.795,-0.803 16.375,1.653 24.614,1.814c8.93,0.175 20.427,-2.39 28.966,-0.766c8.429,1.603 14.449,9.757 22.264,10.51c2.646,0.255 2.645,-4.191 5.922,-3.874c8.576,0.83 13.028,-1.44 19.714,-1.586c7.261,-0.158 16.475,1.322 23.738,1.586c6.606,0.241 13.855,-1.023 19.839,0c5.826,0.997 9.995,5.32 16.065,6.141c8.439,1.141 7.118,4.944 11.364,6.096c6.381,1.73 12.491,2.763 12.491,2.763Z" style="fill:#1d344a;"/><g id="Tree-Left" serif:id="Tree Left"><path d="M164.481,18.959c0.607,-0.407 1.734,-0.603 2.379,-0.089c0.656,0.523 1.037,2.155 1.561,3.23c0.547,1.12 1.195,2.482 1.718,3.494c0.451,0.872 1.124,1.707 1.42,2.574c0.284,0.833 0.616,1.865 0.355,2.632c-0.26,0.768 -1.062,1.762 -1.92,1.976c-1.895,0.472 -7.595,1.3 -9.45,0.861c-1.173,-0.278 -1.902,-2.208 -1.683,-3.496c0.181,-1.061 0.012,-2.365 0.897,-3.922c0.57,-1.003 0.959,-2.053 1.326,-2.783c0.324,-0.644 1.755,-1.557 2.134,-2.124c0.45,-0.674 0.657,-1.946 1.263,-2.353Z" style="fill:#50997b;"/><path d="M164.82,19.382c0.397,-0.626 1.461,-0.948 2.04,-0.512c0.6,0.453 1.037,2.155 1.561,3.23c0.547,1.12 1.195,2.482 1.718,3.494c0.451,0.872 1.124,1.707 1.42,2.574c0.284,0.833 0.616,1.865 0.355,2.632c-0.26,0.768 -1.071,1.722 -1.92,1.976c-1.676,0.499 -7.009,1.29 -8.135,1.022c-0.907,-0.215 1.336,-1.614 1.379,-2.627c0.043,-1.017 -1.657,-2.138 -1.12,-3.474c0.368,-0.912 0.167,-1.767 0.645,-2.851c0.194,-0.441 1.019,-0.92 1.233,-1.456c0.393,-0.985 0.347,-3.255 0.824,-4.008Z" style="fill:#346665;"/></g><g id="Tree-Right" serif:id="Tree Right"><path d="M326.327,23.207c0.442,-0.318 1.191,-0.24 1.568,0.155c0.383,0.402 0.486,1.507 0.733,2.259c0.258,0.784 0.644,1.675 0.813,2.446c0.155,0.71 0.085,1.587 0.201,2.183c0.095,0.488 0.652,0.973 0.494,1.392c-0.157,0.419 -0.855,1.059 -1.437,1.122c-1.285,0.14 -5.098,0.17 -6.275,-0.285c-0.745,-0.288 -1.049,-1.62 -0.789,-2.444c0.351,-1.118 2.117,-3.123 2.899,-4.261c0.592,-0.86 1.233,-2.165 1.793,-2.567Z" style="fill:#50997b;"/><path d="M326.511,23.514c0.211,-0.364 1.035,-0.48 1.384,-0.152c0.394,0.372 0.58,1.633 0.985,2.383c0.41,0.76 1.306,1.409 1.476,2.179c0.169,0.77 -0.425,1.822 -0.461,2.442c-0.026,0.435 0.433,0.891 0.241,1.276c-0.199,0.4 -0.857,1.033 -1.437,1.122c-1.144,0.177 -4.713,0.216 -5.427,-0.061c-0.576,-0.223 0.875,-0.989 1.14,-1.599c0.3,-0.688 0.183,-1.705 0.656,-2.533c0.455,-0.795 -0.572,-0.737 0.08,-1.886c0.171,-0.301 1.349,-0.636 1.482,-1.136c0.136,-0.513 -0.33,-1.67 -0.119,-2.035Z" style="fill:#346665;"/></g><g id="Sand"><path id="Base" d="M0,38.957c0,0 7.491,-0.115 14.978,-0.4c3.699,-0.14 4.464,-0.504 6.382,-0.56c3.199,-0.093 8.36,-0.12 12,-0.528c3.321,-0.373 6.505,-1.708 9.84,-1.923c3.8,-0.244 9.24,0.658 12.96,0.454c3.165,-0.174 6.226,-1.203 9.36,-1.68c3.68,-0.56 8.6,-1.48 12.72,-1.68c3.998,-0.194 8.004,0.717 12,0.48c5.4,-0.32 13.92,-2.16 20.4,-2.4c6.164,-0.228 12.88,1.12 18.48,0.96c5.078,-0.145 10.32,-1.36 15.12,-1.92c4.554,-0.531 10.605,-1.176 13.68,-1.44c3.999,-0.344 8.64,-0.954 12.96,-0.72c6.64,0.36 18.32,2.64 26.88,2.88c8.171,0.229 18.68,-0.96 24.48,-1.44c3.461,-0.286 6.992,-0.445 10.32,-1.44c3.88,-1.16 8.364,-4.56 12.96,-5.52c5.36,-1.12 13.92,-0.84 19.2,-1.2c4.163,-0.284 8.308,-0.995 12.48,-0.96c4.8,0.04 11.08,0.36 16.32,1.2c5.134,0.823 10.72,2.8 15.12,3.84c3.741,0.884 7.483,1.797 11.28,2.4c5.04,0.8 14.2,2 18.96,2.4c3.189,0.268 6.413,-0.29 9.6,0c3.96,0.36 9.386,2.098 14.16,2.16c6.2,0.08 17.16,-1.28 23.04,-1.68c4.078,-0.277 8.154,-0.788 12.24,-0.72c4.84,0.08 12.96,0.8 16.8,1.2c2.107,0.219 4.439,0.755 6.24,1.2c3.56,0.88 9.6,3.44 13.68,4.08c3.557,0.558 5.292,-0.549 10.8,-0.24c3.728,0.209 8.56,1.68 11.52,2.16c2.067,0.335 4.149,0.611 6.24,0.72c3.84,0.2 16.8,0.48 16.8,0.48l0,8.88l-480,0l0,-9.043Z" style="fill:#c2b4b4;"/><path d="M415.956,35.506c2.957,2.444 -7.086,1.8 -10.499,0.964c-3.404,-0.835 -5.168,-1.999 -7.184,-2.261c-7.372,-0.955 -15.963,-0.995 -17.087,-1.908c-1.432,-1.163 10.387,-2.636 15.678,-2.807c4.06,-0.13 13.184,0.411 19,1.435c5.409,0.952 -3.449,1.652 0.092,4.577Z" style="fill:#b6ada8;"/><path d="M87.396,39.586c-5.658,5.464 -6.846,-1.56 -10.259,-2.396c-3.404,-0.835 -9.525,3.655 -11.984,2.059c-3.02,-1.958 -16.416,1.842 -10.367,-1.908c1.605,-0.995 3.642,-1.605 8.269,-2.641c4.578,-1.026 11.498,-2.001 14.129,-2.086c3.125,-0.1 4.56,2.457 8.038,2.32c2.652,-0.104 4.793,-0.157 5.682,0.315c4.868,2.585 -2.599,3.459 -3.508,4.337Z" style="fill:#b6ada8;"/><path d="M182.866,36.237c7.155,0.156 19.368,4.991 22.928,4.997c5.173,0.008 13.984,0.709 21.239,0.323c4.487,-0.239 14.485,1.873 19.226,1.571c5.919,-0.378 9.018,-1.337 13.72,-2.102c8.242,-1.341 16.935,-2.583 22.316,-2.622c9.985,-0.072 19.759,-0.424 25.832,-1.238c3.998,-0.536 7.569,2.546 12.618,0.779c6.26,-2.19 16.825,-2.487 14.276,-4.23c-4.269,-2.92 -9.773,-0.896 -14.416,-2.055c-4.768,-1.192 -9.321,-3.638 -14.192,-5.092c-6.283,-1.876 -16.572,-5.225 -23.505,-6.163c-5.941,-0.804 -15.661,-0.009 -18.094,0.536c-0.793,0.177 11.052,-0.082 13.573,1.291c2.675,1.456 -4.231,4.425 -5.471,4.47c-2.687,0.099 -16.43,-2.099 -18.824,-1.484c-6.12,1.571 -10.234,4.984 -11.433,4.256c-1.275,-0.774 -0.828,-4.004 -1.575,-3.85c-4.746,0.984 -8.362,6.174 -13.231,6.883c-4.87,0.709 -9.735,-3.212 -15.987,-2.628c-1.649,0.154 -15.273,0.576 -24.936,0.765c-7.253,0.142 -11.431,-1.376 -15.333,-1.223c-2.85,0.111 -6.3,1.567 -8.079,2.139c-0.618,0.198 -2.655,0.945 -6.118,0.059c-8.793,-2.252 -18.924,4.055 -9.681,3.632c5.85,-0.267 9.631,4.896 15.146,5.05c5.858,0.165 13.1,-4.213 20.001,-4.064Z" style="fill:#b6ada8;"/></g><g id="Bush"><path d="M204.889,26.693c0.799,-0.315 2.281,-1.139 3.296,-1.073c1.014,0.067 2.023,0.952 2.791,1.474c0.712,0.486 1.296,1.086 1.812,1.663c0.508,0.567 1.041,1.202 1.287,1.797c0.235,0.571 0.506,1.277 0.184,1.774c-0.323,0.496 -1.22,1.112 -2.121,1.206c-1.99,0.206 -7.932,0.43 -9.818,0.031c-1.192,-0.252 -1.81,-1.581 -1.494,-2.426c0.148,-0.395 1.157,-1.251 1.647,-1.83c0.517,-0.612 0.345,-1.243 0.919,-1.798c0.457,-0.442 0.946,-0.6 1.497,-0.818Z" style="fill:#50997b;"/><path d="M206.598,26.936c0.475,-0.634 1.402,-1.258 2.143,-1.249c0.74,0.008 1.629,0.792 2.299,1.3c0.674,0.512 1.242,1.175 1.748,1.77c0.49,0.575 1.041,1.202 1.287,1.797c0.235,0.571 0.506,1.277 0.184,1.774c-0.323,0.496 -1.227,1.086 -2.121,1.206c-1.765,0.236 -7.121,0.453 -8.471,0.214c-0.768,-0.136 0.276,-1.098 0.371,-1.651c0.116,-0.675 -0.327,-1.54 0.321,-2.399c0.383,-0.507 2.211,-0.317 2.685,-0.884c0.298,-0.358 -0.791,-1.417 -0.446,-1.878Z" style="fill:#346665;"/></g><g id="Bush-Left" serif:id="Bush Left"><path d="M105.417,33.081c0.543,-0.358 1.845,-0.922 2.666,-0.868c0.82,0.054 1.688,0.718 2.257,1.192c0.563,0.47 0.738,1.188 1.156,1.655c0.376,0.419 1.101,0.713 1.351,1.143c0.249,0.43 0.409,1.033 0.148,1.435c-0.261,0.402 -0.986,0.9 -1.715,0.975c-1.609,0.167 -6.467,0.349 -7.94,0.026c-0.928,-0.203 -1.155,-1.279 -0.899,-1.962c0.12,-0.32 0.626,-1.012 1.022,-1.481c0.418,-0.494 0.899,-0.385 1.363,-0.834c0.37,-0.357 0.128,-0.976 0.591,-1.281Z" style="fill:#50997b;"/><path d="M106.799,33.277c0.385,-0.513 1.135,-1.017 1.733,-1.01c0.599,0.007 1.384,0.602 1.86,1.051c0.494,0.466 0.695,1.261 1.104,1.742c0.362,0.425 1.101,0.713 1.351,1.143c0.249,0.43 0.409,1.033 0.148,1.435c-0.261,0.402 -0.991,0.878 -1.715,0.975c-1.428,0.192 -5.656,0.522 -6.851,0.174c-0.995,-0.29 -0.764,-1.973 -0.32,-2.266c1.093,-0.719 1.285,-0.313 1.81,-1.008c0.309,-0.409 0.238,-0.568 0.621,-1.027c0.241,-0.289 -0.019,-0.837 0.259,-1.209Z" style="fill:#346665;"/></g><g id="Tree-Front" serif:id="Tree Front"><path d="M283.343,12.373c1.036,-1.155 3.449,-1.787 4.423,-0.548c1.505,1.913 3.155,9.213 4.603,12.024c0.985,1.913 2.895,3.184 4.082,4.844c1.145,1.601 2.317,3.241 3.038,5.113c0.759,1.969 2.022,4.801 1.514,6.7c-0.508,1.898 -2.523,4.184 -4.563,4.693c-4.503,1.123 -18.044,3.089 -22.452,2.046c-2.787,-0.659 -4.228,-5.202 -3.998,-8.306c0.278,-3.755 3.441,-9.793 5.666,-14.221c0.665,-1.321 4.7,-3.887 5.39,-5.403c1.058,-2.325 1.177,-5.694 2.297,-6.942Z" style="fill:#50997b;"/><path d="M284.148,13.376c0.213,-0.466 0.752,-1.771 1.415,-2.075c1.11,-0.511 2.57,0.21 3.43,0.859c0.584,0.441 2.108,2.161 2.603,3.291c0.713,1.629 0.93,6.222 1.665,7.729c1.299,2.662 2.379,3.279 3.525,4.955c1.309,1.917 3.612,4.132 4.334,6.544c0.723,2.413 1.018,6.114 0,7.929c-1.017,1.815 -3.914,2.504 -6.105,2.962c-4.001,0.837 -15.298,2.7 -17.903,2.058c-1.913,-0.471 2.175,-3.766 2.272,-5.907c0.122,-2.657 -2.822,-6.864 -1.544,-10.039c0.655,-1.627 5.508,-1.726 6.31,-3.488c0.701,-1.539 -1.441,-3.465 -0.622,-5.517c0.498,-1.246 0.535,-2.091 1.142,-4.254c0.534,-1.902 -1.094,-3.799 -0.522,-5.047Z" style="fill:#346665;"/></g></svg>