<?xml version="1.0" encoding="UTF-8" standalone="no"?><!DOCTYPE svg PUBLIC "-//W3C//DTD SVG 1.1//EN" "http://www.w3.org/Graphics/SVG/1.1/DTD/svg11.dtd"><svg width="100%" height="100%" viewBox="0 0 1440 235" version="1.1" xmlns="http://www.w3.org/2000/svg" xmlns:xlink="http://www.w3.org/1999/xlink" xml:space="preserve" xmlns:serif="http://www.serif.com/" style="fill-rule:evenodd;clip-rule:evenodd;stroke-linejoin:round;stroke-miterlimit:1.41421;"><rect x="0" y="-65" width="1440" height="300" style="fill:#3b85e9;"/><g id="Back-hill" serif:id="Back hill"><path id="Grass" d="M113,191.5c0,0 531.662,-16.641 271.532,-62.304c-11.748,-2.063 -15.974,-5.484 -27.251,-7.448c-8.524,-1.484 -23.404,-7.801 -30.728,-7.749c-0.916,0.007 -0.019,-0.567 -0.911,-0.541c-20.265,0.582 -121.255,8.087 -138.682,9.359c-45.09,3.29 -101.919,-3.822 -141.019,-10.225c-27.288,-4.469 -45.941,-3.192 -45.941,-3.192l0,72.6l113,9.5Z" style="fill:#57c98f;"/><path id="Sand" d="M343.317,156.481c-1.216,0.295 -6.211,-10.281 -20.153,-14.338c-19.218,-5.592 -28.611,-8.357 -35.963,-13.058c-9.125,-5.835 22.469,-14.389 38.931,-15.413c3.644,-0.226 18.868,0.328 36.746,5.569c43.63,12.791 71.518,10.617 89.398,13.769c11.859,2.09 -90.488,18.996 -108.959,23.471Z" style="fill:#d5b38b;"/></g><g id="Front-hill" serif:id="Front hill"><path id="Grass1" serif:id="Grass" d="M0,170c0,0 47.911,13.611 142.32,-5.763c182.686,-37.49 619.019,-40.77 781.68,-95.237c171.297,-57.359 266.038,-80.095 332.421,-52.976c97.224,39.717 183.579,87.976 183.579,87.976l0,131l-1440,0l0,-65Z" style="fill:#60da9c;"/><g id="Sand1" serif:id="Sand"><path d="M1119.14,43.36c0,0 22.775,-14.051 -9.589,-1.677c-44.614,17.057 -96.425,52.771 -118.459,92.881c-15.691,28.565 69.789,57.594 104.612,68.064c8.707,2.617 -4.132,-7.892 -4.132,-7.892c0,0 -61.521,-32.582 -30.714,-94.129c16.522,-33.009 58.282,-57.247 58.282,-57.247Z" style="fill:#57c98f;"/></g></g></svg>