<?xml version="1.0" encoding="UTF-8" standalone="no"?><!DOCTYPE svg PUBLIC "-//W3C//DTD SVG 1.1//EN" "http://www.w3.org/Graphics/SVG/1.1/DTD/svg11.dtd"><svg width="100%" height="100%" viewBox="0 0 432 64" version="1.1" xmlns="http://www.w3.org/2000/svg" xmlns:xlink="http://www.w3.org/1999/xlink" xml:space="preserve" xmlns:serif="http://www.serif.com/" style="fill-rule:evenodd;clip-rule:evenodd;stroke-linecap:round;stroke-linejoin:round;stroke-miterlimit:1.5;"><g id="back-hill" serif:id="back hill"><path id="light" d="M374.938,60.277l-179.795,-0.827c0,0 11.177,-6.099 37.769,-18.003c13.808,-6.182 37.492,-21.765 53.269,-15.423c8.945,3.595 20.745,12.699 32.225,19.16c20.459,11.516 56.532,15.093 56.532,15.093Z" style="fill:#fafdff;stroke:#e1ebf2;stroke-width:0.81px;"/><path id="dark" d="M374.938,60.277l-69.631,-0.827c0,0 -60.513,-1.627 -33.921,-13.53c13.808,-6.182 -0.982,-26.238 14.795,-19.896c8.945,3.595 20.745,12.699 32.225,19.16c20.459,11.516 56.532,15.093 56.532,15.093Z" style="fill:#ebf2f7;stroke:#e1ebf2;stroke-width:0.5px;stroke-linecap:butt;stroke-miterlimit:2;"/></g><g id="front-hill" serif:id="front hill"><path id="light1" serif:id="light" d="M631.72,62.69l-570.07,0.896l-17.858,0.414l-63.565,-0.069l-2.405,-3.654l54.86,0c0,0 22.467,-0.88 27.5,-2.304c9.231,-2.609 27.322,-9.825 55.73,-29.763c11.482,-8.059 23.51,-28.754 37.966,-23.31c25.278,9.519 54.509,29.995 77.701,38.024c30.152,10.437 54.514,14.284 68.116,15.701c7.615,0.794 8.897,1.638 20.09,1.652c65.044,0.083 311.935,0 311.935,0l0,2.413Z" style="fill:#fafdff;stroke:#e1ebf2;stroke-width:0.81px;"/><path id="dark1" serif:id="dark" d="M57.769,59.037l-3.943,0c0,0 18.19,-0.019 62.086,-30.827c11.482,-8.059 26.231,-30.009 39.836,-20.187c11.187,8.078 3.616,7.93 25.796,22.648c29.268,19.423 -123.775,28.366 -123.775,28.366Z" style="fill:#ebf2f7;stroke:#e1ebf2;stroke-width:0.5px;stroke-linecap:butt;stroke-miterlimit:2;"/></g></svg>