<?xml version="1.0" encoding="UTF-8" standalone="no"?><!DOCTYPE svg PUBLIC "-//W3C//DTD SVG 1.1//EN" "http://www.w3.org/Graphics/SVG/1.1/DTD/svg11.dtd"><svg width="100%" height="100%" viewBox="0 0 432 64" version="1.1" xmlns="http://www.w3.org/2000/svg" xmlns:xlink="http://www.w3.org/1999/xlink" xml:space="preserve" xmlns:serif="http://www.serif.com/" style="fill-rule:evenodd;clip-rule:evenodd;stroke-linecap:round;stroke-linejoin:round;stroke-miterlimit:1.5;"><path id="back-hill" serif:id="back hill" d="M184.8,62.4l104.915,0c0,0 -7.198,-2.867 -24.323,-8.461c-8.893,-2.905 -20.402,-13.831 -30.563,-10.851c-5.76,1.69 -17.102,9.571 -24.496,12.608c-13.176,5.412 -25.533,6.704 -25.533,6.704Z" style="fill:#fff;stroke:#dee5e9;stroke-width:1px;"/><g id="front-hill" serif:id="front hill"><path id="front-hill1" serif:id="front hill" d="M184.8,62.4l203.28,0c0,0 -15.132,-0.203 -49.61,-14.681c-9.019,-3.787 -18.467,-13.513 -29.822,-10.955c-19.855,4.474 -42.814,14.096 -61.031,17.869c-36.942,7.652 -62.817,7.767 -62.817,7.767l0,0Z" style="fill:#fff;stroke:#dee5e9;stroke-width:1px;"/><path id="front-hill2" serif:id="front hill" d="M388.08,62.4c0,0 -15.132,-0.203 -49.61,-14.681c-9.019,-3.787 -20.604,-14.103 -31.29,-9.487c-8.788,3.796 -2.841,3.727 -20.262,10.643c-22.989,9.128 101.162,13.525 101.162,13.525Z" style="fill:#ecf2f6;stroke:#dee5e9;stroke-width:1px;"/></g><path d="M0,62.4c11.947,0 431.209,0.72 432,0.72" style="fill:none;stroke:#dee5e9;stroke-width:1px;"/></svg>