<?xml version="1.0" encoding="UTF-8" standalone="no"?><!DOCTYPE svg PUBLIC "-//W3C//DTD SVG 1.1//EN" "http://www.w3.org/Graphics/SVG/1.1/DTD/svg11.dtd"><svg width="100%" height="100%" viewBox="0 0 271 149" version="1.1" xmlns="http://www.w3.org/2000/svg" xmlns:xlink="http://www.w3.org/1999/xlink" xml:space="preserve" xmlns:serif="http://www.serif.com/" style="fill-rule:evenodd;clip-rule:evenodd;stroke-linejoin:round;stroke-miterlimit:2;"><g id="Location-markers" serif:id="Location markers"><g id="Andrew---Lisa" serif:id="Andrew - Lisa"><path d="M249.817,103.41c0.568,0 1.028,0.461 1.028,1.029c0,0.568 -1.028,2.571 -1.028,2.571c0,0 -1.029,-2.003 -1.029,-2.571c0,-0.568 0.461,-1.029 1.029,-1.029" style="fill:#649ace;fill-rule:nonzero;stroke:#5a8bba;stroke-width:0.2px;"/><path d="M250.245,104.439c0,0.237 -0.192,0.428 -0.428,0.428c-0.237,0 -0.429,-0.191 -0.429,-0.428c0,-0.237 0.192,-0.429 0.429,-0.429c0.236,0 0.428,0.192 0.428,0.429" style="fill:#4b657e;fill-rule:nonzero;"/></g><g id="Tubiz"><path d="M132.429,71.21c0.568,0 1.028,0.461 1.028,1.029c0,0.568 -1.028,2.571 -1.028,2.571c0,0 -1.029,-2.003 -1.029,-2.571c0,-0.568 0.461,-1.029 1.029,-1.029" style="fill:#649ace;fill-rule:nonzero;stroke:#5a8bba;stroke-width:0.2px;"/><path d="M132.857,72.239c0,0.237 -0.192,0.428 -0.428,0.428c-0.237,0 -0.429,-0.191 -0.429,-0.428c0,-0.237 0.192,-0.429 0.429,-0.429c0.236,0 0.428,0.192 0.428,0.429" style="fill:#4b657e;fill-rule:nonzero;"/></g><g id="Mihai"><path d="M144.909,41.21c0.568,0 1.028,0.461 1.028,1.029c0,0.568 -1.028,2.571 -1.028,2.571c0,0 -1.029,-2.003 -1.029,-2.571c0,-0.568 0.461,-1.029 1.029,-1.029" style="fill:#649ace;fill-rule:nonzero;stroke:#5a8bba;stroke-width:0.2px;"/><path d="M145.337,42.239c0,0.237 -0.192,0.428 -0.428,0.428c-0.237,0 -0.429,-0.191 -0.429,-0.428c0,-0.237 0.192,-0.429 0.429,-0.429c0.236,0 0.428,0.192 0.428,0.429" style="fill:#4b657e;fill-rule:nonzero;"/></g><g id="Michael"><path d="M135.789,38.57c0.568,0 1.028,0.461 1.028,1.029c0,0.568 -1.028,2.571 -1.028,2.571c0,0 -1.029,-2.003 -1.029,-2.571c0,-0.568 0.461,-1.029 1.029,-1.029" style="fill:#649ace;fill-rule:nonzero;stroke:#5a8bba;stroke-width:0.2px;"/><path d="M136.217,39.599c0,0.237 -0.192,0.428 -0.428,0.428c-0.237,0 -0.429,-0.191 -0.429,-0.428c0,-0.237 0.192,-0.429 0.429,-0.429c0.236,0 0.428,0.192 0.428,0.429" style="fill:#4b657e;fill-rule:nonzero;"/></g><g id="Ashley"><path d="M128.589,34.97c0.568,0 1.028,0.461 1.028,1.029c0,0.568 -1.028,2.571 -1.028,2.571c0,0 -1.029,-2.003 -1.029,-2.571c0,-0.568 0.461,-1.029 1.029,-1.029" style="fill:#649ace;fill-rule:nonzero;stroke:#5a8bba;stroke-width:0.2px;"/><path d="M129.017,35.999c0,0.237 -0.192,0.428 -0.428,0.428c-0.237,0 -0.429,-0.191 -0.429,-0.428c0,-0.237 0.192,-0.429 0.429,-0.429c0.236,0 0.428,0.192 0.428,0.429" style="fill:#4b657e;fill-rule:nonzero;"/></g><g id="Spencer---Florida" serif:id="Spencer - Florida"><path d="M53.709,52.61c0.568,0 1.028,0.461 1.028,1.029c0,0.568 -1.028,2.571 -1.028,2.571c0,0 -1.029,-2.003 -1.029,-2.571c0,-0.568 0.461,-1.029 1.029,-1.029" style="fill:#649ace;fill-rule:nonzero;stroke:#5a8bba;stroke-width:0.2px;"/><path d="M54.137,53.639c0,0.237 -0.192,0.428 -0.428,0.428c-0.237,0 -0.429,-0.191 -0.429,-0.428c0,-0.237 0.192,-0.429 0.429,-0.429c0.236,0 0.428,0.192 0.428,0.429" style="fill:#4b657e;fill-rule:nonzero;"/></g><g id="Chris---Arizona" serif:id="Chris - Arizona"><path d="M74.589,55.85c0.568,0 1.028,0.461 1.028,1.029c0,0.568 -1.028,2.571 -1.028,2.571c0,0 -1.029,-2.003 -1.029,-2.571c0,-0.568 0.461,-1.029 1.029,-1.029" style="fill:#649ace;fill-rule:nonzero;stroke:#5a8bba;stroke-width:0.2px;"/><path d="M75.017,56.879c0,0.237 -0.192,0.428 -0.428,0.428c-0.237,0 -0.429,-0.191 -0.429,-0.428c0,-0.237 0.192,-0.429 0.429,-0.429c0.236,0 0.428,0.192 0.428,0.429" style="fill:#4b657e;fill-rule:nonzero;"/></g><g id="Sean---San-Diego" serif:id="Sean - San Diego"><path d="M48.909,53.57c0.568,0 1.028,0.461 1.028,1.029c0,0.568 -1.028,2.571 -1.028,2.571c0,0 -1.029,-2.003 -1.029,-2.571c0,-0.568 0.461,-1.029 1.029,-1.029" style="fill:#649ace;fill-rule:nonzero;stroke:#5a8bba;stroke-width:0.2px;"/><path d="M49.337,54.599c0,0.237 -0.192,0.428 -0.428,0.428c-0.237,0 -0.429,-0.191 -0.429,-0.428c0,-0.237 0.192,-0.429 0.429,-0.429c0.236,0 0.428,0.192 0.428,0.429" style="fill:#4b657e;fill-rule:nonzero;"/></g><g id="Phil-D---Fresno" serif:id="Phil D - Fresno"><path d="M46.851,48.29c0.568,0 1.029,0.461 1.029,1.029c0,0.568 -1.029,2.571 -1.029,2.571c0,0 -1.028,-2.003 -1.028,-2.571c0,-0.568 0.46,-1.029 1.028,-1.029" style="fill:#649ace;fill-rule:nonzero;stroke:#5a8bba;stroke-width:0.2px;"/><path d="M47.28,49.319c0,0.237 -0.192,0.428 -0.429,0.428c-0.236,0 -0.428,-0.191 -0.428,-0.428c0,-0.237 0.192,-0.429 0.428,-0.429c0.237,0 0.429,0.192 0.429,0.429" style="fill:#4b657e;fill-rule:nonzero;"/></g><g id="Tyler"><path d="M64.851,45.77c0.568,0 1.029,0.461 1.029,1.029c0,0.568 -1.029,2.571 -1.029,2.571c0,0 -1.028,-2.003 -1.028,-2.571c0,-0.568 0.46,-1.029 1.028,-1.029" style="fill:#649ace;fill-rule:nonzero;stroke:#5a8bba;stroke-width:0.2px;"/><path d="M65.28,46.799c0,0.237 -0.192,0.428 -0.429,0.428c-0.236,0 -0.428,-0.191 -0.428,-0.428c0,-0.237 0.192,-0.429 0.428,-0.429c0.237,0 0.429,0.192 0.429,0.429" style="fill:#4b657e;fill-rule:nonzero;"/></g><g id="Daniel---KS" serif:id="Daniel - KS"><path d="M62.451,47.45c0.568,0 1.029,0.461 1.029,1.029c0,0.568 -1.029,2.571 -1.029,2.571c0,0 -1.028,-2.003 -1.028,-2.571c0,-0.568 0.46,-1.029 1.028,-1.029" style="fill:#649ace;fill-rule:nonzero;stroke:#5a8bba;stroke-width:0.2px;"/><path d="M62.88,48.479c0,0.237 -0.192,0.428 -0.429,0.428c-0.236,0 -0.428,-0.191 -0.428,-0.428c0,-0.237 0.192,-0.429 0.428,-0.429c0.237,0 0.429,0.192 0.429,0.429" style="fill:#4b657e;fill-rule:nonzero;"/></g><g id="Pippin---Hutch" serif:id="Pippin - Hutch"><path d="M61.731,46.97c0.568,0 1.029,0.461 1.029,1.029c0,0.568 -1.029,2.571 -1.029,2.571c0,0 -1.028,-2.003 -1.028,-2.571c0,-0.568 0.46,-1.029 1.028,-1.029" style="fill:#649ace;fill-rule:nonzero;stroke:#5a8bba;stroke-width:0.2px;"/><path d="M62.16,47.999c0,0.237 -0.192,0.428 -0.429,0.428c-0.236,0 -0.428,-0.191 -0.428,-0.428c0,-0.237 0.192,-0.429 0.428,-0.429c0.237,0 0.429,0.192 0.429,0.429" style="fill:#4b657e;fill-rule:nonzero;"/></g><g id="Drew---Colorado" serif:id="Drew - Colorado"><path d="M56.931,45.29c0.568,0 1.029,0.461 1.029,1.029c0,0.568 -1.029,2.571 -1.029,2.571c0,0 -1.028,-2.003 -1.028,-2.571c0,-0.568 0.46,-1.029 1.028,-1.029" style="fill:#649ace;fill-rule:nonzero;stroke:#5a8bba;stroke-width:0.2px;"/><path d="M57.36,46.319c0,0.237 -0.192,0.428 -0.429,0.428c-0.236,0 -0.428,-0.191 -0.428,-0.428c0,-0.237 0.192,-0.429 0.428,-0.429c0.237,0 0.429,0.192 0.429,0.429" style="fill:#4b657e;fill-rule:nonzero;"/></g><g id="Phil-J" serif:id="Phil J"><path d="M75,42.17c0.568,0 1.029,0.461 1.029,1.029c0,0.568 -1.029,2.571 -1.029,2.571c0,0 -1.029,-2.003 -1.029,-2.571c0,-0.568 0.461,-1.029 1.029,-1.029" style="fill:#649ace;fill-rule:nonzero;stroke:#5a8bba;stroke-width:0.2px;"/><path d="M75.429,43.199c0,0.237 -0.192,0.428 -0.429,0.428c-0.237,0 -0.429,-0.191 -0.429,-0.428c0,-0.237 0.192,-0.429 0.429,-0.429c0.237,0 0.429,0.192 0.429,0.429" style="fill:#4b657e;fill-rule:nonzero;"/></g><g id="Mandy-Minnesota" serif:id="Mandy Minnesota"><path d="M71.4,43.61c0.568,0 1.029,0.461 1.029,1.029c0,0.568 -1.029,2.571 -1.029,2.571c0,0 -1.029,-2.003 -1.029,-2.571c0,-0.568 0.461,-1.029 1.029,-1.029" style="fill:#649ace;fill-rule:nonzero;stroke:#5a8bba;stroke-width:0.2px;"/><path d="M71.829,44.639c0,0.237 -0.192,0.428 -0.429,0.428c-0.237,0 -0.429,-0.191 -0.429,-0.428c0,-0.237 0.192,-0.429 0.429,-0.429c0.237,0 0.429,0.192 0.429,0.429" style="fill:#4b657e;fill-rule:nonzero;"/></g><g id="JJJ---Keri" serif:id="JJJ - Keri"><path d="M68.28,43.13c0.568,0 1.029,0.461 1.029,1.029c0,0.568 -1.029,2.571 -1.029,2.571c0,0 -1.029,-2.003 -1.029,-2.571c0,-0.568 0.461,-1.029 1.029,-1.029" style="fill:#649ace;fill-rule:nonzero;stroke:#5a8bba;stroke-width:0.2px;"/><path d="M68.709,44.159c0,0.237 -0.192,0.428 -0.429,0.428c-0.237,0 -0.429,-0.191 -0.429,-0.428c0,-0.237 0.192,-0.429 0.429,-0.429c0.237,0 0.429,0.192 0.429,0.429" style="fill:#4b657e;fill-rule:nonzero;"/></g><g id="Mandy-Minnesota1" serif:id="Mandy Minnesota"><path d="M65.331,41.81c0.568,0 1.029,0.461 1.029,1.029c0,0.568 -1.029,2.571 -1.029,2.571c0,0 -1.028,-2.003 -1.028,-2.571c0,-0.568 0.46,-1.029 1.028,-1.029" style="fill:#649ace;fill-rule:nonzero;stroke:#5a8bba;stroke-width:0.2px;"/><path d="M65.76,42.839c0,0.237 -0.192,0.428 -0.429,0.428c-0.236,0 -0.428,-0.191 -0.428,-0.428c0,-0.237 0.192,-0.429 0.428,-0.429c0.237,0 0.429,0.192 0.429,0.429" style="fill:#4b657e;fill-rule:nonzero;"/></g><g id="Ginger---Oregon" serif:id="Ginger - Oregon"><path d="M44.794,41.33c0.568,0 1.029,0.461 1.029,1.029c0,0.568 -1.029,2.571 -1.029,2.571c0,0 -1.028,-2.003 -1.028,-2.571c0,-0.568 0.46,-1.029 1.028,-1.029" style="fill:#649ace;fill-rule:nonzero;stroke:#5a8bba;stroke-width:0.2px;"/><path d="M45.223,42.359c0,0.237 -0.192,0.428 -0.429,0.428c-0.236,0 -0.428,-0.191 -0.428,-0.428c0,-0.237 0.192,-0.429 0.428,-0.429c0.237,0 0.429,0.192 0.429,0.429" style="fill:#4b657e;fill-rule:nonzero;"/></g></g></svg>