<svg viewBox="0 0 244 126" xmlns="http://www.w3.org/2000/svg" fill-rule="evenodd" clip-rule="evenodd" stroke-linejoin="round" stroke-miterlimit="2"><g fill-rule="nonzero"><path d="M58.757 52.739c.568 0 1.028.46 1.028 1.029 0 .568-1.028 2.57-1.028 2.57s-1.03-2.002-1.03-2.57a1.03 1.03 0 011.03-1.03" fill="#649ace" stroke="#5a8bba" stroke-width=".2"/><path d="M59.184 53.768a.428.428 0 11-.855 0 .428.428 0 01.855 0" fill="#4b657e"/><path d="M58.086 50.939c.568 0 1.028.46 1.028 1.029 0 .568-1.028 2.57-1.028 2.57s-1.029-2.002-1.029-2.57a1.03 1.03 0 011.029-1.03" fill="#649ace" stroke="#5a8bba" stroke-width=".2"/><path d="M58.514 51.968a.428.428 0 11-.856 0 .428.428 0 01.856 0" fill="#4b657e"/><path d="M236.817 103.41c.568 0 1.028.461 1.028 1.029 0 .568-1.028 2.571-1.028 2.571s-1.029-2.003-1.029-2.571a1.03 1.03 0 011.029-1.029" fill="#649ace" stroke="#5a8bba" stroke-width=".2"/><path d="M237.245 104.439a.428.428 0 11-.856 0 .428.428 0 01.856 0" fill="#4b657e"/><path d="M119.429 71.21c.568 0 1.028.461 1.028 1.029 0 .568-1.028 2.571-1.028 2.571s-1.029-2.003-1.029-2.571a1.03 1.03 0 011.029-1.029" fill="#649ace" stroke="#5a8bba" stroke-width=".2"/><path d="M119.857 72.239a.428.428 0 11-.856 0 .428.428 0 01.856 0" fill="#4b657e"/><path d="M131.909 41.21c.568 0 1.028.461 1.028 1.029 0 .568-1.028 2.571-1.028 2.571s-1.029-2.003-1.029-2.571a1.03 1.03 0 011.029-1.029" fill="#649ace" stroke="#5a8bba" stroke-width=".2"/><path d="M132.337 42.239a.428.428 0 11-.856 0 .428.428 0 01.856 0" fill="#4b657e"/><path d="M115.589 34.97c.568 0 1.028.461 1.028 1.029 0 .568-1.028 2.571-1.028 2.571s-1.029-2.003-1.029-2.571a1.03 1.03 0 011.029-1.029" fill="#649ace" stroke="#5a8bba" stroke-width=".2"/><path d="M116.017 35.999a.428.428 0 11-.856 0 .428.428 0 01.856 0" fill="#4b657e"/><path d="M50.113 53.922c.568 0 1.028.461 1.028 1.03 0 .567-1.028 2.57-1.028 2.57s-1.03-2.003-1.03-2.57a1.03 1.03 0 011.03-1.03" fill="#649ace" stroke="#5a8bba" stroke-width=".2"/><path d="M50.54 54.951a.428.428 0 11-.855 0 .428.428 0 01.856 0" fill="#4b657e"/><path d="M41.029 53c.568 0 1.028.461 1.028 1.029 0 .568-1.028 2.571-1.028 2.571S40 54.597 40 54.029A1.03 1.03 0 0141.029 53" fill="#649ace" stroke="#5a8bba" stroke-width=".2"/><path d="M41.457 54.029a.428.428 0 11-.856 0 .428.428 0 01.856 0" fill="#4b657e"/><path d="M61.589 55.85c.568 0 1.028.461 1.028 1.029 0 .568-1.028 2.571-1.028 2.571s-1.029-2.003-1.029-2.571a1.03 1.03 0 011.029-1.029" fill="#649ace" stroke="#5a8bba" stroke-width=".2"/><path d="M62.017 56.879a.428.428 0 11-.856 0 .428.428 0 01.856 0" fill="#4b657e"/><path d="M56.029 47.57c.568 0 1.028.461 1.028 1.029 0 .568-1.028 2.571-1.028 2.571S55 49.167 55 48.599a1.03 1.03 0 011.029-1.029" fill="#649ace" stroke="#5a8bba" stroke-width=".2"/><path d="M56.457 48.599a.428.428 0 11-.856 0 .428.428 0 01.856 0" fill="#4b657e"/><path d="M56.029 44c.568 0 1.028.461 1.028 1.029 0 .568-1.028 2.571-1.028 2.571S55 45.597 55 45.029A1.03 1.03 0 0156.029 44" fill="#649ace" stroke="#5a8bba" stroke-width=".2"/><path d="M56.457 45.029a.428.428 0 11-.856 0 .428.428 0 01.856 0" fill="#4b657e"/><path d="M33.851 48.29a1.03 1.03 0 011.029 1.029c0 .568-1.029 2.571-1.029 2.571s-1.028-2.003-1.028-2.571c0-.568.46-1.029 1.028-1.029" fill="#649ace" stroke="#5a8bba" stroke-width=".2"/><path d="M34.28 49.319a.428.428 0 11-.856 0 .428.428 0 01.856 0" fill="#4b657e"/><g><path d="M51.851 45.77a1.03 1.03 0 011.029 1.029c0 .568-1.029 2.571-1.029 2.571s-1.028-2.003-1.028-2.571c0-.568.46-1.029 1.028-1.029" fill="#649ace" stroke="#5a8bba" stroke-width=".2"/><path d="M52.28 46.799a.428.428 0 11-.856 0 .428.428 0 01.856 0" fill="#4b657e"/></g><g><path d="M49.451 47.45a1.03 1.03 0 011.029 1.029c0 .568-1.029 2.571-1.029 2.571s-1.028-2.003-1.028-2.571c0-.568.46-1.029 1.028-1.029" fill="#649ace" stroke="#5a8bba" stroke-width=".2"/><path d="M49.88 48.479a.428.428 0 11-.856 0 .428.428 0 01.856 0" fill="#4b657e"/></g><g><path d="M48.731 46.97a1.03 1.03 0 011.029 1.029c0 .568-1.029 2.571-1.029 2.571s-1.028-2.003-1.028-2.571c0-.568.46-1.029 1.028-1.029" fill="#649ace" stroke="#5a8bba" stroke-width=".2"/><path d="M49.16 47.999a.428.428 0 11-.856 0 .428.428 0 01.856 0" fill="#4b657e"/></g><g><path d="M43.931 45.29a1.03 1.03 0 011.029 1.029c0 .568-1.029 2.571-1.029 2.571s-1.028-2.003-1.028-2.571c0-.568.46-1.029 1.028-1.029" fill="#649ace" stroke="#5a8bba" stroke-width=".2"/><path d="M44.36 46.319a.428.428 0 11-.856 0 .428.428 0 01.856 0" fill="#4b657e"/></g><g><path d="M61.619 45a1.03 1.03 0 011.029 1.029c0 .568-1.029 2.571-1.029 2.571s-1.029-2.003-1.029-2.571A1.03 1.03 0 0161.619 45" fill="#649ace" stroke="#5a8bba" stroke-width=".2"/><path d="M62.048 46.029a.428.428 0 11-.856 0 .428.428 0 01.856 0" fill="#4b657e"/></g><g><path d="M59.561 43.61a1.03 1.03 0 011.029 1.029c0 .568-1.029 2.571-1.029 2.571s-1.029-2.003-1.029-2.571a1.03 1.03 0 011.029-1.029" fill="#649ace" stroke="#5a8bba" stroke-width=".2"/><path d="M59.99 44.639a.428.428 0 11-.856 0 .428.428 0 01.856 0" fill="#4b657e"/></g><g><path d="M58.4 43.61a1.03 1.03 0 011.029 1.029c0 .568-1.029 2.571-1.029 2.571s-1.029-2.003-1.029-2.571A1.03 1.03 0 0158.4 43.61" fill="#649ace" stroke="#5a8bba" stroke-width=".2"/><path d="M58.829 44.639a.428.428 0 11-.856 0 .428.428 0 01.856 0" fill="#4b657e"/></g><g><path d="M55.28 43.13a1.03 1.03 0 011.029 1.029c0 .568-1.029 2.571-1.029 2.571s-1.029-2.003-1.029-2.571a1.03 1.03 0 011.029-1.029" fill="#649ace" stroke="#5a8bba" stroke-width=".2"/><path d="M55.709 44.159a.428.428 0 11-.856 0 .428.428 0 01.856 0" fill="#4b657e"/></g><g><path d="M52.331 41.81a1.03 1.03 0 011.029 1.029c0 .568-1.029 2.571-1.029 2.571s-1.028-2.003-1.028-2.571c0-.568.46-1.029 1.028-1.029" fill="#649ace" stroke="#5a8bba" stroke-width=".2"/><path d="M52.76 42.839a.428.428 0 11-.856 0 .428.428 0 01.856 0" fill="#4b657e"/></g><g><path d="M37.028 43a1.03 1.03 0 011.029 1.029c0 .568-1.029 2.571-1.029 2.571S36 44.597 36 44.029c0-.568.46-1.029 1.028-1.029" fill="#649ace" stroke="#5a8bba" stroke-width=".2"/><path d="M37.457 44.029a.428.428 0 11-.856 0 .428.428 0 01.856 0" fill="#4b657e"/></g><g><path d="M30.758 41.618a1.03 1.03 0 011.029 1.029c0 .568-1.03 2.57-1.03 2.57s-1.027-2.002-1.027-2.57c0-.568.46-1.03 1.028-1.03" fill="#649ace" stroke="#5a8bba" stroke-width=".2"/><path d="M31.187 42.647a.428.428 0 11-.856 0 .428.428 0 01.856 0" fill="#4b657e"/></g><g><path d="M31.786 38.018a1.03 1.03 0 011.03 1.029c0 .568-1.03 2.57-1.03 2.57s-1.028-2.002-1.028-2.57c0-.568.46-1.03 1.028-1.03" fill="#649ace" stroke="#5a8bba" stroke-width=".2"/><path d="M32.215 39.047a.428.428 0 11-.856 0 .428.428 0 01.856 0" fill="#4b657e"/></g></g></svg>