<svg viewBox="0 0 244 126" xmlns="http://www.w3.org/2000/svg" fill-rule="evenodd" clip-rule="evenodd" stroke-linejoin="round" stroke-miterlimit="2"><g fill-rule="nonzero"><path d="M249.817,103.41C250.385,103.41 250.845,103.871 250.845,104.439C250.845,105.007 249.817,107.01 249.817,107.01C249.817,107.01 248.788,105.007 248.788,104.439C248.788,103.871 249.249,103.41 249.817,103.41" fill="#649ace" stroke="#5a8bba" stroke-width=".2" transform="translate(-13)"/><path d="M250.245,104.439C250.245,104.676 250.053,104.867 249.817,104.867C249.58,104.867 249.388,104.676 249.388,104.439C249.388,104.202 249.58,104.01 249.817,104.01C250.053,104.01 250.245,104.202 250.245,104.439" fill="#4b657e" transform="translate(-13)"/><path d="M132.429,71.21C132.997,71.21 133.457,71.671 133.457,72.239C133.457,72.807 132.429,74.81 132.429,74.81C132.429,74.81 131.4,72.807 131.4,72.239C131.4,71.671 131.861,71.21 132.429,71.21" fill="#649ace" stroke="#5a8bba" stroke-width=".2" transform="translate(-13)"/><path d="M132.857,72.239C132.857,72.476 132.665,72.667 132.429,72.667C132.192,72.667 132,72.476 132,72.239C132,72.002 132.192,71.81 132.429,71.81C132.665,71.81 132.857,72.002 132.857,72.239" fill="#4b657e" transform="translate(-13)"/><path d="M144.909,41.21C145.477,41.21 145.937,41.671 145.937,42.239C145.937,42.807 144.909,44.81 144.909,44.81C144.909,44.81 143.88,42.807 143.88,42.239C143.88,41.671 144.341,41.21 144.909,41.21" fill="#649ace" stroke="#5a8bba" stroke-width=".2" transform="translate(-13)"/><path d="M145.337,42.239C145.337,42.476 145.145,42.667 144.909,42.667C144.672,42.667 144.48,42.476 144.48,42.239C144.48,42.002 144.672,41.81 144.909,41.81C145.145,41.81 145.337,42.002 145.337,42.239" fill="#4b657e" transform="translate(-13)"/><path d="M135.789,38.57C136.357,38.57 136.817,39.031 136.817,39.599C136.817,40.167 135.789,42.17 135.789,42.17C135.789,42.17 134.76,40.167 134.76,39.599C134.76,39.031 135.221,38.57 135.789,38.57" fill="#649ace" stroke="#5a8bba" stroke-width=".2" transform="translate(-13)"/><path d="M136.217,39.599C136.217,39.836 136.025,40.027 135.789,40.027C135.552,40.027 135.36,39.836 135.36,39.599C135.36,39.362 135.552,39.17 135.789,39.17C136.025,39.17 136.217,39.362 136.217,39.599" fill="#4b657e" transform="translate(-13)"/><path d="M128.589,34.97C129.157,34.97 129.617,35.431 129.617,35.999C129.617,36.567 128.589,38.57 128.589,38.57C128.589,38.57 127.56,36.567 127.56,35.999C127.56,35.431 128.021,34.97 128.589,34.97" fill="#649ace" stroke="#5a8bba" stroke-width=".2" transform="translate(-13)"/><path d="M129.017,35.999C129.017,36.236 128.825,36.427 128.589,36.427C128.352,36.427 128.16,36.236 128.16,35.999C128.16,35.762 128.352,35.57 128.589,35.57C128.825,35.57 129.017,35.762 129.017,35.999" fill="#4b657e" transform="translate(-13)"/><path d="M53.709,52.61C54.277,52.61 54.737,53.071 54.737,53.639C54.737,54.207 53.709,56.21 53.709,56.21C53.709,56.21 52.68,54.207 52.68,53.639C52.68,53.071 53.141,52.61 53.709,52.61" fill="#649ace" stroke="#5a8bba" stroke-width=".2" transform="translate(-3.596 1.312)"/><path d="M54.137,53.639C54.137,53.876 53.945,54.067 53.709,54.067C53.472,54.067 53.28,53.876 53.28,53.639C53.28,53.402 53.472,53.21 53.709,53.21C53.945,53.21 54.137,53.402 54.137,53.639" fill="#4b657e" transform="translate(-3.596 1.312)"/><path d="M53.709,52.61C54.277,52.61 54.737,53.071 54.737,53.639C54.737,54.207 53.709,56.21 53.709,56.21C53.709,56.21 52.68,54.207 52.68,53.639C52.68,53.071 53.141,52.61 53.709,52.61" fill="#649ace" stroke="#5a8bba" stroke-width=".2" transform="translate(-12.68 .39)"/><path d="M54.137,53.639C54.137,53.876 53.945,54.067 53.709,54.067C53.472,54.067 53.28,53.876 53.28,53.639C53.28,53.402 53.472,53.21 53.709,53.21C53.945,53.21 54.137,53.402 54.137,53.639" fill="#4b657e" transform="translate(-12.68 .39)"/><path d="M74.589,55.85C75.157,55.85 75.617,56.311 75.617,56.879C75.617,57.447 74.589,59.45 74.589,59.45C74.589,59.45 73.56,57.447 73.56,56.879C73.56,56.311 74.021,55.85 74.589,55.85" fill="#649ace" stroke="#5a8bba" stroke-width=".2" transform="translate(-13)"/><path d="M75.017,56.879C75.017,57.116 74.825,57.307 74.589,57.307C74.352,57.307 74.16,57.116 74.16,56.879C74.16,56.642 74.352,56.45 74.589,56.45C74.825,56.45 75.017,56.642 75.017,56.879" fill="#4b657e" transform="translate(-13)"/><path d="M48.909,53.57C49.477,53.57 49.937,54.031 49.937,54.599C49.937,55.167 48.909,57.17 48.909,57.17C48.909,57.17 47.88,55.167 47.88,54.599C47.88,54.031 48.341,53.57 48.909,53.57" fill="#649ace" stroke="#5a8bba" stroke-width=".2" transform="translate(7.12 -6)"/><path d="M49.337,54.599C49.337,54.836 49.145,55.027 48.909,55.027C48.672,55.027 48.48,54.836 48.48,54.599C48.48,54.362 48.672,54.17 48.909,54.17C49.145,54.17 49.337,54.362 49.337,54.599" fill="#4b657e" transform="translate(7.12 -6)"/><path d="M48.909,53.57C49.477,53.57 49.937,54.031 49.937,54.599C49.937,55.167 48.909,57.17 48.909,57.17C48.909,57.17 47.88,55.167 47.88,54.599C47.88,54.031 48.341,53.57 48.909,53.57" fill="#649ace" stroke="#5a8bba" stroke-width=".2" transform="translate(7.12 -9.57)"/><path d="M49.337,54.599C49.337,54.836 49.145,55.027 48.909,55.027C48.672,55.027 48.48,54.836 48.48,54.599C48.48,54.362 48.672,54.17 48.909,54.17C49.145,54.17 49.337,54.362 49.337,54.599" fill="#4b657e" transform="translate(7.12 -9.57)"/><path d="M46.851,48.29C47.419,48.29 47.88,48.751 47.88,49.319C47.88,49.887 46.851,51.89 46.851,51.89C46.851,51.89 45.823,49.887 45.823,49.319C45.823,48.751 46.283,48.29 46.851,48.29" fill="#649ace" stroke="#5a8bba" stroke-width=".2" transform="translate(-13)"/><path d="M47.28,49.319C47.28,49.556 47.088,49.747 46.851,49.747C46.615,49.747 46.423,49.556 46.423,49.319C46.423,49.082 46.615,48.89 46.851,48.89C47.088,48.89 47.28,49.082 47.28,49.319" fill="#4b657e" transform="translate(-13)"/><g><path d="M64.851,45.77C65.419,45.77 65.88,46.231 65.88,46.799C65.88,47.367 64.851,49.37 64.851,49.37C64.851,49.37 63.823,47.367 63.823,46.799C63.823,46.231 64.283,45.77 64.851,45.77" fill="#649ace" stroke="#5a8bba" stroke-width=".2" transform="translate(-13)"/><path d="M65.28,46.799C65.28,47.036 65.088,47.227 64.851,47.227C64.615,47.227 64.423,47.036 64.423,46.799C64.423,46.562 64.615,46.37 64.851,46.37C65.088,46.37 65.28,46.562 65.28,46.799" fill="#4b657e" transform="translate(-13)"/></g><g><path d="M62.451,47.45C63.019,47.45 63.48,47.911 63.48,48.479C63.48,49.047 62.451,51.05 62.451,51.05C62.451,51.05 61.423,49.047 61.423,48.479C61.423,47.911 61.883,47.45 62.451,47.45" fill="#649ace" stroke="#5a8bba" stroke-width=".2" transform="translate(-13)"/><path d="M62.88,48.479C62.88,48.716 62.688,48.907 62.451,48.907C62.215,48.907 62.023,48.716 62.023,48.479C62.023,48.242 62.215,48.05 62.451,48.05C62.688,48.05 62.88,48.242 62.88,48.479" fill="#4b657e" transform="translate(-13)"/></g><g><path d="M61.731,46.97C62.299,46.97 62.76,47.431 62.76,47.999C62.76,48.567 61.731,50.57 61.731,50.57C61.731,50.57 60.703,48.567 60.703,47.999C60.703,47.431 61.163,46.97 61.731,46.97" fill="#649ace" stroke="#5a8bba" stroke-width=".2" transform="translate(-13)"/><path d="M62.16,47.999C62.16,48.236 61.968,48.427 61.731,48.427C61.495,48.427 61.303,48.236 61.303,47.999C61.303,47.762 61.495,47.57 61.731,47.57C61.968,47.57 62.16,47.762 62.16,47.999" fill="#4b657e" transform="translate(-13)"/></g><g><path d="M56.931,45.29C57.499,45.29 57.96,45.751 57.96,46.319C57.96,46.887 56.931,48.89 56.931,48.89C56.931,48.89 55.903,46.887 55.903,46.319C55.903,45.751 56.363,45.29 56.931,45.29" fill="#649ace" stroke="#5a8bba" stroke-width=".2" transform="translate(-13)"/><path d="M57.36,46.319C57.36,46.556 57.168,46.747 56.931,46.747C56.695,46.747 56.503,46.556 56.503,46.319C56.503,46.082 56.695,45.89 56.931,45.89C57.168,45.89 57.36,46.082 57.36,46.319" fill="#4b657e" transform="translate(-13)"/></g><g><path d="M71.4,43.61C71.968,43.61 72.429,44.071 72.429,44.639C72.429,45.207 71.4,47.21 71.4,47.21C71.4,47.21 70.371,45.207 70.371,44.639C70.371,44.071 70.832,43.61 71.4,43.61" fill="#649ace" stroke="#5a8bba" stroke-width=".2" transform="translate(-9.781 1.39)"/><path d="M71.829,44.639C71.829,44.876 71.637,45.067 71.4,45.067C71.163,45.067 70.971,44.876 70.971,44.639C70.971,44.402 71.163,44.21 71.4,44.21C71.637,44.21 71.829,44.402 71.829,44.639" fill="#4b657e" transform="translate(-9.781 1.39)"/></g><g><path d="M71.4,43.61C71.968,43.61 72.429,44.071 72.429,44.639C72.429,45.207 71.4,47.21 71.4,47.21C71.4,47.21 70.371,45.207 70.371,44.639C70.371,44.071 70.832,43.61 71.4,43.61" fill="#649ace" stroke="#5a8bba" stroke-width=".2" transform="translate(-11.839)"/><path d="M71.829,44.639C71.829,44.876 71.637,45.067 71.4,45.067C71.163,45.067 70.971,44.876 70.971,44.639C70.971,44.402 71.163,44.21 71.4,44.21C71.637,44.21 71.829,44.402 71.829,44.639" fill="#4b657e" transform="translate(-11.839)"/></g><g><path d="M71.4,43.61C71.968,43.61 72.429,44.071 72.429,44.639C72.429,45.207 71.4,47.21 71.4,47.21C71.4,47.21 70.371,45.207 70.371,44.639C70.371,44.071 70.832,43.61 71.4,43.61" fill="#649ace" stroke="#5a8bba" stroke-width=".2" transform="translate(-13)"/><path d="M71.829,44.639C71.829,44.876 71.637,45.067 71.4,45.067C71.163,45.067 70.971,44.876 70.971,44.639C70.971,44.402 71.163,44.21 71.4,44.21C71.637,44.21 71.829,44.402 71.829,44.639" fill="#4b657e" transform="translate(-13)"/></g><g><path d="M68.28,43.13C68.848,43.13 69.309,43.591 69.309,44.159C69.309,44.727 68.28,46.73 68.28,46.73C68.28,46.73 67.251,44.727 67.251,44.159C67.251,43.591 67.712,43.13 68.28,43.13" fill="#649ace" stroke="#5a8bba" stroke-width=".2" transform="translate(-13)"/><path d="M68.709,44.159C68.709,44.396 68.517,44.587 68.28,44.587C68.043,44.587 67.851,44.396 67.851,44.159C67.851,43.922 68.043,43.73 68.28,43.73C68.517,43.73 68.709,43.922 68.709,44.159" fill="#4b657e" transform="translate(-13)"/></g><g><path d="M65.331,41.81C65.899,41.81 66.36,42.271 66.36,42.839C66.36,43.407 65.331,45.41 65.331,45.41C65.331,45.41 64.303,43.407 64.303,42.839C64.303,42.271 64.763,41.81 65.331,41.81" fill="#649ace" stroke="#5a8bba" stroke-width=".2" transform="translate(-13)"/><path d="M65.76,42.839C65.76,43.076 65.568,43.267 65.331,43.267C65.095,43.267 64.903,43.076 64.903,42.839C64.903,42.602 65.095,42.41 65.331,42.41C65.568,42.41 65.76,42.602 65.76,42.839" fill="#4b657e" transform="translate(-13)"/></g><g><path d="M44.794,41.33C45.362,41.33 45.823,41.791 45.823,42.359C45.823,42.927 44.794,44.93 44.794,44.93C44.794,44.93 43.766,42.927 43.766,42.359C43.766,41.791 44.226,41.33 44.794,41.33" fill="#649ace" stroke="#5a8bba" stroke-width=".2" transform="translate(-7.766 1.67)"/><path d="M45.223,42.359C45.223,42.596 45.031,42.787 44.794,42.787C44.558,42.787 44.366,42.596 44.366,42.359C44.366,42.122 44.558,41.93 44.794,41.93C45.031,41.93 45.223,42.122 45.223,42.359" fill="#4b657e" transform="translate(-7.766 1.67)"/></g><g><path d="M44.794,41.33C45.362,41.33 45.823,41.791 45.823,42.359C45.823,42.927 44.794,44.93 44.794,44.93C44.794,44.93 43.766,42.927 43.766,42.359C43.766,41.791 44.226,41.33 44.794,41.33" fill="#649ace" stroke="#5a8bba" stroke-width=".2" transform="translate(-13)"/><path d="M45.223,42.359C45.223,42.596 45.031,42.787 44.794,42.787C44.558,42.787 44.366,42.596 44.366,42.359C44.366,42.122 44.558,41.93 44.794,41.93C45.031,41.93 45.223,42.122 45.223,42.359" fill="#4b657e" transform="translate(-13)"/></g></g></svg>