<?xml version="1.0" encoding="UTF-8" standalone="no"?><!DOCTYPE svg PUBLIC "-//W3C//DTD SVG 1.1//EN" "http://www.w3.org/Graphics/SVG/1.1/DTD/svg11.dtd"><svg width="100%" height="100%" viewBox="0 0 271 149" version="1.1" xmlns="http://www.w3.org/2000/svg" xmlns:xlink="http://www.w3.org/1999/xlink" xml:space="preserve" xmlns:serif="http://www.serif.com/" style="fill-rule:evenodd;clip-rule:evenodd;stroke-linecap:round;stroke-linejoin:round;stroke-miterlimit:1.5;"><g id="Pangaea"><g id="South-East-Asia---Australia" serif:id="South East Asia / Australia"><path d="M194.554,77.431l6.675,6.674l0.861,-0.861l1.076,-0.646l-1.937,-1.938l-4.737,-3.875l-1.938,0.646Z" style="fill:#fff;stroke:#e1ebf2;stroke-width:0.3px;"/><path d="M202.52,85.827l0.646,-1.722l1.938,0.43l4.306,1.292l0.215,1.292l-2.368,-0.431l-4.737,-0.861Z" style="fill:#fff;stroke:#e1ebf2;stroke-width:0.3px;"/><path d="M205.319,80.445l2.153,2.583l2.799,0l1.292,-3.66l-1.077,-2.583l-0.861,0l-2.153,2.583l-2.153,1.077Z" style="fill:#fff;stroke:#e1ebf2;stroke-width:0.3px;"/><path d="M215.008,77.861l-1.938,0.646l-1.507,6.028l1.507,-0.43l0.646,-1.077l0.646,1.077l1.292,0l-1.077,-2.369l0.646,-1.291l-1.292,0l-0.646,0.43l0.431,-1.722l1.507,-0.431l-0.215,-0.861Z" style="fill:#fff;stroke:#e1ebf2;stroke-width:0.3px;"/><path d="M211.563,67.742l0.646,1.938l1.399,0.43l0.538,-2.798l-2.583,0.43Z" style="fill:#fff;stroke:#e1ebf2;stroke-width:0.3px;"/><path d="M214.146,74.847l0.862,1.076l0.646,1.292l1.722,-0.43l0.215,-2.369l-1.292,-0.861l-2.153,1.292Z" style="fill:#fff;stroke:#e1ebf2;stroke-width:0.3px;"/><path d="M219.314,80.875l0.215,0.861l1.292,0.216l0.43,1.076l3.014,1.077l0.431,1.507l0.861,1.076l2.368,0.431l1.723,-0.646l1.507,0l0.215,1.076l2.153,0.431l0.861,-0.431l-1.937,-1.291l-1.292,-1.077l-0.431,-1.076l-1.507,-1.077l-1.937,-1.076l-2.799,-0.754l-0.646,1.184l-1.077,0l-0.646,-0.861l0.216,-0.861l-2.153,-0.431l-0.861,0.646Z" style="fill:#fff;stroke:#e1ebf2;stroke-width:0.3px;"/></g><g id="Asian-Islands" serif:id="Asian Islands"><path d="M219.314,56.116l0.861,1.292l3.014,-0.861l3.014,-0.861l0.646,-1.077l0.431,-2.153l0.215,-1.722l-1.723,-0.216l-1.076,1.507l-1.076,1.938l-3.23,1.077l-1.076,1.076Z" style="fill:#fff;stroke:#e1ebf2;stroke-width:0.3px;"/><path d="M226.203,49.227l1.292,0.215l1.076,-0.861c0,0 1.019,-0.588 0.646,-0.646c-0.373,-0.059 -1.722,-0.215 -1.722,-0.215l-1.077,0.645l-0.215,0.862Z" style="fill:#fff;stroke:#e1ebf2;stroke-width:0.3px;"/><path d="M227.495,39.969l0.256,2.153l0,3.66l1.036,0.215l0.215,-1.292l-0.215,-2.583l-0.216,-1.507l-0.215,-1.077l-0.861,0.431Z" style="fill:#fff;stroke:#e1ebf2;stroke-width:0.3px;"/></g><path id="Russia" d="M191.756,8.966l6.889,2.368l2.584,-2.368l-3.015,-3.875l-3.014,0l-3.444,3.875Z" style="fill:#fff;stroke:#e1ebf2;stroke-width:0.3px;"/><g id="North-Atlantic" serif:id="North Atlantic"><path d="M135.348,8.966l3.229,0l2.368,2.368l5.383,-2.368l-4.091,-3.875l-6.889,1.291l0,2.584Z" style="fill:#fff;stroke:#e1ebf2;stroke-width:0.3px;"/><path d="M111.773,25.598l2.368,5.328l4.736,-1.291l-0.215,-4.037l-4.736,0l-2.153,0Z" style="fill:#fff;stroke:#e1ebf2;stroke-width:0.3px;"/><path d="M122.43,37.601l0,2.583l1.937,0.215l1.508,-1.291l0.215,3.014l2.153,-0.861l2.153,-1.507l-2.799,-4.737l-1.722,-0.431l-3.445,3.015Z" style="fill:#fff;stroke:#e1ebf2;stroke-width:0.3px;"/><path id="Greenland" d="M81.093,11.98l5.167,0.861l3.445,2.153l2.368,3.623l0.646,5.42l1.937,3.875l2.369,3.014l3.014,0l1.938,-3.444l7.966,-5.243l3.014,-3.622l1.507,-7.498l1.507,-2.153l6.028,-3.229l-3.014,-2.799l-8.612,-1.723l-9.042,-0.215l-10.55,1.938l-4.521,4.09l-5.167,4.952Z" style="fill:#fff;stroke:#e1ebf2;stroke-width:0.3px;"/></g><path id="Madagascar" d="M162.906,90.133l-3.23,1.938l0,6.889l3.66,-0.215l1.723,-6.674l-2.153,-1.938Z" style="fill:#fff;stroke:#e1ebf2;stroke-width:0.3px;"/><path id="Africa-Europe-Asia" serif:id="Africa Europe Asia" d="M128.028,55.255l-5.168,0.861l-4.951,6.89l-0.431,9.042l8.181,6.028l7.751,-2.368l1.938,4.521l3.66,7.32l-1.938,6.89l5.813,11.195l4.952,0.862l4.521,-5.167l1.507,-7.105l3.876,-3.876l-0.646,-6.459l5.382,-6.243l2.153,-5.598l-4.736,0l-4.522,-4.736l-2.153,-6.459l0.646,-1.938l2.153,3.445l4.521,7.32l8.182,-2.368l-0.431,-3.876l-3.229,-0.43l-0.862,-3.23l2.369,-0.215l6.674,2.153l4.952,5.598l4.521,7.75l2.584,-7.75l6.674,-3.23l5.167,5.383l0.215,4.305l4.091,5.383l1.722,-1.938l-3.014,-3.229l0.215,-1.938l4.522,0l-1.938,-4.736l1.507,-3.23l6.674,-0.431l3.445,-5.597l-1.938,-6.029l2.369,-1.937l2.798,4.736l1.292,-1.937l0.216,-3.015l4.09,-3.229l2.799,-7.32l-1.938,-1.507l3.445,-4.521l7.105,-0.431l3.875,-1.938l2.584,0.646l-3.445,4.952l1.507,3.23l2.799,-2.369l0.215,-3.445l3.23,-1.291l4.09,0.43l3.876,-3.014l-1.077,-3.229l4.091,-2.153l-7.751,-5.167l-7.966,2.368l-1.076,-2.368l-12.272,-3.015l-7.966,3.015l-5.167,-4.091l-4.737,0l-7.105,-3.66l-15.932,3.445l-3.444,4.306l-5.383,-1.723l-3.875,4.306l-8.612,1.507l-10.119,4.306l-2.368,-2.799l2.799,-0.215l1.722,-1.507l-8.612,-3.875l-7.32,4.09l-8.827,7.751l2.799,3.014l2.368,-0.646l1.076,1.938l3.015,-0.431l0.43,-4.952l3.445,-2.798l1.722,1.076l-3.229,2.368l2.583,3.014l-1.722,3.661l-9.688,1.507l-7.751,4.521l1.292,2.153l-0.216,1.938l-5.597,0.645l1.937,4.306l4.091,-0.646l3.445,-4.305l2.799,0.43l4.09,3.014l2.369,-1.937l-3.445,-2.799l1.507,-1.723l3.445,4.306l0.861,3.66l1.938,0l0,-2.583l2.152,1.292l1.077,1.937l4.306,-0.43l0,3.444l-3.23,1.938l-6.243,-1.722l-2.799,1.507l-6.028,-4.521l-7.32,1.722Z" style="fill:#fff;stroke:#e1ebf2;stroke-width:0.3px;"/><g id="New-Zealand" serif:id="New Zealand"><path d="M248.587,111.002l-4.514,3.088l1.023,1.696l2.303,-0.033l3.563,-3.971l-2.375,-0.78Z" style="fill:#fff;stroke:#e1ebf2;stroke-width:0.3px;"/><path d="M249.025,106.696l0.861,1.292l0,1.722l1.507,1.292l1.507,-2.153l-1.722,-2.153l-1.938,0" style="fill:#fff;stroke:#e1ebf2;stroke-width:0.3px;"/></g><path id="Australia-" serif:id="Australia " d="M207.472,97.023l4.306,9.473l8.827,-3.445l4.737,3.445l2.368,3.014l5.383,-0.646l4.09,-9.904l-6.243,-4.413l-2.153,-4.414l-2.153,0l0,4.414l-3.445,-4.414l-3.23,-1.938l-0.861,1.938l-3.444,0l-2.153,4.414l-2.153,0l-3.876,2.476Z" style="fill:#fff;stroke:#e1ebf2;stroke-width:0.3px;"/><path id="Americas" d="M13.92,24.683l3.229,2.799l-3.229,4.09l7.105,3.66l5.813,-3.014l9.042,1.507l7.105,9.904l0,7.751l12.918,15.932l11.411,4.521l1.507,3.014l5.813,2.153l-1.723,5.813l3.015,7.966l4.521,2.799l-2.153,13.564l0.215,16.147l5.383,1.292l-1.938,-5.598l3.445,-8.181l10.119,-9.258l0,-3.23l5.813,-3.014l1.937,-5.598l3.23,-3.229l-1.723,-4.091l-9.257,-3.014l-3.23,-3.445l-10.549,-4.09l-7.105,1.507l-2.799,-1.077l-0.861,-3.229l-2.799,-1.722l-5.598,-2.584l0.431,-5.167l6.243,-0.215l2.584,2.153l2.153,2.583l3.445,-0.431l-2.799,-5.813l3.66,-2.368l0,-5.167l9.258,-2.583l-1.507,-5.168l7.104,-1.937l-8.181,-8.397l-3.66,1.507l-5.167,-2.583l-1.292,2.153l0.431,5.167l-7.536,-2.799l-2.583,-3.445l3.229,-3.875l3.876,0.215l-1.292,-4.306l-6.244,-2.368l-9.904,2.799l-7.104,-0.431l-3.876,-3.014l-5.813,0l-4.306,1.507l-12.272,-3.229l-7.535,5.167Z" style="fill:#fff;stroke:#e1ebf2;stroke-width:0.3px;"/><g id="Canada"><path d="M42.985,14.994l-1.076,3.876l5.597,0l3.015,2.583c0,0 11.412,1.904 9.688,-0.215c-1.724,-2.119 -4.952,-4.521 -4.952,-4.521l-4.952,0.861l-2.799,-2.153l-4.521,-0.431Z" style="fill:#fff;stroke:#e1ebf2;stroke-width:0.3px;"/><path d="M86.26,3.153l-10.98,-0.215l-12.488,3.014l1.723,2.799l-1.723,0.646l-2.406,-0.862l-2.976,1.292l-3.445,1.507l-4.736,-1.076l-3.66,1.507l-1.077,1.507l6.655,1.722l22.41,0l3.445,-6.459l9.258,-5.382Z" style="fill:#fff;stroke:#e1ebf2;stroke-width:0.3px;"/><path d="M75.495,26.405l3.875,4.521l3.445,0l3.445,-4.736l-5.167,-3.951l-6.459,-6.276l-6.028,0l-3.23,2.654l3.66,3.622l9.258,0l-2.799,4.166Z" style="fill:#fff;stroke:#e1ebf2;stroke-width:0.3px;"/></g></g><g id="Andrew---Lisa" serif:id="Andrew - Lisa"><path d="M249.789,102.41c0.568,0 1.028,0.461 1.028,1.029c0,0.568 -1.028,2.571 -1.028,2.571c0,0 -1.029,-2.003 -1.029,-2.571c0,-0.568 0.461,-1.029 1.029,-1.029" style="fill:#ffbd98;fill-rule:nonzero;stroke:#fb5f07;stroke-width:0.2px;stroke-linecap:butt;stroke-miterlimit:2;"/><path d="M250.217,103.439c0,0.237 -0.192,0.428 -0.428,0.428c-0.237,0 -0.429,-0.191 -0.429,-0.428c0,-0.237 0.192,-0.429 0.429,-0.429c0.236,0 0.428,0.192 0.428,0.429" style="fill:#fb5f07;fill-rule:nonzero;"/></g><g id="Tubiz"><path d="M132.429,71.21c0.568,0 1.028,0.461 1.028,1.029c0,0.568 -1.028,2.571 -1.028,2.571c0,0 -1.029,-2.003 -1.029,-2.571c0,-0.568 0.461,-1.029 1.029,-1.029" style="fill:#ffbd98;fill-rule:nonzero;stroke:#fb5f07;stroke-width:0.2px;stroke-linecap:butt;stroke-miterlimit:2;"/><path d="M132.857,72.239c0,0.237 -0.192,0.428 -0.428,0.428c-0.237,0 -0.429,-0.191 -0.429,-0.428c0,-0.237 0.192,-0.429 0.429,-0.429c0.236,0 0.428,0.192 0.428,0.429" style="fill:#fb5f07;fill-rule:nonzero;"/></g><g id="Mihai"><path d="M144.909,41.21c0.568,0 1.028,0.461 1.028,1.029c0,0.568 -1.028,2.571 -1.028,2.571c0,0 -1.029,-2.003 -1.029,-2.571c0,-0.568 0.461,-1.029 1.029,-1.029" style="fill:#ffbd98;fill-rule:nonzero;stroke:#fb5f07;stroke-width:0.2px;stroke-linecap:butt;stroke-miterlimit:2;"/><path d="M145.337,42.239c0,0.237 -0.192,0.428 -0.428,0.428c-0.237,0 -0.429,-0.191 -0.429,-0.428c0,-0.237 0.192,-0.429 0.429,-0.429c0.236,0 0.428,0.192 0.428,0.429" style="fill:#fb5f07;fill-rule:nonzero;"/></g><g id="Michael"><path d="M135.789,38.57c0.568,0 1.028,0.461 1.028,1.029c0,0.568 -1.028,2.571 -1.028,2.571c0,0 -1.029,-2.003 -1.029,-2.571c0,-0.568 0.461,-1.029 1.029,-1.029" style="fill:#ffbd98;fill-rule:nonzero;stroke:#fb5f07;stroke-width:0.2px;stroke-linecap:butt;stroke-miterlimit:2;"/><path d="M136.217,39.599c0,0.237 -0.192,0.428 -0.428,0.428c-0.237,0 -0.429,-0.191 -0.429,-0.428c0,-0.237 0.192,-0.429 0.429,-0.429c0.236,0 0.428,0.192 0.428,0.429" style="fill:#fb5f07;fill-rule:nonzero;"/></g><g id="Ashley"><path d="M128.589,34.97c0.568,0 1.028,0.461 1.028,1.029c0,0.568 -1.028,2.571 -1.028,2.571c0,0 -1.029,-2.003 -1.029,-2.571c0,-0.568 0.461,-1.029 1.029,-1.029" style="fill:#ffbd98;fill-rule:nonzero;stroke:#fb5f07;stroke-width:0.2px;stroke-linecap:butt;stroke-miterlimit:2;"/><path d="M129.017,35.999c0,0.237 -0.192,0.428 -0.428,0.428c-0.237,0 -0.429,-0.191 -0.429,-0.428c0,-0.237 0.192,-0.429 0.429,-0.429c0.236,0 0.428,0.192 0.428,0.429" style="fill:#fb5f07;fill-rule:nonzero;"/></g><g id="Spencer---Florida" serif:id="Spencer - Florida"><path d="M53.709,52.61c0.568,0 1.028,0.461 1.028,1.029c0,0.568 -1.028,2.571 -1.028,2.571c0,0 -1.029,-2.003 -1.029,-2.571c0,-0.568 0.461,-1.029 1.029,-1.029" style="fill:#ffbd98;fill-rule:nonzero;stroke:#fb5f07;stroke-width:0.2px;stroke-linecap:butt;stroke-miterlimit:2;"/><path d="M54.137,53.639c0,0.237 -0.192,0.428 -0.428,0.428c-0.237,0 -0.429,-0.191 -0.429,-0.428c0,-0.237 0.192,-0.429 0.429,-0.429c0.236,0 0.428,0.192 0.428,0.429" style="fill:#fb5f07;fill-rule:nonzero;"/></g><g id="Chris---Arizona" serif:id="Chris - Arizona"><path d="M74.589,55.85c0.568,0 1.028,0.461 1.028,1.029c0,0.568 -1.028,2.571 -1.028,2.571c0,0 -1.029,-2.003 -1.029,-2.571c0,-0.568 0.461,-1.029 1.029,-1.029" style="fill:#ffbd98;fill-rule:nonzero;stroke:#fb5f07;stroke-width:0.2px;stroke-linecap:butt;stroke-miterlimit:2;"/><path d="M75.017,56.879c0,0.237 -0.192,0.428 -0.428,0.428c-0.237,0 -0.429,-0.191 -0.429,-0.428c0,-0.237 0.192,-0.429 0.429,-0.429c0.236,0 0.428,0.192 0.428,0.429" style="fill:#fb5f07;fill-rule:nonzero;"/></g><g id="Sean---San-Diego" serif:id="Sean - San Diego"><path d="M48.909,53.57c0.568,0 1.028,0.461 1.028,1.029c0,0.568 -1.028,2.571 -1.028,2.571c0,0 -1.029,-2.003 -1.029,-2.571c0,-0.568 0.461,-1.029 1.029,-1.029" style="fill:#ffbd98;fill-rule:nonzero;stroke:#fb5f07;stroke-width:0.2px;stroke-linecap:butt;stroke-miterlimit:2;"/><path d="M49.337,54.599c0,0.237 -0.192,0.428 -0.428,0.428c-0.237,0 -0.429,-0.191 -0.429,-0.428c0,-0.237 0.192,-0.429 0.429,-0.429c0.236,0 0.428,0.192 0.428,0.429" style="fill:#fb5f07;fill-rule:nonzero;"/></g><g id="Phil-D---Fresno" serif:id="Phil D - Fresno"><path d="M46.851,48.29c0.568,0 1.029,0.461 1.029,1.029c0,0.568 -1.029,2.571 -1.029,2.571c0,0 -1.028,-2.003 -1.028,-2.571c0,-0.568 0.46,-1.029 1.028,-1.029" style="fill:#ffbd98;fill-rule:nonzero;stroke:#fb5f07;stroke-width:0.2px;stroke-linecap:butt;stroke-miterlimit:2;"/><path d="M47.28,49.319c0,0.237 -0.192,0.428 -0.429,0.428c-0.236,0 -0.428,-0.191 -0.428,-0.428c0,-0.237 0.192,-0.429 0.428,-0.429c0.237,0 0.429,0.192 0.429,0.429" style="fill:#fb5f07;fill-rule:nonzero;"/></g><g id="Tyler"><path d="M64.851,45.77c0.568,0 1.029,0.461 1.029,1.029c0,0.568 -1.029,2.571 -1.029,2.571c0,0 -1.028,-2.003 -1.028,-2.571c0,-0.568 0.46,-1.029 1.028,-1.029" style="fill:#ffbd98;fill-rule:nonzero;stroke:#fb5f07;stroke-width:0.2px;stroke-linecap:butt;stroke-miterlimit:2;"/><path d="M65.28,46.799c0,0.237 -0.192,0.428 -0.429,0.428c-0.236,0 -0.428,-0.191 -0.428,-0.428c0,-0.237 0.192,-0.429 0.428,-0.429c0.237,0 0.429,0.192 0.429,0.429" style="fill:#fb5f07;fill-rule:nonzero;"/></g><g id="Daniel---KS" serif:id="Daniel - KS"><path d="M62.451,47.45c0.568,0 1.029,0.461 1.029,1.029c0,0.568 -1.029,2.571 -1.029,2.571c0,0 -1.028,-2.003 -1.028,-2.571c0,-0.568 0.46,-1.029 1.028,-1.029" style="fill:#ffbd98;fill-rule:nonzero;stroke:#fb5f07;stroke-width:0.2px;stroke-linecap:butt;stroke-miterlimit:2;"/><path d="M62.88,48.479c0,0.237 -0.192,0.428 -0.429,0.428c-0.236,0 -0.428,-0.191 -0.428,-0.428c0,-0.237 0.192,-0.429 0.428,-0.429c0.237,0 0.429,0.192 0.429,0.429" style="fill:#fb5f07;fill-rule:nonzero;"/></g><g id="Pippin---Hutch" serif:id="Pippin - Hutch"><path d="M61.731,46.97c0.568,0 1.029,0.461 1.029,1.029c0,0.568 -1.029,2.571 -1.029,2.571c0,0 -1.028,-2.003 -1.028,-2.571c0,-0.568 0.46,-1.029 1.028,-1.029" style="fill:#ffbd98;fill-rule:nonzero;stroke:#fb5f07;stroke-width:0.2px;stroke-linecap:butt;stroke-miterlimit:2;"/><path d="M62.16,47.999c0,0.237 -0.192,0.428 -0.429,0.428c-0.236,0 -0.428,-0.191 -0.428,-0.428c0,-0.237 0.192,-0.429 0.428,-0.429c0.237,0 0.429,0.192 0.429,0.429" style="fill:#fb5f07;fill-rule:nonzero;"/></g><g id="Drew---Colorado" serif:id="Drew - Colorado"><path d="M56.931,45.29c0.568,0 1.029,0.461 1.029,1.029c0,0.568 -1.029,2.571 -1.029,2.571c0,0 -1.028,-2.003 -1.028,-2.571c0,-0.568 0.46,-1.029 1.028,-1.029" style="fill:#ffbd98;fill-rule:nonzero;stroke:#fb5f07;stroke-width:0.2px;stroke-linecap:butt;stroke-miterlimit:2;"/><path d="M57.36,46.319c0,0.237 -0.192,0.428 -0.429,0.428c-0.236,0 -0.428,-0.191 -0.428,-0.428c0,-0.237 0.192,-0.429 0.428,-0.429c0.237,0 0.429,0.192 0.429,0.429" style="fill:#fb5f07;fill-rule:nonzero;"/></g><g id="Phil-J" serif:id="Phil J"><path d="M75,42.17c0.568,0 1.029,0.461 1.029,1.029c0,0.568 -1.029,2.571 -1.029,2.571c0,0 -1.029,-2.003 -1.029,-2.571c0,-0.568 0.461,-1.029 1.029,-1.029" style="fill:#ffbd98;fill-rule:nonzero;stroke:#fb5f07;stroke-width:0.2px;stroke-linecap:butt;stroke-miterlimit:2;"/><path d="M75.429,43.199c0,0.237 -0.192,0.428 -0.429,0.428c-0.237,0 -0.429,-0.191 -0.429,-0.428c0,-0.237 0.192,-0.429 0.429,-0.429c0.237,0 0.429,0.192 0.429,0.429" style="fill:#fb5f07;fill-rule:nonzero;"/></g><g id="Mandy-Minnesota" serif:id="Mandy Minnesota"><path d="M71.4,43.61c0.568,0 1.029,0.461 1.029,1.029c0,0.568 -1.029,2.571 -1.029,2.571c0,0 -1.029,-2.003 -1.029,-2.571c0,-0.568 0.461,-1.029 1.029,-1.029" style="fill:#ffbd98;fill-rule:nonzero;stroke:#fb5f07;stroke-width:0.2px;stroke-linecap:butt;stroke-miterlimit:2;"/><path d="M71.829,44.639c0,0.237 -0.192,0.428 -0.429,0.428c-0.237,0 -0.429,-0.191 -0.429,-0.428c0,-0.237 0.192,-0.429 0.429,-0.429c0.237,0 0.429,0.192 0.429,0.429" style="fill:#fb5f07;fill-rule:nonzero;"/></g><g id="JJJ---Keri" serif:id="JJJ - Keri"><path d="M68.28,43.13c0.568,0 1.029,0.461 1.029,1.029c0,0.568 -1.029,2.571 -1.029,2.571c0,0 -1.029,-2.003 -1.029,-2.571c0,-0.568 0.461,-1.029 1.029,-1.029" style="fill:#ffbd98;fill-rule:nonzero;stroke:#fb5f07;stroke-width:0.2px;stroke-linecap:butt;stroke-miterlimit:2;"/><path d="M68.709,44.159c0,0.237 -0.192,0.428 -0.429,0.428c-0.237,0 -0.429,-0.191 -0.429,-0.428c0,-0.237 0.192,-0.429 0.429,-0.429c0.237,0 0.429,0.192 0.429,0.429" style="fill:#fb5f07;fill-rule:nonzero;"/></g><g id="Mandy-Minnesota1" serif:id="Mandy Minnesota"><path d="M65.331,41.81c0.568,0 1.029,0.461 1.029,1.029c0,0.568 -1.029,2.571 -1.029,2.571c0,0 -1.028,-2.003 -1.028,-2.571c0,-0.568 0.46,-1.029 1.028,-1.029" style="fill:#ffbd98;fill-rule:nonzero;stroke:#fb5f07;stroke-width:0.2px;stroke-linecap:butt;stroke-miterlimit:2;"/><path d="M65.76,42.839c0,0.237 -0.192,0.428 -0.429,0.428c-0.236,0 -0.428,-0.191 -0.428,-0.428c0,-0.237 0.192,-0.429 0.428,-0.429c0.237,0 0.429,0.192 0.429,0.429" style="fill:#fb5f07;fill-rule:nonzero;"/></g><g id="Ginger---Oregon" serif:id="Ginger - Oregon"><path d="M44.794,41.33c0.568,0 1.029,0.461 1.029,1.029c0,0.568 -1.029,2.571 -1.029,2.571c0,0 -1.028,-2.003 -1.028,-2.571c0,-0.568 0.46,-1.029 1.028,-1.029" style="fill:#ffbd98;fill-rule:nonzero;stroke:#fb5f07;stroke-width:0.2px;stroke-linecap:butt;stroke-miterlimit:2;"/><path d="M45.223,42.359c0,0.237 -0.192,0.428 -0.429,0.428c-0.236,0 -0.428,-0.191 -0.428,-0.428c0,-0.237 0.192,-0.429 0.428,-0.429c0.237,0 0.429,0.192 0.429,0.429" style="fill:#fb5f07;fill-rule:nonzero;"/></g></svg>