<?xml version="1.0" encoding="UTF-8" standalone="no"?><!DOCTYPE svg PUBLIC "-//W3C//DTD SVG 1.1//EN" "http://www.w3.org/Graphics/SVG/1.1/DTD/svg11.dtd"><svg width="100%" height="100%" viewBox="0 0 244 126" version="1.1" xmlns="http://www.w3.org/2000/svg" xmlns:xlink="http://www.w3.org/1999/xlink" xml:space="preserve" xmlns:serif="http://www.serif.com/" style="fill-rule:evenodd;clip-rule:evenodd;stroke-linejoin:round;stroke-miterlimit:2;"><g id="Pangaea"><g id="South-East-Asia---Australia" serif:id="South East Asia / Australia"><path d="M181.554,77.431c0.79,1.22 5.419,5.705 6.675,6.674c0.321,0.248 0.541,-0.612 0.861,-0.861c0.323,-0.251 1.208,-0.249 1.076,-0.646c-0.144,-0.431 -1.248,-1.338 -1.937,-1.938c-1.112,-0.969 -3.625,-3.337 -4.737,-3.875c-0.613,-0.297 -2.308,0.074 -1.938,0.646Z" style="fill:#eef4fa;"/><path d="M189.52,85.827c-0.518,-0.327 0.215,-1.507 0.646,-1.722c0.431,-0.215 1.3,0.254 1.938,0.43c1.041,0.287 3.553,0.861 4.306,1.292c0.379,0.217 0.574,1.148 0.215,1.292c-0.359,0.144 -1.579,-0.287 -2.368,-0.431c-1.184,-0.215 -4.055,-0.431 -4.737,-0.861Z" style="fill:#eef4fa;"/><path d="M192.319,80.445c0,0.61 1.328,2.152 2.153,2.583c0.825,0.43 2.117,0.61 2.799,0c0.682,-0.61 1.256,-2.62 1.292,-3.66c0.032,-0.932 -0.754,-2.153 -1.077,-2.583c-0.172,-0.23 -0.643,-0.187 -0.861,0c-0.502,0.43 -1.435,1.973 -2.153,2.583c-0.611,0.52 -2.153,0.467 -2.153,1.077Z" style="fill:#eef4fa;"/><path d="M202.008,77.861c-0.359,-0.036 -1.626,0.041 -1.938,0.646c-0.574,1.112 -1.507,5.095 -1.507,6.028c0,0.522 1.148,-0.179 1.507,-0.43c0.343,-0.24 0.431,-1.077 0.646,-1.077c0.215,0 0.323,0.897 0.646,1.077c0.323,0.18 1.256,0.395 1.292,0c0.036,-0.395 -1.005,-1.759 -1.077,-2.369c-0.056,-0.478 0.754,-1.076 0.646,-1.291c-0.108,-0.215 -0.969,-0.072 -1.292,0c-0.253,0.056 -0.61,0.645 -0.646,0.43c-0.036,-0.215 0.108,-1.363 0.431,-1.722c0.323,-0.359 1.292,-0.216 1.507,-0.431c0.209,-0.209 0.079,-0.832 -0.215,-0.861Z" style="fill:#eef4fa;"/><path d="M198.563,67.742c-0.323,0.395 0.305,1.543 0.646,1.938c0.319,0.369 1.09,0.808 1.399,0.43c0.323,-0.395 0.879,-2.403 0.538,-2.798c-0.341,-0.395 -2.26,0.035 -2.583,0.43Z" style="fill:#eef4fa;"/><path d="M201.146,74.847c-0.215,0.395 0.615,0.688 0.862,1.076c0.251,0.395 0.251,1.148 0.646,1.292c0.395,0.144 1.399,0.036 1.722,-0.43c0.323,-0.467 0.394,-1.831 0.215,-2.369c-0.164,-0.491 -0.778,-0.925 -1.292,-0.861c-0.574,0.072 -1.938,0.897 -2.153,1.292Z" style="fill:#eef4fa;"/><path d="M206.314,80.875c-0.108,0.251 -0.026,0.689 0.215,0.861c0.251,0.18 1.005,0.001 1.292,0.216c0.287,0.215 0.102,0.871 0.43,1.076c0.574,0.359 2.44,0.646 3.014,1.077c0.418,0.314 0.216,1.077 0.431,1.507c0.205,0.411 0.445,0.882 0.861,1.076c0.538,0.251 1.686,0.467 2.368,0.431c0.613,-0.032 1.185,-0.538 1.723,-0.646c0.493,-0.099 1.22,-0.179 1.507,0c0.287,0.179 -0.094,0.88 0.215,1.076c0.395,0.251 1.651,0.431 2.153,0.431c0.321,0 1.031,-0.159 0.861,-0.431c-0.179,-0.287 -1.399,-0.896 -1.937,-1.291c-0.452,-0.332 -1.005,-0.718 -1.292,-1.077c-0.241,-0.302 -0.173,-0.789 -0.431,-1.076c-0.323,-0.359 -0.983,-0.75 -1.507,-1.077c-0.574,-0.359 -1.248,-0.81 -1.937,-1.076c-0.789,-0.305 -2.225,-0.826 -2.799,-0.754c-0.446,0.056 -0.359,0.987 -0.646,1.184c-0.287,0.197 -0.79,0.144 -1.077,0c-0.287,-0.144 -0.574,-0.574 -0.646,-0.861c-0.072,-0.287 0.462,-0.697 0.216,-0.861c-0.323,-0.215 -1.651,-0.467 -2.153,-0.431c-0.358,0.026 -0.753,0.395 -0.861,0.646Z" style="fill:#eef4fa;"/></g><g id="Asian-Islands" serif:id="Asian Islands"><path d="M206.314,56.116c-0.036,0.395 0.347,1.235 0.861,1.292c0.646,0.072 2.009,-0.574 3.014,-0.861c1.005,-0.287 2.404,-0.538 3.014,-0.861c0.37,-0.196 0.514,-0.68 0.646,-1.077c0.179,-0.538 0.323,-1.507 0.431,-2.153c0.095,-0.571 0.466,-1.399 0.215,-1.722c-0.251,-0.323 -1.257,-0.431 -1.723,-0.216c-0.466,0.215 -0.749,0.984 -1.076,1.507c-0.359,0.574 -0.471,1.514 -1.076,1.938c-0.718,0.502 -2.512,0.718 -3.23,1.077c-0.454,0.227 -1.04,0.681 -1.076,1.076Z" style="fill:#eef4fa;"/><path d="M213.203,49.227c0.179,0.179 0.897,0.323 1.292,0.215c0.395,-0.108 0.789,-0.61 1.076,-0.861c0.229,-0.201 1.019,-0.588 0.646,-0.646c-0.373,-0.059 -1.256,-0.287 -1.722,-0.215c-0.414,0.064 -0.862,0.394 -1.077,0.645c-0.193,0.225 -0.394,0.682 -0.215,0.862Z" style="fill:#eef4fa;"/><path d="M214.495,39.969c-0.101,0.431 0.224,1.431 0.256,2.153c0.043,0.969 -0.173,3.014 0,3.66c0.091,0.341 0.828,0.395 1.036,0.215c0.208,-0.179 0.215,-0.855 0.215,-1.292c0,-0.646 -0.143,-1.901 -0.215,-2.583c-0.053,-0.505 -0.144,-1.076 -0.216,-1.507c-0.06,-0.361 -0.036,-0.969 -0.215,-1.077c-0.179,-0.108 -0.788,0.119 -0.861,0.431Z" style="fill:#eef4fa;"/></g><path id="Russia" d="M178.756,8.966c0.574,1.041 5.31,2.368 6.889,2.368c1.168,0 2.656,-1.328 2.584,-2.368c-0.072,-1.04 -2.01,-3.229 -3.015,-3.875c-0.845,-0.543 -2.153,-0.517 -3.014,0c-1.076,0.646 -4.018,2.835 -3.444,3.875Z" style="fill:#eef4fa;"/><g id="North-Atlantic" serif:id="North Atlantic"><path d="M122.348,8.966c0.538,0.431 2.296,-0.395 3.229,0c0.933,0.395 1.252,2.368 2.368,2.368c1.292,0 5.168,-1.328 5.383,-2.368c0.215,-1.04 -2.263,-3.445 -4.091,-3.875c-1.83,-0.431 -5.741,0.645 -6.889,1.291c-0.751,0.422 -0.538,2.153 0,2.584Z" style="fill:#eef4fa;"/><path d="M98.773,25.598c0.036,0.888 1.184,4.655 2.368,5.328c1.184,0.673 3.983,-0.403 4.736,-1.291c0.754,-0.888 0.61,-3.364 -0.215,-4.037c-0.825,-0.673 -3.588,0 -4.736,0c-0.718,0 -2.182,-0.717 -2.153,0Z" style="fill:#eef4fa;"/><path d="M109.43,37.601c-0.451,0.733 -0.323,2.117 0,2.583c0.323,0.466 1.363,0.394 1.937,0.215c0.574,-0.179 1.221,-1.578 1.508,-1.291c0.287,0.287 -0.18,2.655 0.215,3.014c0.395,0.359 1.476,-0.489 2.153,-0.861c0.718,-0.395 2.243,-0.636 2.153,-1.507c-0.108,-1.041 -2.046,-3.876 -2.799,-4.737c-0.39,-0.445 -1.193,-0.696 -1.722,-0.431c-0.861,0.431 -2.871,2.082 -3.445,3.015Z" style="fill:#eef4fa;"/><path id="Greenland" d="M68.093,11.98c0,0.969 3.732,0.359 5.167,0.861c1.278,0.447 2.484,1.199 3.445,2.153c0.969,0.963 1.912,2.254 2.368,3.623c0.502,1.507 0.215,3.871 0.646,5.42c0.387,1.391 1.219,2.727 1.937,3.875c0.677,1.084 1.472,2.512 2.369,3.014c0.877,0.491 2.189,0.574 3.014,0c0.825,-0.574 0.948,-2.575 1.938,-3.444c1.651,-1.448 6.136,-3.766 7.966,-5.243c1.222,-0.987 2.422,-2.167 3.014,-3.622c0.753,-1.853 1.005,-5.89 1.507,-7.498c0.261,-0.836 0.794,-1.644 1.507,-2.153c1.256,-0.897 5.526,-2.224 6.028,-3.229c0.502,-1.005 -1.736,-2.302 -3.014,-2.799c-1.938,-0.754 -5.702,-1.404 -8.612,-1.723c-2.942,-0.323 -6.039,-0.479 -9.042,-0.215c-3.265,0.287 -8.038,0.933 -10.55,1.938c-1.887,0.755 -3.035,2.703 -4.521,4.09c-1.615,1.507 -5.167,3.983 -5.167,4.952Z" style="fill:#eef4fa;"/></g><path id="Madagascar" d="M149.906,90.133c-0.897,0 -2.799,0.759 -3.23,1.938c-0.538,1.471 -0.61,5.777 0,6.889c0.588,1.072 2.908,0.748 3.66,-0.215c0.897,-1.148 1.795,-5.239 1.723,-6.674c-0.048,-0.964 -1.256,-1.938 -2.153,-1.938Z" style="fill:#eef4fa;"/><path id="Africa-Europe-Asia" serif:id="Africa Europe Asia" d="M115.028,55.255c-1.71,0.354 -3.782,-0.201 -5.168,0.861c-1.686,1.292 -4.054,4.235 -4.951,6.89c-0.897,2.655 -1.723,6.53 -0.431,9.042c1.292,2.512 5.526,5.418 8.181,6.028c2.633,0.605 6.136,-2.727 7.751,-2.368c1.601,0.356 1.237,3.039 1.938,4.521c0.933,1.974 3.373,4.952 3.66,7.32c0.287,2.368 -2.438,4.557 -1.938,6.89c0.646,3.014 4.019,9.186 5.813,11.195c1.116,1.25 3.427,1.555 4.952,0.862c1.579,-0.718 3.516,-3.122 4.521,-5.167c1.005,-2.045 0.61,-5.275 1.507,-7.105c0.804,-1.641 3.338,-2.154 3.876,-3.876c0.538,-1.722 -1.402,-4.432 -0.646,-6.459c0.789,-2.117 4.126,-4.269 5.382,-6.243c1.073,-1.687 2.583,-4.665 2.153,-5.598c-0.43,-0.933 -3.331,0.719 -4.736,0c-1.543,-0.789 -3.409,-2.87 -4.522,-4.736c-1.113,-1.866 -1.902,-5.06 -2.153,-6.459c-0.12,-0.67 0.179,-2.189 0.646,-1.938c0.466,0.251 1.439,2.294 2.153,3.445c1.112,1.794 2.404,6.495 4.521,7.32c2.117,0.825 6.89,-1.327 8.182,-2.368c1.012,-0.816 0.179,-3.158 -0.431,-3.876c-0.61,-0.718 -2.547,0.18 -3.229,-0.43c-0.682,-0.61 -1.113,-2.656 -0.862,-3.23c0.251,-0.574 1.594,-0.381 2.369,-0.215c1.507,0.323 4.736,0.861 6.674,2.153c1.938,1.292 3.51,3.566 4.952,5.598c1.579,2.225 3.337,7.75 4.521,7.75c1.184,0 1.041,-5.92 2.584,-7.75c1.543,-1.83 4.701,-3.589 6.674,-3.23c1.974,0.359 4.27,3.768 5.167,5.383c0.698,1.256 -0.369,2.992 0.215,4.305c0.718,1.615 3.122,4.809 4.091,5.383c0.743,0.441 1.932,-1.1 1.722,-1.938c-0.215,-0.861 -2.548,-2.368 -3.014,-3.229c-0.31,-0.571 -0.387,-1.692 0.215,-1.938c0.79,-0.323 4.091,0.789 4.522,0c0.431,-0.789 -1.866,-3.408 -1.938,-4.736c-0.064,-1.186 0.423,-2.745 1.507,-3.23c1.363,-0.61 4.988,0.574 6.674,-0.431c1.686,-1.005 3.194,-3.659 3.445,-5.597c0.251,-1.938 -2.01,-4.701 -1.938,-6.029c0.055,-1.019 1.508,-2.403 2.369,-1.937c0.861,0.467 2.116,4.27 2.798,4.736c0.64,0.438 1.066,-1.195 1.292,-1.937c0.251,-0.825 -0.356,-2.186 0.216,-3.015c0.718,-1.041 3.14,-1.775 4.09,-3.229c1.148,-1.758 2.656,-5.849 2.799,-7.32c0.079,-0.814 -2.136,-0.713 -1.938,-1.507c0.251,-1.005 1.73,-3.716 3.445,-4.521c1.758,-0.825 5.275,-0.036 7.105,-0.431c1.412,-0.305 2.798,-1.723 3.875,-1.938c0.871,-0.174 2.719,-0.232 2.584,0.646c-0.143,0.933 -3.122,3.588 -3.445,4.952c-0.274,1.156 0.789,3.087 1.507,3.23c0.718,0.144 2.297,-1.4 2.799,-2.369c0.502,-0.969 -0.359,-2.656 0.215,-3.445c0.574,-0.789 2.078,-1.156 3.23,-1.291c1.22,-0.143 2.786,0.853 4.09,0.43c1.328,-0.431 3.41,-1.973 3.876,-3.014c0.464,-1.035 -1.579,-2.332 -1.077,-3.229c0.502,-0.897 4.701,-0.933 4.091,-2.153c-0.61,-1.22 -5.132,-4.7 -7.751,-5.167c-2.619,-0.466 -6.459,2.368 -7.966,2.368c-0.867,0 -0.272,-2.044 -1.076,-2.368c-2.225,-0.897 -8.899,-3.015 -12.272,-3.015c-2.839,0 -5.777,3.194 -7.966,3.015c-2.189,-0.179 -3.516,-3.409 -5.167,-4.091c-1.459,-0.603 -3.228,0.466 -4.737,0c-1.974,-0.61 -4.441,-3.635 -7.105,-3.66c-3.839,-0.036 -12.703,2.153 -15.932,3.445c-1.706,0.683 -1.973,3.876 -3.444,4.306c-1.471,0.431 -3.84,-2.153 -5.383,-1.723c-1.543,0.431 -2.124,3.491 -3.875,4.306c-2.081,0.969 -5.829,0.643 -8.612,1.507c-3.122,0.969 -8.038,4.055 -10.119,4.306c-1.213,0.146 -2.44,-2.297 -2.368,-2.799c0.072,-0.502 2.046,0.072 2.799,-0.215c0.713,-0.272 2.323,-1.037 1.722,-1.507c-1.148,-0.897 -5.957,-3.911 -8.612,-3.875c-2.655,0.036 -5.066,2.437 -7.32,4.09c-2.691,1.974 -7.822,5.957 -8.827,7.751c-0.67,1.196 1.938,2.619 2.799,3.014c0.744,0.341 1.794,-0.861 2.368,-0.646c0.574,0.215 0.394,1.687 1.076,1.938c0.682,0.251 2.468,0.424 3.015,-0.431c0.574,-0.897 -0.216,-3.66 0.43,-4.952c0.646,-1.292 2.584,-2.511 3.445,-2.798c0.642,-0.214 1.973,0.502 1.722,1.076c-0.251,0.574 -3.121,1.471 -3.229,2.368c-0.108,0.897 2.44,1.902 2.583,3.014c0.143,1.113 -0.494,3.105 -1.722,3.661c-1.902,0.861 -6.781,0.502 -9.688,1.507c-2.827,0.977 -6.674,3.409 -7.751,4.521c-0.582,0.601 1.113,1.471 1.292,2.153c0.165,0.629 0.378,1.674 -0.216,1.938c-0.969,0.431 -4.987,-0.18 -5.597,0.645c-0.61,0.825 0.932,3.696 1.937,4.306c1.005,0.61 2.937,0.112 4.091,-0.646c1.256,-0.825 2.404,-3.659 3.445,-4.305c0.802,-0.498 1.955,0.008 2.799,0.43c1.148,0.574 3.013,2.835 4.09,3.014c1.006,0.168 2.548,-1.148 2.369,-1.937c-0.179,-0.789 -3.122,-2.045 -3.445,-2.799c-0.301,-0.701 0.83,-2.076 1.507,-1.723c0.825,0.431 2.727,2.978 3.445,4.306c0.596,1.103 0.394,3.05 0.861,3.66c0.392,0.513 1.615,0.431 1.938,0c0.323,-0.43 -0.359,-2.368 0,-2.583c0.359,-0.215 1.614,0.754 2.152,1.292c0.522,0.522 0.366,1.738 1.077,1.937c0.897,0.251 3.588,-0.932 4.306,-0.43c0.718,0.502 0.538,2.547 0,3.444c-0.538,0.897 -1.975,1.909 -3.23,1.938c-1.579,0.036 -4.736,-1.686 -6.243,-1.722c-1.059,-0.025 -1.796,1.849 -2.799,1.507c-1.471,-0.502 -3.803,-4.054 -6.028,-4.521c-2.225,-0.466 -5.239,1.292 -7.32,1.722Z" style="fill:#eef4fa;"/><g id="New-Zealand" serif:id="New Zealand"><path d="M235.587,111.002c-1.148,0.385 -3.932,2.291 -4.514,3.088c-0.389,0.533 0.469,1.419 1.023,1.696c0.554,0.277 1.669,0.4 2.303,-0.033c0.978,-0.667 3.365,-3.179 3.563,-3.971c0.198,-0.792 -1.585,-1.045 -2.375,-0.78Z" style="fill:#eef4fa;"/><path d="M236.312,107.127c-0.287,-0.431 0.574,0.861 0.574,0.861l0,1.722l1.507,1.292l1.507,-2.153l-1.722,-2.153l-1.938,0" style="fill:#eef4fa;"/></g><path id="Australia-" serif:id="Australia " d="M194.472,97.023c0.072,1.992 2.117,8.468 4.306,9.473c2.189,1.005 6.566,-3.445 8.827,-3.445c1.952,0 3.553,2.369 4.737,3.445c0.945,0.859 1.146,2.641 2.368,3.014c1.292,0.395 4.176,0.699 5.383,-0.646c1.579,-1.758 4.449,-7.518 4.09,-9.904c-0.359,-2.386 -4.844,-2.942 -6.243,-4.413c-1.128,-1.186 -1.435,-3.678 -2.153,-4.414c-0.501,-0.514 -1.838,-0.645 -2.153,0c-0.359,0.736 0.574,4.414 0,4.414c-0.574,0 -2.333,-3.355 -3.445,-4.414c-0.91,-0.866 -2.548,-1.938 -3.23,-1.938c-0.682,0 -0.216,1.648 -0.861,1.938c-0.718,0.323 -2.543,-0.711 -3.444,0c-0.933,0.736 -1.435,3.678 -2.153,4.414c-0.501,0.514 -1.489,-0.273 -2.153,0c-1.005,0.413 -3.931,0.944 -3.876,2.476Z" style="fill:#eef4fa;"/><path id="Americas" d="M0.92,24.683c-0.677,1.253 3.229,1.651 3.229,2.799c0,1.148 -3.875,2.798 -3.229,4.09c0.646,1.292 4.952,3.552 7.105,3.66c2.153,0.108 3.642,-2.794 5.813,-3.014c2.476,-0.251 6.547,-0.256 9.042,1.507c2.691,1.902 5.921,6.962 7.105,9.904c0.965,2.397 -1.237,5.483 0,7.751c2.153,3.947 8.863,12.523 12.918,15.932c3.132,2.633 9.258,3.265 11.411,4.521c0.97,0.566 0.589,2.366 1.507,3.014c1.22,0.861 5.131,0.825 5.813,2.153c0.682,1.328 -1.912,3.801 -1.723,5.813c0.215,2.297 1.759,6.172 3.015,7.966c1.016,1.452 4.267,1.045 4.521,2.799c0.395,2.727 -1.855,8.996 -2.153,13.564c-0.323,4.952 -0.718,13.24 0.215,16.147c0.564,1.757 4.809,2.01 5.383,1.292c0.574,-0.718 -2.153,-3.635 -1.938,-5.598c0.251,-2.297 1.628,-5.845 3.445,-8.181c2.261,-2.907 8.432,-7.177 10.119,-9.258c0.678,-0.837 -0.734,-2.442 0,-3.23c0.969,-1.041 4.521,-1.579 5.813,-3.014c1.292,-1.435 1.076,-4.127 1.937,-5.598c0.769,-1.314 2.979,-2.009 3.23,-3.229c0.251,-1.22 -0.481,-3.287 -1.723,-4.091c-1.83,-1.184 -7.176,-1.938 -9.257,-3.014c-1.398,-0.723 -1.849,-2.69 -3.23,-3.445c-2.297,-1.256 -7.607,-3.66 -10.549,-4.09c-2.396,-0.35 -5.454,1.435 -7.105,1.507c-0.999,0.043 -2.189,-0.359 -2.799,-1.077c-0.61,-0.718 -0.251,-2.404 -0.861,-3.229c-0.61,-0.825 -1.824,-1.222 -2.799,-1.722c-1.4,-0.718 -4.737,-1.292 -5.598,-2.584c-0.861,-1.292 -0.681,-4.27 0.431,-5.167c1.112,-0.897 4.772,-0.538 6.243,-0.215c1.095,0.24 1.794,1.364 2.584,2.153c0.789,0.789 1.22,2.224 2.153,2.583c0.933,0.359 3.337,0.61 3.445,-0.431c0.108,-1.041 -2.943,-4.45 -2.799,-5.813c0.143,-1.364 3.05,-1.112 3.66,-2.368c0.61,-1.256 -1.321,-4.061 0,-5.167c1.543,-1.292 7.966,-1.291 9.258,-2.583c1.269,-1.269 -2.44,-3.984 -1.507,-5.168c0.933,-1.184 7.283,-0.215 7.104,-1.937c-0.18,-1.722 -6.208,-7.249 -8.181,-8.397c-1.14,-0.664 -2.35,1.667 -3.66,1.507c-1.471,-0.179 -4.091,-2.511 -5.167,-2.583c-0.835,-0.056 -1.194,1.322 -1.292,2.153c-0.144,1.22 1.615,4.772 0.431,5.167c-1.184,0.395 -5.85,-1.758 -7.536,-2.799c-1.221,-0.754 -2.691,-2.225 -2.583,-3.445c0.108,-1.22 2.045,-3.265 3.229,-3.875c1.15,-0.593 3.445,0.897 3.876,0.215c0.431,-0.682 -0.17,-3.312 -1.292,-4.306c-1.256,-1.112 -4.019,-2.427 -6.244,-2.368c-2.691,0.072 -7.069,2.404 -9.904,2.799c-2.35,0.327 -5.274,0.143 -7.104,-0.431c-1.562,-0.49 -2.313,-2.528 -3.876,-3.014c-1.615,-0.502 -4.127,-0.251 -5.813,0c-1.504,0.224 -2.793,1.664 -4.306,1.507c-2.763,-0.287 -8.971,-3.552 -12.272,-3.229c-3.031,0.297 -6.817,3.839 -7.535,5.167Z" style="fill:#eef4fa;"/><g id="Canada"><path d="M29.985,14.994c-0.933,0.574 -1.83,3.23 -1.076,3.876c0.754,0.646 4.162,-0.43 5.597,0c1.268,0.38 1.714,2.34 3.015,2.583c2.117,0.395 8.899,0.574 9.688,-0.215c0.789,-0.789 -3.301,-3.911 -4.952,-4.521c-1.572,-0.581 -3.66,1.076 -4.952,0.861c-1.161,-0.194 -1.689,-1.761 -2.799,-2.153c-1.22,-0.431 -3.588,-1.005 -4.521,-0.431Z" style="fill:#eef4fa;"/><path d="M73.26,2.153c-0.287,-0.933 -7.345,-0.649 -10.98,-0.215c-3.911,0.467 -10.694,2.045 -12.488,3.014c-0.964,0.521 1.723,2.225 1.723,2.799c0,0.574 -1.11,0.678 -1.723,0.646c-0.688,-0.036 -1.557,-0.93 -2.406,-0.862c-0.897,0.072 -1.985,0.86 -2.976,1.292c-1.07,0.466 -2.193,1.441 -3.445,1.507c-1.364,0.072 -3.337,-1.148 -4.736,-1.076c-1.318,0.068 -2.87,1.005 -3.66,1.507c-0.521,0.331 -1.611,1.198 -1.077,1.507c0.93,0.538 4.368,1.586 6.655,1.722c4.844,0.287 18.101,1.076 22.41,0c2.367,-0.591 1.66,-4.795 3.445,-6.459c2.117,-1.973 9.545,-4.449 9.258,-5.382Z" style="fill:#eef4fa;"/><path d="M62.495,26.405c0.179,1.448 2.655,3.768 3.875,4.521c0.977,0.603 2.499,0.65 3.445,0c1.148,-0.789 3.732,-3.288 3.445,-4.736c-0.287,-1.448 -3.539,-2.519 -5.167,-3.951c-1.938,-1.704 -4.378,-5.23 -6.459,-6.276c-1.795,-0.902 -4.485,-0.442 -6.028,0c-1.34,0.384 -3.302,1.608 -3.23,2.654c0.072,1.046 2.007,3.159 3.66,3.622c2.153,0.604 8.182,-0.694 9.258,0c1.076,0.694 -2.978,2.718 -2.799,4.166Z" style="fill:#eef4fa;"/></g></g></svg>