<svg viewBox="0 0 1017 525" xmlns="http://www.w3.org/2000/svg" fill-rule="evenodd" clip-rule="evenodd" stroke-linejoin="round" stroke-miterlimit="2"><g fill-rule="nonzero"><path d="M244.819 219.745a4.286 4.286 0 014.283 4.288c0 2.366-4.283 10.712-4.283 10.712s-4.288-8.346-4.288-10.712a4.29 4.29 0 014.288-4.288" fill="#649ace" stroke="#5a8bba" stroke-width=".83"/><path d="M246.602 224.033c0 .987-.8 1.783-1.783 1.783a1.784 1.784 0 01-1.788-1.783 1.786 1.786 0 113.571 0" fill="#4b657e"/><path d="M242.025 212.245a4.285 4.285 0 014.283 4.288c0 2.366-4.283 10.712-4.283 10.712s-4.287-8.346-4.287-10.712a4.289 4.289 0 014.287-4.288" fill="#649ace" stroke="#5a8bba" stroke-width=".83"/><path d="M243.808 216.533c0 .987-.8 1.783-1.783 1.783a1.784 1.784 0 01-1.787-1.783c0-.988.8-1.788 1.787-1.788.983 0 1.783.8 1.783 1.788" fill="#4b657e"/><path d="M986.738 430.875a4.286 4.286 0 014.283 4.288c0 2.366-4.284 10.712-4.284 10.712s-4.287-8.346-4.287-10.712a4.29 4.29 0 014.288-4.288" fill="#649ace" stroke="#5a8bba" stroke-width=".83"/><path d="M988.521 435.163c0 .987-.8 1.783-1.784 1.783a1.784 1.784 0 01-1.787-1.784 1.786 1.786 0 113.571 0" fill="#4b657e"/><path d="M497.621 296.708a4.285 4.285 0 014.283 4.288c0 2.366-4.283 10.712-4.283 10.712s-4.288-8.346-4.288-10.712a4.29 4.29 0 014.288-4.288" fill="#649ace" stroke="#5a8bba" stroke-width=".83"/><path d="M499.404 300.996c0 .987-.8 1.783-1.783 1.783a1.784 1.784 0 01-1.788-1.783 1.786 1.786 0 113.571 0" fill="#4b657e"/><path d="M549.621 171.708a4.285 4.285 0 014.283 4.288c0 2.367-4.283 10.712-4.283 10.712s-4.288-8.345-4.288-10.712a4.29 4.29 0 014.288-4.288" fill="#649ace" stroke="#5a8bba" stroke-width=".83"/><path d="M551.404 175.996c0 .987-.8 1.783-1.783 1.783a1.784 1.784 0 01-1.788-1.783 1.786 1.786 0 113.571 0" fill="#4b657e"/><path d="M481.621 145.708a4.286 4.286 0 014.283 4.288c0 2.366-4.283 10.712-4.283 10.712s-4.288-8.346-4.288-10.712a4.29 4.29 0 014.288-4.288" fill="#649ace" stroke="#5a8bba" stroke-width=".83"/><path d="M483.404 149.996c0 .987-.8 1.783-1.783 1.783a1.784 1.784 0 01-1.788-1.783 1.786 1.786 0 113.571 0" fill="#4b657e"/><path d="M208.803 224.677a4.285 4.285 0 014.283 4.287c0 2.367-4.283 10.713-4.283 10.713s-4.288-8.346-4.288-10.713a4.29 4.29 0 014.288-4.287" fill="#649ace" stroke="#5a8bba" stroke-width=".83"/><path d="M210.586 228.964c0 .988-.8 1.784-1.783 1.784a1.784 1.784 0 01-1.788-1.784 1.786 1.786 0 113.571 0" fill="#4b657e"/><path d="M170.954 220.833a4.285 4.285 0 014.283 4.288c0 2.366-4.283 10.712-4.283 10.712s-4.287-8.346-4.287-10.712a4.29 4.29 0 014.287-4.288" fill="#649ace" stroke="#5a8bba" stroke-width=".83"/><path d="M172.737 225.121c0 .987-.8 1.783-1.783 1.783a1.784 1.784 0 01-1.787-1.783c0-.988.8-1.788 1.787-1.788.983 0 1.783.8 1.783 1.788" fill="#4b657e"/><path d="M464.954 201.875a4.286 4.286 0 014.284 4.288c0 2.366-4.284 10.712-4.284 10.712s-4.287-8.346-4.287-10.712a4.29 4.29 0 014.287-4.288" fill="#649ace" stroke="#5a8bba" stroke-width=".83"/><path d="M466.738 206.163c0 .987-.8 1.783-1.784 1.783a1.784 1.784 0 01-1.787-1.783 1.786 1.786 0 113.571 0" fill="#4b657e"/><path d="M289.954 186.875a4.286 4.286 0 014.284 4.288c0 2.366-4.284 10.712-4.284 10.712s-4.287-8.346-4.287-10.712a4.29 4.29 0 014.287-4.288" fill="#649ace" stroke="#5a8bba" stroke-width=".83"/><path d="M291.738 191.163c0 .987-.8 1.783-1.784 1.783a1.784 1.784 0 01-1.787-1.784 1.786 1.786 0 113.571 0" fill="#4b657e"/><path d="M256.621 232.708a4.285 4.285 0 014.283 4.288c0 2.367-4.283 10.712-4.283 10.712s-4.288-8.345-4.288-10.712a4.29 4.29 0 014.288-4.288" fill="#649ace" stroke="#5a8bba" stroke-width=".83"/><path d="M258.404 236.996c0 .987-.8 1.783-1.783 1.783a1.784 1.784 0 01-1.788-1.783 1.786 1.786 0 113.571 0" fill="#4b657e"/><path d="M233.454 198.208a4.286 4.286 0 014.284 4.288c0 2.367-4.284 10.712-4.284 10.712s-4.287-8.345-4.287-10.712a4.29 4.29 0 014.287-4.288" fill="#649ace" stroke="#5a8bba" stroke-width=".83"/><path d="M235.238 202.496c0 .987-.8 1.783-1.784 1.783a1.784 1.784 0 01-1.787-1.783 1.786 1.786 0 113.571 0" fill="#4b657e"/><path d="M233.454 183.333a4.286 4.286 0 014.284 4.288c0 2.367-4.284 10.712-4.284 10.712s-4.287-8.345-4.287-10.712a4.29 4.29 0 014.287-4.288" fill="#649ace" stroke="#5a8bba" stroke-width=".83"/><path d="M235.238 187.621c0 .987-.8 1.783-1.784 1.783a1.784 1.784 0 01-1.787-1.783 1.786 1.786 0 113.571 0" fill="#4b657e"/><g><path d="M141.046 201.208a4.289 4.289 0 014.287 4.288c0 2.367-4.287 10.712-4.287 10.712s-4.284-8.345-4.284-10.712a4.286 4.286 0 014.284-4.288" fill="#649ace" stroke="#5a8bba" stroke-width=".83"/><path d="M142.833 205.496c0 .987-.8 1.783-1.787 1.783a1.786 1.786 0 111.787-1.783" fill="#4b657e"/></g><g><path d="M216.046 190.708a4.29 4.29 0 014.287 4.288c0 2.367-4.287 10.712-4.287 10.712s-4.284-8.345-4.284-10.712a4.286 4.286 0 014.284-4.288" fill="#649ace" stroke="#5a8bba" stroke-width=".83"/><path d="M217.833 194.996c0 .987-.8 1.783-1.787 1.783a1.786 1.786 0 111.787-1.783" fill="#4b657e"/></g><g><path d="M206.046 197.708a4.29 4.29 0 014.287 4.288c0 2.367-4.287 10.712-4.287 10.712s-4.283-8.345-4.283-10.712a4.285 4.285 0 014.283-4.288" fill="#649ace" stroke="#5a8bba" stroke-width=".83"/><path d="M207.833 201.996c0 .987-.8 1.783-1.787 1.783a1.786 1.786 0 111.787-1.783" fill="#4b657e"/></g><g><path d="M203.046 195.708a4.289 4.289 0 014.287 4.288c0 2.366-4.287 10.712-4.287 10.712s-4.283-8.346-4.283-10.712a4.285 4.285 0 014.283-4.288" fill="#649ace" stroke="#5a8bba" stroke-width=".83"/><path d="M204.833 199.996c0 .987-.8 1.783-1.787 1.783a1.786 1.786 0 111.787-1.783" fill="#4b657e"/></g><g><path d="M183.046 188.708a4.29 4.29 0 014.287 4.288c0 2.367-4.287 10.712-4.287 10.712s-4.284-8.345-4.284-10.712a4.286 4.286 0 014.284-4.288" fill="#649ace" stroke="#5a8bba" stroke-width=".83"/><path d="M184.833 192.996c0 .987-.8 1.783-1.787 1.783a1.786 1.786 0 111.787-1.783" fill="#4b657e"/></g><g><path d="M256.746 187.5a4.29 4.29 0 014.287 4.287c0 2.367-4.287 10.713-4.287 10.713s-4.288-8.346-4.288-10.713a4.29 4.29 0 014.288-4.287" fill="#649ace" stroke="#5a8bba" stroke-width=".83"/><path d="M258.533 191.788c0 .987-.8 1.783-1.787 1.783a1.784 1.784 0 01-1.788-1.783 1.787 1.787 0 113.575 0" fill="#4b657e"/></g><g><path d="M248.171 181.708a4.289 4.289 0 014.287 4.288c0 2.366-4.287 10.712-4.287 10.712s-4.288-8.346-4.288-10.712a4.29 4.29 0 014.288-4.288" fill="#649ace" stroke="#5a8bba" stroke-width=".83"/><path d="M249.958 185.996c0 .987-.8 1.783-1.787 1.783a1.784 1.784 0 01-1.788-1.783 1.787 1.787 0 113.575 0" fill="#4b657e"/></g><g><path d="M243.333 181.708a4.29 4.29 0 014.288 4.288c0 2.366-4.288 10.712-4.288 10.712s-4.287-8.346-4.287-10.712a4.29 4.29 0 014.287-4.288" fill="#649ace" stroke="#5a8bba" stroke-width=".83"/><path d="M245.121 185.996c0 .987-.8 1.783-1.788 1.783a1.784 1.784 0 01-1.787-1.783 1.787 1.787 0 113.575 0" fill="#4b657e"/></g><g><path d="M230.333 179.708a4.29 4.29 0 014.288 4.288c0 2.367-4.288 10.712-4.288 10.712s-4.287-8.345-4.287-10.712a4.29 4.29 0 014.287-4.288" fill="#649ace" stroke="#5a8bba" stroke-width=".83"/><path d="M232.121 183.996c0 .987-.8 1.783-1.788 1.783a1.784 1.784 0 01-1.787-1.783 1.787 1.787 0 113.575 0" fill="#4b657e"/></g><g><path d="M218.046 174.208a4.289 4.289 0 014.287 4.288c0 2.367-4.287 10.712-4.287 10.712s-4.284-8.345-4.284-10.712a4.286 4.286 0 014.284-4.288" fill="#649ace" stroke="#5a8bba" stroke-width=".83"/><path d="M219.833 178.496c0 .987-.8 1.783-1.787 1.783a1.786 1.786 0 111.787-1.783" fill="#4b657e"/></g><g><path d="M154.283 179.167a4.29 4.29 0 014.288 4.287c0 2.367-4.288 10.713-4.288 10.713S150 185.821 150 183.454a4.285 4.285 0 014.283-4.287" fill="#649ace" stroke="#5a8bba" stroke-width=".83"/><path d="M156.071 183.454c0 .988-.8 1.784-1.788 1.784a1.786 1.786 0 111.788-1.784" fill="#4b657e"/></g><g><path d="M128.158 173.408a4.288 4.288 0 014.287 4.287c0 2.367-4.287 10.713-4.287 10.713s-4.284-8.346-4.284-10.713a4.285 4.285 0 014.284-4.287" fill="#649ace" stroke="#5a8bba" stroke-width=".83"/><path d="M129.945 177.695c0 .988-.8 1.783-1.787 1.783a1.782 1.782 0 01-1.784-1.783 1.786 1.786 0 113.571 0" fill="#4b657e"/></g><g><path d="M132.443 158.408a4.289 4.289 0 014.288 4.287c0 2.367-4.288 10.713-4.288 10.713s-4.283-8.346-4.283-10.713a4.284 4.284 0 014.283-4.287" fill="#649ace" stroke="#5a8bba" stroke-width=".83"/><path d="M134.231 162.695c0 .988-.8 1.783-1.788 1.783a1.786 1.786 0 111.788-1.783" fill="#4b657e"/></g></g></svg>