<?xml version="1.0" encoding="UTF-8" standalone="no"?><!DOCTYPE svg PUBLIC "-//W3C//DTD SVG 1.1//EN" "http://www.w3.org/Graphics/SVG/1.1/DTD/svg11.dtd"><svg width="100%" height="100%" viewBox="0 0 140 72" version="1.1" xmlns="http://www.w3.org/2000/svg" xmlns:xlink="http://www.w3.org/1999/xlink" xml:space="preserve" xmlns:serif="http://www.serif.com/" style="fill-rule:evenodd;clip-rule:evenodd;stroke-linecap:round;stroke-linejoin:round;stroke-miterlimit:1.5;"><g id="Pangaea" opacity="0.09"><g id="South-East-Asia---Australia" serif:id="South East Asia / Australia"><path d="M103.628,43.848l3.829,3.828l0.494,-0.493l0.617,-0.371l-1.111,-1.112l-2.717,-2.223l-1.112,0.371Z" style="fill:#fff;stroke:#e1ebf2;stroke-width:0.17px;"/><path d="M108.198,48.664l0.37,-0.988l1.112,0.247l2.471,0.741l0.123,0.742l-1.359,-0.248l-2.717,-0.494Z" style="fill:#fff;stroke:#e1ebf2;stroke-width:0.17px;"/><path d="M109.804,45.577l1.235,1.482l1.605,0l0.742,-2.1l-0.618,-1.482l-0.494,0l-1.235,1.482l-1.235,0.618Z" style="fill:#fff;stroke:#e1ebf2;stroke-width:0.17px;"/><path d="M115.362,44.094l-1.112,0.371l-0.864,3.458l0.864,-0.247l0.371,-0.617l0.37,0.617l0.742,0l-0.618,-1.359l0.37,-0.74l-0.741,0l-0.37,0.246l0.247,-0.987l0.864,-0.248l-0.123,-0.494Z" style="fill:#fff;stroke:#e1ebf2;stroke-width:0.17px;"/><path d="M113.386,38.289l0.37,1.112l0.803,0.247l0.309,-1.606l-1.482,0.247Z" style="fill:#fff;stroke:#e1ebf2;stroke-width:0.17px;"/><path d="M114.868,42.365l0.494,0.618l0.371,0.741l0.988,-0.247l0.123,-1.359l-0.741,-0.494l-1.235,0.741Z" style="fill:#fff;stroke:#e1ebf2;stroke-width:0.17px;"/><path d="M117.832,45.823l0.124,0.494l0.741,0.124l0.247,0.618l1.729,0.617l0.247,0.865l0.494,0.617l1.358,0.248l0.989,-0.371l0.864,0l0.124,0.617l1.235,0.248l0.494,-0.248l-1.111,-0.74l-0.742,-0.618l-0.247,-0.618l-0.864,-0.617l-1.112,-0.618l-1.605,-0.432l-0.371,0.679l-0.618,0l-0.37,-0.494l0.123,-0.494l-1.235,-0.247l-0.494,0.37Z" style="fill:#fff;stroke:#e1ebf2;stroke-width:0.17px;"/></g><g id="Asian-Islands" serif:id="Asian Islands"><path d="M117.832,31.619l0.494,0.742l1.729,-0.494l1.73,-0.494l0.37,-0.618l0.247,-1.235l0.124,-0.988l-0.989,-0.124l-0.617,0.865l-0.617,1.111l-1.853,0.618l-0.618,0.617Z" style="fill:#fff;stroke:#e1ebf2;stroke-width:0.17px;"/><path d="M121.785,27.667l0.741,0.124l0.617,-0.494c0,0 0.585,-0.338 0.371,-0.371c-0.214,-0.034 -0.988,-0.123 -0.988,-0.123l-0.618,0.37l-0.123,0.494Z" style="fill:#fff;stroke:#e1ebf2;stroke-width:0.17px;"/><path d="M122.526,22.356l0.147,1.235l0,2.1l0.594,0.123l0.123,-0.741l-0.123,-1.482l-0.124,-0.864l-0.123,-0.618l-0.494,0.247Z" style="fill:#fff;stroke:#e1ebf2;stroke-width:0.17px;"/></g><path id="Russia" d="M102.023,4.57l3.952,1.359l1.482,-1.359l-1.729,-2.223l-1.73,0l-1.975,2.223Z" style="fill:#fff;stroke:#e1ebf2;stroke-width:0.17px;"/><g id="North-Atlantic" serif:id="North Atlantic"><path d="M69.662,4.57l1.852,0l1.359,1.359l3.088,-1.359l-2.347,-2.223l-3.952,0.741l0,1.482Z" style="fill:#fff;stroke:#e1ebf2;stroke-width:0.17px;"/><path d="M56.137,14.112l1.359,3.056l2.717,-0.74l-0.124,-2.316l-2.717,0l-1.235,0Z" style="fill:#fff;stroke:#e1ebf2;stroke-width:0.17px;"/><path d="M62.251,20.998l0,1.481l1.111,0.124l0.865,-0.741l0.124,1.729l1.235,-0.494l1.235,-0.864l-1.606,-2.718l-0.988,-0.247l-1.976,1.73Z" style="fill:#fff;stroke:#e1ebf2;stroke-width:0.17px;"/><path id="Greenland" d="M38.536,6.299l2.965,0.494l1.976,1.235l1.359,2.079l0.37,3.109l1.111,2.223l1.359,1.729l1.73,0l1.111,-1.976l4.57,-3.007l1.729,-2.078l0.865,-4.302l0.865,-1.235l3.458,-1.852l-1.729,-1.606l-4.941,-0.989l-5.187,-0.123l-6.053,1.112l-2.593,2.346l-2.965,2.841Z" style="fill:#fff;stroke:#e1ebf2;stroke-width:0.17px;"/></g><path id="Madagascar" d="M85.472,51.135l-1.853,1.111l0,3.953l2.099,-0.124l0.989,-3.829l-1.235,-1.111Z" style="fill:#fff;stroke:#e1ebf2;stroke-width:0.17px;"/><path id="Africa-Europe-Asia" serif:id="Africa Europe Asia" d="M65.463,31.126l-2.965,0.493l-2.841,3.953l-0.247,5.187l4.693,3.459l4.447,-1.359l1.112,2.594l2.1,4.199l-1.112,3.953l3.335,6.422l2.841,0.495l2.593,-2.964l0.865,-4.076l2.223,-2.224l-0.37,-3.705l3.087,-3.582l1.236,-3.212l-2.717,0l-2.595,-2.717l-1.235,-3.705l0.371,-1.112l1.235,1.977l2.594,4.199l4.694,-1.359l-0.248,-2.223l-1.852,-0.247l-0.495,-1.853l1.359,-0.123l3.829,1.235l2.841,3.211l2.594,4.447l1.482,-4.447l3.829,-1.853l2.964,3.089l0.124,2.469l2.347,3.089l0.987,-1.112l-1.729,-1.853l0.124,-1.112l2.594,0l-1.112,-2.717l0.865,-1.853l3.828,-0.247l1.977,-3.211l-1.112,-3.458l1.359,-1.112l1.605,2.717l0.741,-1.111l0.124,-1.73l2.347,-1.852l1.606,-4.2l-1.112,-0.864l1.976,-2.594l4.076,-0.247l2.223,-1.112l1.483,0.371l-1.977,2.841l0.865,1.853l1.606,-1.359l0.123,-1.977l1.853,-0.74l2.346,0.246l2.224,-1.729l-0.618,-1.852l2.347,-1.235l-4.447,-2.965l-4.57,1.359l-0.617,-1.359l-7.04,-1.729l-4.57,1.729l-2.965,-2.347l-2.717,0l-4.076,-2.099l-9.14,1.976l-1.976,2.47l-3.088,-0.988l-2.223,2.47l-4.941,0.865l-5.805,2.47l-1.358,-1.606l1.605,-0.123l0.988,-0.865l-4.94,-2.223l-4.2,2.347l-5.064,4.446l1.606,1.73l1.358,-0.371l0.618,1.112l1.729,-0.247l0.247,-2.841l1.976,-1.606l0.988,0.618l-1.852,1.358l1.482,1.729l-0.988,2.101l-5.558,0.864l-4.447,2.594l0.741,1.235l-0.123,1.112l-3.211,0.37l1.111,2.47l2.347,-0.37l1.976,-2.47l1.606,0.246l2.346,1.73l1.359,-1.112l-1.976,-1.605l0.865,-0.989l1.976,2.47l0.494,2.1l1.112,0l0,-1.482l1.234,0.741l0.618,1.112l2.47,-0.247l0,1.976l-1.853,1.112l-3.581,-0.988l-1.606,0.864l-3.458,-2.593l-4.199,0.988Z" style="fill:#fff;stroke:#e1ebf2;stroke-width:0.17px;"/><g id="New-Zealand" serif:id="New Zealand"><path d="M134.626,63.107l-2.59,1.772l0.587,0.973l1.321,-0.019l2.044,-2.279l-1.362,-0.447Z" style="fill:#fff;stroke:#e1ebf2;stroke-width:0.17px;"/><path d="M134.877,60.637l0.494,0.741l0,0.988l0.865,0.741l0.864,-1.235l-0.988,-1.235l-1.111,0" style="fill:#fff;stroke:#e1ebf2;stroke-width:0.17px;"/></g><path id="Australia-" serif:id="Australia " d="M111.039,55.087l2.47,5.435l5.064,-1.976l2.718,1.976l1.358,1.729l3.088,-0.371l2.347,-5.681l-3.582,-2.532l-1.235,-2.532l-1.235,0l0,2.532l-1.977,-2.532l-1.853,-1.112l-0.494,1.112l-1.975,0l-1.235,2.532l-1.236,0l-2.223,1.42Z" style="fill:#fff;stroke:#e1ebf2;stroke-width:0.17px;"/><path id="Americas" d="M0,13.587l1.852,1.605l-1.852,2.347l4.076,2.1l3.335,-1.73l5.187,0.865l4.076,5.682l0,4.446l7.411,9.14l6.547,2.594l0.864,1.729l3.335,1.235l-0.988,3.335l1.729,4.57l2.594,1.606l-1.235,7.782l0.123,9.263l3.088,0.741l-1.112,-3.211l1.977,-4.694l5.805,-5.311l0,-1.853l3.335,-1.729l1.111,-3.212l1.853,-1.852l-0.988,-2.347l-5.311,-1.729l-1.853,-1.976l-6.052,-2.347l-4.076,0.865l-1.606,-0.618l-0.494,-1.853l-1.605,-0.988l-3.212,-1.482l0.247,-2.964l3.582,-0.124l1.482,1.236l1.235,1.481l1.977,-0.247l-1.606,-3.335l2.1,-1.358l0,-2.964l5.311,-1.482l-0.865,-2.965l4.076,-1.111l-4.694,-4.818l-2.099,0.865l-2.964,-1.482l-0.742,1.235l0.248,2.965l-4.324,-1.606l-1.482,-1.977l1.853,-2.223l2.223,0.124l-0.741,-2.471l-3.582,-1.358l-5.682,1.606l-4.075,-0.248l-2.224,-1.729l-3.335,0l-2.47,0.865l-7.04,-1.853l-4.323,2.965Z" style="fill:#fff;stroke:#e1ebf2;stroke-width:0.17px;"/><g id="Canada"><path d="M16.674,8.028l-0.617,2.224l3.211,0l1.73,1.482c0,0 6.547,1.092 5.558,-0.124c-0.99,-1.215 -2.841,-2.593 -2.841,-2.593l-2.841,0.494l-1.606,-1.236l-2.594,-0.247Z" style="fill:#fff;stroke:#e1ebf2;stroke-width:0.17px;"/><path d="M41.501,1.235l-6.299,-0.123l-7.165,1.729l0.989,1.606l-0.989,0.37l-1.38,-0.494l-1.707,0.741l-1.977,0.865l-2.717,-0.618l-2.099,0.865l-0.618,0.864l3.818,0.988l12.856,0l1.976,-3.705l5.312,-3.088Z" style="fill:#fff;stroke:#e1ebf2;stroke-width:0.17px;"/><path d="M35.325,14.575l2.223,2.593l1.976,0l1.977,-2.717l-2.965,-2.266l-3.705,-3.601l-3.458,0l-1.853,1.523l2.099,2.078l5.312,0l-1.606,2.39Z" style="fill:#fff;stroke:#e1ebf2;stroke-width:0.17px;"/></g></g></svg>