<?xml version="1.0" encoding="UTF-8" standalone="no"?><!DOCTYPE svg PUBLIC "-//W3C//DTD SVG 1.1//EN" "http://www.w3.org/Graphics/SVG/1.1/DTD/svg11.dtd"><svg width="100%" height="100%" viewBox="0 0 432 63" version="1.1" xmlns="http://www.w3.org/2000/svg" xmlns:xlink="http://www.w3.org/1999/xlink" xml:space="preserve" xmlns:serif="http://www.serif.com/" style="fill-rule:evenodd;clip-rule:evenodd;stroke-linejoin:round;stroke-miterlimit:2;"><path id="back-hill" serif:id="back hill" d="M169.2,62.4l118.54,0c0,0 -8.132,-3.239 -27.482,-9.559c-10.047,-3.283 -23.051,-15.628 -34.531,-12.261c-6.508,1.909 -19.324,10.814 -27.678,14.245c-14.887,6.115 -28.849,7.575 -28.849,7.575Z" style="fill:#ecf2f6;"/><g id="front-hill" serif:id="front hill"><path id="front-hill1" serif:id="front hill" d="M169.2,62.4l229.68,0c0,0 -17.097,-0.23 -56.053,-16.588c-10.19,-4.279 -20.865,-15.268 -33.695,-12.377c-22.433,5.054 -48.374,15.927 -68.957,20.19c-41.739,8.645 -70.975,8.775 -70.975,8.775l0,0Z" style="fill:#f6f9fb;"/><path id="front-hill2" serif:id="front hill" d="M398.88,62.4c0,0 -17.097,-0.23 -56.053,-16.588c-10.19,-4.279 -23.28,-15.934 -35.354,-10.718c-9.928,4.288 -3.21,4.21 -22.893,12.025c-25.975,10.313 114.3,15.281 114.3,15.281Z" style="fill:#ecf2f6;"/></g></svg>