<?xml version="1.0" encoding="UTF-8" standalone="no"?><!DOCTYPE svg PUBLIC "-//W3C//DTD SVG 1.1//EN" "http://www.w3.org/Graphics/SVG/1.1/DTD/svg11.dtd"><svg width="100%" height="100%" viewBox="0 0 432 64" version="1.1" xmlns="http://www.w3.org/2000/svg" xmlns:xlink="http://www.w3.org/1999/xlink" xml:space="preserve" xmlns:serif="http://www.serif.com/" style="fill-rule:evenodd;clip-rule:evenodd;stroke-linecap:round;stroke-linejoin:round;stroke-miterlimit:1.5;"><g id="back-hill" serif:id="back hill"><path id="light" d="M261.76,62.88l-120.404,-0.48c0,0 7.485,-3.539 25.293,-10.446c9.247,-3.587 25.107,-12.629 35.673,-8.949c5.99,2.086 13.892,7.368 21.58,11.117c13.701,6.682 37.858,8.758 37.858,8.758Z" style="fill:#fafdff;stroke:#e1ebf2;stroke-width:0.5px;"/><path id="dark" d="M261.76,62.88l-46.63,-0.48c0,0 -40.524,-0.944 -22.716,-7.851c9.247,-3.587 -0.658,-15.224 9.908,-11.544c5.99,2.086 13.892,7.368 21.58,11.117c13.701,6.682 37.858,8.758 37.858,8.758Z" style="fill:#ebf2f7;stroke:#e1ebf2;stroke-width:0.5px;stroke-linecap:butt;stroke-miterlimit:2;"/></g><g id="front-hill" serif:id="front hill"><path id="light1" serif:id="light" d="M433.72,64.28l-381.761,0.52l-11.959,0.24l-42.567,-0.04l-1.611,-2.12l36.738,0c0,0 15.046,-0.511 18.416,-1.337c6.182,-1.514 18.297,-5.701 37.321,-17.27c7.689,-4.676 15.744,-16.684 25.425,-13.525c16.928,5.523 36.503,17.404 52.034,22.063c20.192,6.056 36.507,8.288 45.616,9.11c5.099,0.461 5.958,0.951 13.454,0.959c43.558,0.048 208.894,0 208.894,0l0,1.4Z" style="fill:#fafdff;stroke:#e1ebf2;stroke-width:0.5px;"/><path id="dark1" serif:id="dark" d="M49.36,62.16l-2.64,0c0,0 12.181,-0.011 41.577,-17.887c7.689,-4.676 17.566,-17.412 26.677,-11.713c7.492,4.687 2.422,4.601 17.275,13.141c19.6,11.27 -82.889,16.459 -82.889,16.459Z" style="fill:#ebf2f7;stroke:#e1ebf2;stroke-width:0.5px;stroke-linecap:butt;stroke-miterlimit:2;"/></g></svg>