<?xml version="1.0" encoding="UTF-8" standalone="no"?>
<!DOCTYPE svg PUBLIC "-//W3C//DTD SVG 1.1//EN" "http://www.w3.org/Graphics/SVG/1.1/DTD/svg11.dtd">
<svg width="100%" height="100%" viewBox="0 0 300 78" version="1.1" xmlns="http://www.w3.org/2000/svg" xmlns:xlink="http://www.w3.org/1999/xlink" xml:space="preserve" xmlns:serif="http://www.serif.com/" style="fill-rule:evenodd;clip-rule:evenodd;stroke-linejoin:round;stroke-miterlimit:1.41421;">
    <g id="SHD-logo" serif:id="SHD logo" transform="matrix(1.66831,0,0,1.66831,-644.213,-609.822)">
        <g transform="matrix(0.338839,0,0,0.338839,239.694,226.895)">
            <path d="M441.364,512.723C438.314,512.723 436.514,512.823 432.864,513.373L432.864,545.123C436.564,545.673 439.014,545.723 441.864,545.723C452.814,545.723 459.614,538.773 459.614,529.023C459.614,519.273 453.214,512.723 441.364,512.723ZM442.014,542.073C439.964,542.073 438.514,541.973 436.914,541.823L436.914,516.673C438.664,516.523 439.914,516.473 441.364,516.473C450.964,516.473 455.364,521.623 455.364,529.123C455.364,536.723 450.864,542.073 442.014,542.073Z" style="fill:white;fill-rule:nonzero;"/>
            <path d="M506.964,541.573L490.564,541.573L490.564,530.573L504.714,530.573C504.914,529.923 505.014,529.373 505.014,528.723C505.014,528.123 504.914,527.523 504.714,526.873L490.564,526.873L490.564,516.923L506.464,516.923C506.664,516.373 506.764,515.773 506.764,515.123C506.764,514.473 506.664,513.723 506.464,513.173L486.564,513.173L486.564,545.273L506.964,545.273C507.164,544.673 507.264,543.973 507.264,543.323C507.264,542.723 507.164,542.123 506.964,541.573Z" style="fill:white;fill-rule:nonzero;"/>
            <path d="M556.514,512.773C556.014,512.773 555.414,512.823 554.764,512.973C552.664,522.323 549.364,531.723 545.014,541.073C540.614,531.773 537.314,522.373 534.914,512.973C534.314,512.823 533.714,512.773 533.164,512.773C532.164,512.773 531.364,512.973 530.564,513.273C533.464,523.973 537.414,534.573 542.714,545.173C543.464,545.373 544.064,545.423 544.764,545.423C545.464,545.423 546.164,545.373 546.864,545.173C552.114,534.523 556.214,523.923 558.964,513.273C558.264,512.973 557.464,512.773 556.514,512.773Z" style="fill:white;fill-rule:nonzero;"/>
            <path d="M604.914,541.573L588.514,541.573L588.514,530.573L602.664,530.573C602.864,529.923 602.964,529.373 602.964,528.723C602.964,528.123 602.864,527.523 602.664,526.873L588.514,526.873L588.514,516.923L604.414,516.923C604.614,516.373 604.714,515.773 604.714,515.123C604.714,514.473 604.614,513.723 604.414,513.173L584.514,513.173L584.514,545.273L604.914,545.273C605.114,544.673 605.214,543.973 605.214,543.323C605.214,542.723 605.114,542.123 604.914,541.573Z" style="fill:white;fill-rule:nonzero;"/>
            <path d="M650.664,541.623L636.014,541.623L636.014,513.173C635.314,513.023 634.614,512.923 633.914,512.923C633.264,512.923 632.664,513.023 631.964,513.173L631.964,545.273L650.664,545.273C650.864,544.573 650.914,543.923 650.914,543.323C650.914,542.773 650.864,542.223 650.664,541.623Z" style="fill:white;fill-rule:nonzero;"/>
            <path d="M688.114,546.023C697.414,546.023 704.114,538.573 704.114,529.173C704.114,519.423 697.414,512.273 688.114,512.273C678.814,512.273 672.114,519.673 672.114,529.173C672.114,538.823 678.814,546.023 688.114,546.023ZM688.114,542.273C681.014,542.273 676.364,536.773 676.364,529.173C676.364,521.423 681.014,516.023 688.114,516.023C695.214,516.023 699.864,521.423 699.864,529.173C699.864,536.773 695.214,542.273 688.114,542.273Z" style="fill:white;fill-rule:nonzero;"/>
            <path d="M740.414,512.623C736.364,512.623 733.314,513.073 730.964,513.723L730.964,545.273C731.664,545.473 732.264,545.523 732.964,545.523C733.664,545.523 734.314,545.473 735.014,545.273L735.014,533.173C736.514,533.323 738.264,533.423 740.464,533.423C748.814,533.423 753.164,528.773 753.164,522.623C753.164,516.623 749.064,512.623 740.414,512.623ZM740.414,529.873C738.164,529.873 736.414,529.773 735.014,529.623L735.014,516.673C736.664,516.423 738.564,516.273 740.364,516.273C746.064,516.273 748.914,518.723 748.914,522.623C748.914,526.923 746.514,529.873 740.414,529.873Z" style="fill:white;fill-rule:nonzero;"/>
            <path d="M807.464,512.973C806.714,512.973 806.314,513.023 805.814,513.123L795.364,536.523L794.864,538.123L794.264,536.523L783.264,513.123C782.714,512.973 782.214,512.923 781.714,512.923C780.664,512.923 779.914,513.123 779.264,513.373L779.264,545.273C780.014,545.423 780.564,545.523 781.214,545.523C781.814,545.523 782.514,545.423 783.164,545.273L783.164,525.823L782.964,520.823L783.614,522.373L792.714,542.173C793.464,542.323 794.014,542.373 794.564,542.373C795.114,542.373 795.714,542.323 796.414,542.173L805.364,522.523L806.014,520.823L805.714,525.823L805.714,545.273C806.464,545.423 807.064,545.523 807.714,545.523C808.364,545.523 808.964,545.423 809.664,545.273L809.664,513.323C808.914,513.073 808.164,512.973 807.464,512.973Z" style="fill:white;fill-rule:nonzero;"/>
            <path d="M859.064,541.573L842.664,541.573L842.664,530.573L856.814,530.573C857.014,529.923 857.114,529.373 857.114,528.723C857.114,528.123 857.014,527.523 856.814,526.873L842.664,526.873L842.664,516.923L858.564,516.923C858.764,516.373 858.864,515.773 858.864,515.123C858.864,514.473 858.764,513.723 858.564,513.173L838.664,513.173L838.664,545.273L859.064,545.273C859.264,544.673 859.364,543.973 859.364,543.323C859.364,542.723 859.264,542.123 859.064,541.573Z" style="fill:white;fill-rule:nonzero;"/>
            <path d="M909.414,512.923C908.714,512.923 908.264,513.023 907.514,513.173L907.514,536.073L907.564,538.273L906.714,536.823L889.714,513.023C888.364,512.723 886.864,513.173 886.114,513.573L886.114,545.273C886.814,545.473 887.414,545.523 888.064,545.523C888.764,545.523 889.264,545.473 889.964,545.273L889.964,519.723L890.764,521.323L907.814,545.423C908.964,545.423 910.364,545.273 911.364,544.973L911.364,513.173C910.714,513.023 910.064,512.923 909.414,512.923Z" style="fill:white;fill-rule:nonzero;"/>
            <path d="M961.664,515.023C961.664,514.373 961.564,513.823 961.414,513.173L936.914,513.173C936.764,513.823 936.664,514.373 936.664,515.023C936.664,515.623 936.764,516.223 936.914,516.873L947.164,516.873L947.164,545.323C947.864,545.473 948.514,545.573 949.164,545.573C949.864,545.573 950.514,545.473 951.214,545.323L951.214,516.873L961.414,516.873C961.564,516.223 961.664,515.623 961.664,515.023Z" style="fill:white;fill-rule:nonzero;"/>
        </g>
        <g transform="matrix(0.73069,0,0,0.73069,110.485,100.157)">
            <path d="M388.814,396.886C396.114,396.886 400.714,393.186 400.664,386.686C400.614,380.786 396.514,378.286 390.264,376.736C384.764,375.386 383.764,374.236 383.764,372.136C383.764,370.036 385.814,368.386 389.264,368.386C392.864,368.386 395.414,369.536 397.414,370.986C398.914,370.136 400.014,368.136 400.164,366.386C398.114,364.786 394.764,363.186 389.464,363.186C382.664,363.186 378.214,366.986 378.214,372.536C378.264,378.886 382.964,380.986 388.114,382.186C394.064,383.636 395.064,385.186 395.064,387.286C395.064,389.836 393.164,391.636 388.864,391.636C385.214,391.636 382.214,390.236 380.214,388.436C378.764,389.286 377.614,390.836 377.264,392.886C379.164,394.686 382.764,396.886 388.814,396.886Z" style="fill:white;fill-rule:nonzero;"/>
            <path d="M420.564,363.986C419.614,363.736 418.764,363.686 417.714,363.686C416.764,363.686 415.714,363.736 414.764,363.986C410.014,373.686 406.114,384.286 402.964,395.736C403.914,396.136 404.964,396.286 406.164,396.286C406.964,396.286 407.814,396.236 408.714,396.086C409.364,393.486 410.064,390.886 410.814,388.386L424.414,388.386C425.164,390.886 425.914,393.436 426.564,396.086C427.264,396.236 428.164,396.286 428.914,396.286C430.214,396.286 431.364,396.136 432.464,395.736C429.214,384.286 425.264,373.736 420.564,363.986ZM412.314,383.586C413.614,379.686 415.114,375.936 416.764,372.236L417.564,370.186L418.414,372.236C420.014,375.886 421.514,379.686 422.864,383.586L412.314,383.586Z" style="fill:white;fill-rule:nonzero;"/>
            <path d="M460.714,363.736C459.714,363.736 459.014,363.836 457.964,364.036L457.964,384.486L458.064,386.736L457.164,385.136L442.364,363.836C440.514,363.536 438.264,363.886 437.064,364.336L437.064,396.086C438.114,396.286 438.914,396.386 439.814,396.386C440.764,396.386 441.614,396.286 442.614,396.086L442.614,375.286L442.514,373.286L443.414,374.986L458.264,396.286C459.914,396.336 461.864,396.236 463.514,395.836L463.514,364.036C462.564,363.836 461.664,363.736 460.714,363.736Z" style="fill:white;fill-rule:nonzero;"/>
            <path d="M480.764,363.436C476.964,363.436 474.514,363.636 471.364,364.136L471.364,395.986C474.714,396.486 477.414,396.586 481.064,396.586C492.064,396.586 499.064,389.886 499.064,379.736C499.064,369.986 492.614,363.436 480.764,363.436ZM481.364,391.386C479.764,391.386 478.364,391.336 477.064,391.236L477.064,368.886C478.514,368.736 479.714,368.736 480.914,368.736C488.964,368.736 492.914,373.236 492.914,379.886C492.914,386.736 488.914,391.386 481.364,391.386Z" style="fill:white;fill-rule:nonzero;"/>
            <path d="M528.714,363.736C527.764,363.736 526.864,363.836 525.864,364.036L525.864,377.186L510.714,377.186L510.714,364.036C509.764,363.786 508.764,363.736 507.764,363.736C506.864,363.736 505.964,363.786 505.064,364.036L505.064,396.086C506.064,396.286 506.964,396.386 507.864,396.386C508.814,396.386 509.764,396.286 510.714,396.086L510.714,382.386L525.864,382.386L525.864,396.086C526.914,396.286 527.914,396.386 528.864,396.386C529.814,396.386 530.664,396.286 531.564,396.086L531.564,364.036C530.614,363.836 529.664,363.736 528.714,363.736Z" style="fill:white;fill-rule:nonzero;"/>
            <path d="M542.364,396.386C543.314,396.386 544.214,396.286 545.114,396.086L545.114,364.036C544.164,363.786 543.214,363.686 542.264,363.686C541.364,363.686 540.414,363.786 539.464,364.036L539.464,396.086C540.464,396.286 541.364,396.386 542.364,396.386Z" style="fill:white;fill-rule:nonzero;"/>
            <path d="M572.664,390.986L558.664,390.986L558.664,363.986C557.714,363.786 556.764,363.686 555.814,363.686C554.864,363.686 553.964,363.786 553.014,363.986L553.014,396.086L572.664,396.086C572.864,395.186 572.964,394.286 572.964,393.486C572.964,392.636 572.864,391.836 572.664,390.986Z" style="fill:white;fill-rule:nonzero;"/>
            <path d="M597.314,390.986L583.314,390.986L583.314,363.986C582.364,363.786 581.414,363.686 580.464,363.686C579.514,363.686 578.614,363.786 577.664,363.986L577.664,396.086L597.314,396.086C597.514,395.186 597.614,394.286 597.614,393.486C597.614,392.636 597.514,391.836 597.314,390.986Z" style="fill:white;fill-rule:nonzero;"/>
            <path d="M611.514,396.886C618.814,396.886 623.414,393.186 623.364,386.686C623.314,380.786 619.214,378.286 612.964,376.736C607.464,375.386 606.464,374.236 606.464,372.136C606.464,370.036 608.514,368.386 611.964,368.386C615.564,368.386 618.114,369.536 620.114,370.986C621.614,370.136 622.714,368.136 622.864,366.386C620.814,364.786 617.464,363.186 612.164,363.186C605.364,363.186 600.914,366.986 600.914,372.536C600.964,378.886 605.664,380.986 610.814,382.186C616.764,383.636 617.764,385.186 617.764,387.286C617.764,389.836 615.864,391.636 611.564,391.636C607.914,391.636 604.914,390.236 602.914,388.436C601.464,389.286 600.314,390.836 599.964,392.886C601.864,394.686 605.464,396.886 611.514,396.886Z" style="fill:white;fill-rule:nonzero;"/>
        </g>
    </g>
</svg>
