<?xml version="1.0" encoding="UTF-8" standalone="no"?><!DOCTYPE svg PUBLIC "-//W3C//DTD SVG 1.1//EN" "http://www.w3.org/Graphics/SVG/1.1/DTD/svg11.dtd"><svg width="100%" height="100%" viewBox="0 0 24 24" version="1.1" xmlns="http://www.w3.org/2000/svg" xmlns:xlink="http://www.w3.org/1999/xlink" xml:space="preserve" xmlns:serif="http://www.serif.com/" style="fill-rule:evenodd;clip-rule:evenodd;stroke-linejoin:round;stroke-miterlimit:2;"><circle cx="12" cy="12" r="11.52" style="fill:#e1ebf2;"/><path id="Brick---Mortar" serif:id="Brick &amp; Mortar" d="M22.56,12c0,5.828 -4.732,10.56 -10.56,10.56c-5.828,0 -10.56,-4.732 -10.56,-10.56c0,-5.828 4.732,-10.56 10.56,-10.56c5.828,0 10.56,4.732 10.56,10.56Z" style="fill:#87ceeb;"/><clipPath id="_clip1"><path d="M22.56,12c0,5.828 -4.732,10.56 -10.56,10.56c-5.828,0 -10.56,-4.732 -10.56,-10.56c0,-5.828 4.732,-10.56 10.56,-10.56c5.828,0 10.56,4.732 10.56,10.56Z"/></clipPath><g clip-path="url(#_clip1)"><g id="Laying-bricks" serif:id="Laying bricks"><path d="M4.821,4.164l0.324,-0.183l0.51,0.069l0.516,-0.077l0.489,0.215l0.152,3.764l6.23,-0.059l1.852,5.457l3.763,-0.043l1.078,0.119l0.6,0.606l0.434,3.654l0.465,0.495l-1.368,1.869l-2.646,2.024c0,0 -3.444,1.063 -3.714,1.093c-0.269,0.03 -3.863,-0.03 -3.863,-0.03l-2.651,-0.883l-4.597,-3.474l-2.007,-4.763l0.105,-6.199l1.243,-2.037l3.085,-1.617Z" style="fill:#b3aca4;"/><path d="M1.168,22.481c0,0.391 0.317,0.708 0.707,0.708l5.66,0c0.391,0 0.708,-0.317 0.708,-0.708l0,-2.83c0,-0.39 -0.317,-0.707 -0.708,-0.707l-5.66,0c-0.39,0 -0.707,0.317 -0.707,0.707l0,2.83Z" style="fill:#935849;fill-rule:nonzero;"/><path d="M5.413,14.699l0,2.83c0,0.389 -0.319,0.707 -0.708,0.707l-3.537,0l-0.489,-4.245l4.026,0c0.389,0 0.708,0.318 0.708,0.708" style="fill:#875852;fill-rule:nonzero;"/><path d="M6.12,17.529c0,0.39 0.317,0.707 0.708,0.707l5.66,0c0.39,0 0.707,-0.317 0.707,-0.707l0,-2.83c0,-0.391 -0.317,-0.708 -0.707,-0.708l-5.66,0c-0.391,0 -0.708,0.317 -0.708,0.708l0,2.83Z" style="fill:#b0816d;fill-rule:nonzero;"/><path d="M5.413,4.794l0,2.83c0,0.389 -0.319,0.707 -0.708,0.707l-3.706,0.009l0.169,-4.254l3.537,0c0.389,0 0.708,0.318 0.708,0.708" style="fill:#b0816d;fill-rule:nonzero;"/><path d="M6.12,7.624c0,0.39 0.317,0.707 0.708,0.707l5.66,0c0.39,0 0.707,-0.317 0.707,-0.707l0,-2.83c0,-0.391 -0.317,-0.708 -0.707,-0.708l-5.66,0c-0.391,0 -0.708,0.317 -0.708,0.708l0,2.83Z" style="fill:#875852;fill-rule:nonzero;"/><path d="M13.903,17.529c0,0.39 0.317,0.707 0.707,0.707l5.66,0c0.391,0 0.708,-0.317 0.708,-0.707l0,-2.83c0,-0.391 -0.317,-0.708 -0.708,-0.708l-5.66,0c-0.39,0 -0.707,0.317 -0.707,0.708l0,2.83Z" style="fill:#875852;fill-rule:nonzero;"/><path d="M8.95,22.481c0,0.391 0.317,0.708 0.708,0.708l5.66,0c0.39,0 0.707,-0.317 0.707,-0.708l0,-2.83c0,-0.39 -0.317,-0.707 -0.707,-0.707l-5.66,0c-0.391,0 -0.708,0.317 -0.708,0.707l0,2.83Z" style="fill:#875852;fill-rule:nonzero;"/><path d="M0.712,12.576c0,0.391 0.337,0.708 0.753,0.708l6.025,0c0.415,0 0.753,-0.317 0.753,-0.708l0,-2.83c0,-0.39 -0.338,-0.707 -0.753,-0.707l-6.025,0c-0.416,0 -0.753,0.317 -0.753,0.707l0,2.83Z" style="fill:#935849;fill-rule:nonzero;"/><path d="M16.733,22.481c0,0.391 0.317,0.708 0.707,0.708l5.66,0c0.391,0 0.708,-0.317 0.708,-0.708l0,-2.83c0,-0.39 -0.317,-0.707 -0.708,-0.707l-5.66,0c-0.39,0 -0.707,0.317 -0.707,0.707l0,2.83Z" style="fill:#935849;fill-rule:nonzero;"/><path d="M9.303,13.185c0.851,-1.466 1.763,-2.849 2.74,-4.146l-2.385,0c-0.391,0 -0.708,0.317 -0.708,0.707l0,2.83c0,0.261 0.143,0.486 0.353,0.609" style="fill:#875852;fill-rule:nonzero;"/><path d="M8.683,14.285c-0.132,0.243 -0.111,0.54 0.054,0.761c0.164,0.221 0.443,0.327 0.713,0.27c2.764,-0.584 5.358,-1.395 7.783,-2.436c0.199,-0.085 0.348,-0.257 0.404,-0.466c0.056,-0.209 0.014,-0.433 -0.115,-0.607l-3.169,-4.252c-0.129,-0.174 -0.331,-0.279 -0.548,-0.285c-0.217,-0.006 -0.424,0.088 -0.563,0.255c-1.69,2.025 -3.21,4.278 -4.559,6.76" style="fill:#91928c;fill-rule:nonzero;"/><path d="M14.353,7.555c-0.129,-0.174 -0.331,-0.279 -0.548,-0.285c-0.217,-0.005 -0.424,0.088 -0.563,0.255c-1.69,2.025 -3.21,4.279 -4.559,6.76c-0.132,0.243 -0.111,0.54 0.053,0.761c0.009,0.011 0.02,0.018 0.028,0.028l7.134,-5.446l-1.545,-2.073Z" style="fill:#e9e9e7;fill-rule:nonzero;"/><path d="M18.237,5.14c-0.383,0.277 -0.963,0.721 -1.414,1.172c-0.811,0.811 -0.811,1.641 -0.811,2.373c0,0.787 -0.788,1.069 -0.819,1.079c-0.186,0.062 -0.286,0.262 -0.224,0.448c0.062,0.186 0.263,0.285 0.447,0.224c0.054,-0.018 1.303,-0.45 1.303,-1.751c0,-0.681 0,-1.268 0.604,-1.873c0.424,-0.423 0.99,-0.854 1.353,-1.116l-0.439,-0.556Z" style="fill:#070705;fill-rule:nonzero;"/><path d="M18.673,6.291c-0.123,0.097 -0.303,0.076 -0.4,-0.048l-0.708,-0.896c-0.098,-0.124 -0.076,-0.303 0.047,-0.401l3.361,-2.652c0.248,-0.196 0.607,-0.153 0.802,0.094l0.354,0.449c0.195,0.247 0.153,0.606 -0.095,0.801l-3.361,2.653Z" style="fill:#e4d056;fill-rule:nonzero;"/><path d="M21.775,2.388c-0.195,-0.247 -0.554,-0.29 -0.802,-0.094l-3.361,2.652c-0.123,0.098 -0.145,0.277 -0.047,0.401l0.352,0.446l4.084,-3.119l-0.226,-0.286Z" style="fill:#fff2a6;fill-rule:nonzero;"/><path d="M19.373,6.008c-0.153,0.121 -0.375,0.095 -0.496,-0.059l-0.877,-1.11c-0.121,-0.154 -0.095,-0.376 0.058,-0.497l4.166,-3.287c0.306,-0.243 0.751,-0.19 0.993,0.117l0.439,0.555c0.242,0.307 0.189,0.752 -0.117,0.994l-4.166,3.287Z" style="fill:#221e1d;fill-rule:nonzero;"/><path d="M23.217,1.172c-0.242,-0.307 -0.687,-0.359 -0.994,-0.117l-4.165,3.287c-0.153,0.121 -0.179,0.343 -0.058,0.497l0.435,0.552l5.062,-3.865l-0.28,-0.354Z" style="fill:#434341;fill-rule:nonzero;"/></g></g></svg>