<?xml version="1.0" encoding="UTF-8" standalone="no"?>
<!DOCTYPE svg PUBLIC "-//W3C//DTD SVG 1.1//EN" "http://www.w3.org/Graphics/SVG/1.1/DTD/svg11.dtd">
<svg width="100%" height="100%" viewBox="0 0 60 42" version="1.1" xmlns="http://www.w3.org/2000/svg" xmlns:xlink="http://www.w3.org/1999/xlink" xml:space="preserve" xmlns:serif="http://www.serif.com/" style="fill-rule:evenodd;clip-rule:evenodd;stroke-linejoin:round;stroke-miterlimit:2;">
    <g id="Bullhorn" transform="matrix(0.668294,0,0,0.668294,-235.213,-26.7553)">
        <g id="Handle">
            <g transform="matrix(-0.824264,0.566206,0.566206,0.824264,373.465,89.5856)">
                <path d="M1.732,-7.131C2.905,-5.23 3.965,-2.863 4.893,-0.324C4.893,-0.324 4.348,-0.297 3.71,-0.264C2.511,-0.203 1.391,-0.864 0.866,-1.944C0.013,-3.7 -1.164,-6.12 -1.164,-6.12L1.732,-7.131Z" style="fill:rgb(37,63,89);fill-rule:nonzero;"/>
            </g>
            <g transform="matrix(1,0,0,1,368,96.3777)">
                <path d="M0,-11.689L2.959,-12.496L5.977,-17.496L3.959,-17.496L-4.041,-17.496C-5.445,-17.496 -6.788,-17.75 -8.041,-18.193L-8.041,-10.496C-8.041,-4.854 -10.668,0.55 -9.858,4.502C-9.443,5.625 -8.373,6.37 -7.177,6.37C-4.388,6.504 0.545,6.504 0.545,6.504C1.525,6.504 2.442,6.024 3.004,5.221C3.565,4.418 3.698,3.392 3.362,2.472C1.618,-2.29 0.204,-7.538 0,-11.689" style="fill:white;fill-rule:nonzero;"/>
            </g>
        </g>
        <g id="Horn">
            <g transform="matrix(1,0,0,1,351.96,66.8816)">
                <path d="M0,0C0,6.627 5.373,12 12,12L24,12L24,-12L12,-12C5.373,-12 0,-6.627 0,0" style="fill:rgb(207,83,77);fill-rule:nonzero;"/>
            </g>
            <g transform="matrix(-0.679147,0,0,0.679147,418.423,66.8816)">
                <clipPath id="_clip1">
                    <rect x="0" y="-12" width="6.547" height="24"/>
                </clipPath>
                <g clip-path="url(#_clip1)">
                    <path d="M0,0C0,6.627 5.373,12 12,12L24,12L24,-12L12,-12C5.373,-12 0,-6.627 0,0" style="fill:rgb(37,63,89);fill-rule:nonzero;"/>
                </g>
            </g>
            <g transform="matrix(-1,0,0,1,351.96,66.8816)">
                <path d="M-24,-12L-12,-12C-5.373,-12 0,-6.627 0,0L-24,0L-24,-12Z" style="fill:rgb(247,88,80);fill-rule:nonzero;"/>
            </g>
            <g transform="matrix(-0.599772,-0.800171,-0.800171,0.599772,372.768,49.271)">
                <path d="M-16.005,-32.005C-21.916,-27.582 -35.209,-17.611 -35.209,-17.611L-16.005,8.01L-6.403,0.813C-21.35,-19.129 -16.005,-32.005 -16.005,-32.005" style="fill:white;fill-rule:nonzero;"/>
            </g>
            <g transform="matrix(0.599772,-0.800171,-0.800171,-0.599772,411.172,73.271)">
                <path d="M-16.008,-8.005C-10.097,-3.582 3.196,6.389 3.196,6.389L-16.008,32.01L-25.61,24.813C-10.663,4.871 -16.008,-8.005 -16.008,-8.005" style="fill:rgb(238,244,250);fill-rule:nonzero;"/>
            </g>
            <g transform="matrix(-1.08737,0,0,1,4116.63,-3706.12)">
                <path d="M3411.14,3748.5C3411.14,3748.1 3410.99,3747.72 3410.74,3747.44C3410.48,3747.16 3410.13,3747 3409.76,3747C3408.79,3747 3407.49,3747 3406.52,3747C3406.15,3747 3405.8,3747.16 3405.54,3747.44C3405.28,3747.72 3405.14,3748.1 3405.14,3748.5C3405.14,3754.03 3405.14,3773 3405.14,3773L3411.14,3773L3411.14,3748.5Z" style="fill:rgb(238,244,250);"/>
            </g>
            <g transform="matrix(-1.08737,0,0,1,4116.63,-3654.12)">
                <path d="M3411.14,3721L3405.14,3721L3405.14,3745.5C3405.14,3745.9 3405.28,3746.28 3405.54,3746.56C3405.8,3746.84 3406.15,3747 3406.52,3747C3407.49,3747 3408.79,3747 3409.76,3747C3410.13,3747 3410.48,3746.84 3410.74,3746.56C3410.99,3746.28 3411.14,3745.9 3411.14,3745.5C3411.14,3739.97 3411.14,3721 3411.14,3721Z" style="fill:rgb(212,229,246);"/>
            </g>
        </g>
        <g id="Audio" transform="matrix(0.7379,0,0,0.7379,144.022,18.2676)">
            <g id="Bottom" transform="matrix(-0.966518,-0.2566,-0.2566,0.966518,783.465,119.055)">
                <path d="M401.81,66.656C401.81,65.232 400.655,64.077 399.231,64.077C395.327,64.077 387.96,64.077 384.056,64.077C382.632,64.077 381.477,65.232 381.477,66.656C381.477,66.659 381.477,66.662 381.477,66.664C381.477,68.089 382.632,69.244 384.056,69.244C387.96,69.244 395.327,69.244 399.231,69.244C400.655,69.244 401.81,68.089 401.81,66.664C401.81,66.662 401.81,66.659 401.81,66.656Z" style="fill:rgb(88,138,187);"/>
            </g>
            <g id="Middle" transform="matrix(1,0,0,1,1.65636,-0.778582)">
                <path d="M401.81,66.656C401.81,65.232 400.655,64.077 399.231,64.077C395.327,64.077 387.96,64.077 384.056,64.077C382.632,64.077 381.477,65.232 381.477,66.656C381.477,66.659 381.477,66.662 381.477,66.664C381.477,68.089 382.632,69.244 384.056,69.244C387.96,69.244 395.327,69.244 399.231,69.244C400.655,69.244 401.81,68.089 401.81,66.664C401.81,66.662 401.81,66.659 401.81,66.656Z" style="fill:rgb(88,138,187);"/>
            </g>
            <g id="Top" transform="matrix(0.966518,-0.2566,0.2566,0.966518,-7.80634,84.8437)">
                <path d="M401.81,66.656C401.81,65.232 400.655,64.077 399.231,64.077C395.327,64.077 387.96,64.077 384.056,64.077C382.632,64.077 381.477,65.232 381.477,66.656C381.477,66.659 381.477,66.662 381.477,66.664C381.477,68.089 382.632,69.244 384.056,69.244C387.96,69.244 395.327,69.244 399.231,69.244C400.655,69.244 401.81,68.089 401.81,66.664C401.81,66.662 401.81,66.659 401.81,66.656Z" style="fill:rgb(88,138,187);"/>
            </g>
        </g>
    </g>
</svg>
