<?xml version="1.0" encoding="UTF-8" standalone="no"?><!DOCTYPE svg PUBLIC "-//W3C//DTD SVG 1.1//EN" "http://www.w3.org/Graphics/SVG/1.1/DTD/svg11.dtd"><svg width="100%" height="100%" viewBox="0 0 24 24" version="1.1" xmlns="http://www.w3.org/2000/svg" xmlns:xlink="http://www.w3.org/1999/xlink" xml:space="preserve" xmlns:serif="http://www.serif.com/" style="fill-rule:evenodd;clip-rule:evenodd;stroke-linejoin:round;stroke-miterlimit:2;"><circle cx="12" cy="12" r="11.52" style="fill:#e1ebf2;"/><path id="Business" d="M22.56,12c0,5.828 -4.732,10.56 -10.56,10.56c-5.828,0 -10.56,-4.732 -10.56,-10.56c0,-5.828 4.732,-10.56 10.56,-10.56c5.828,0 10.56,4.732 10.56,10.56Z" style="fill:#fff;"/><clipPath id="_clip1"><path d="M22.56,12c0,5.828 -4.732,10.56 -10.56,10.56c-5.828,0 -10.56,-4.732 -10.56,-10.56c0,-5.828 4.732,-10.56 10.56,-10.56c5.828,0 10.56,4.732 10.56,10.56Z"/></clipPath><g clip-path="url(#_clip1)"><g id="Graph"><path d="M22.56,4.984l0,16.186c0,1.093 -0.888,1.98 -1.98,1.98l-17.16,0c-1.092,0 -1.98,-0.887 -1.98,-1.98l0,-4.534l3.699,-2.379l5.614,0.99l5.124,-3.415l2.957,-5.251l3.726,-1.597Z" style="fill:#28415b;fill-rule:nonzero;"/><path d="M19.59,12.261l-1.98,0l0,-1.98l1.98,0l0,1.98Zm0,2.64l-1.98,0l0,-1.98l1.98,0l0,1.98Zm0,2.64l-1.98,0l0,-1.98l1.98,0l0,1.98Zm0,2.64l-1.98,0l0,-1.98l1.98,0l0,1.98Zm-4.62,-1.98l1.98,0l0,1.98l-1.98,0l0,-1.98Zm-2.64,0l1.98,0l0,1.98l-1.98,0l0,-1.98Zm-2.64,0l1.98,0l0,1.98l-1.98,0l0,-1.98Zm-2.64,0l1.98,0l0,1.98l-1.98,0l0,-1.98Zm-2.64,0l1.98,0l0,1.98l-1.98,0l0,-1.98Zm0,-2.64l1.98,0l0,1.98l-1.98,0l0,-1.98Zm4.62,1.98l-1.98,0l0,-1.98l1.98,0l0,1.98Zm2.64,0l-1.98,0l0,-1.98l1.98,0l0,1.98Zm2.64,0l-1.98,0l0,-1.98l1.98,0l0,1.98Zm2.64,0l-1.98,0l0,-1.98l1.98,0l0,1.98Zm-1.98,-4.62l1.98,0l0,1.98l-1.98,0l0,-1.98Zm7.59,-5.28l0,-0.66l-2.31,0l0,-1.32l-0.66,0l0,1.32l-1.65,0l0,0.66l1.65,0l0,1.98l-1.98,0l0,-0.99l-0.66,0l0,0.99l-0.33,0l0,0.66l0.33,0l0,1.98l-1.98,0l-0.66,0l0,2.64l-1.98,0l0,-0.66l-0.66,0l0,0.66l-1.98,0l0,-0.331l-0.66,0l0,0.331l-1.98,0l0,-0.66l-0.66,0l0,0.66l-1.98,0l0,-0.331l-0.66,0l0,0.331l-0.733,0l0,0.66l0.733,0l0,1.98l-2.31,0l0,0.66l2.31,0l0,1.98l-2.31,0l0,0.66l2.31,0l0,2.309l0.66,0l0,-2.309l1.98,0l0,2.31l0.66,0l0,-2.31l1.98,0l0,2.309l0.66,0l0,-2.309l1.98,0l0,2.31l0.66,0l0,-2.31l1.98,0l0,2.31l0.66,0l0,-2.31l1.98,0l0,2.31l0.66,0l0,-2.31l1.98,0l0,2.31l0.66,0l0,-2.31l2.31,0l0,-0.66l-2.31,0l0,-1.98l2.31,0l0,-0.66l-2.31,0l0,-1.98l2.31,0l0,-0.66l-2.31,0l0,-1.98l2.31,0l0,-0.66l-2.31,0l0,-1.98l2.31,0l0,-0.66l-2.31,0l0,-1.98l2.31,0Z" style="fill:#3c5c7f;fill-rule:nonzero;"/><path d="M22.56,4.265l-3.517,1.505c-0.883,-0.446 -1.794,0.537 -1.292,1.383l-1.952,3.474c-0.705,-0.122 -1.303,0.514 -1.126,1.216l-3.401,2.268c-0.166,-0.124 -0.369,-0.2 -0.592,-0.2c-0.37,0 -0.688,0.205 -0.858,0.504l-3.779,-0.667c-0.224,-1.351 -2.241,-0.915 -1.935,0.389l-2.668,1.714l0,0.785l3.026,-1.946c0.489,0.38 1.168,0.224 1.462,-0.294l3.778,0.667c0.078,0.469 0.483,0.828 0.974,0.828c0.624,0 1.121,-0.583 0.956,-1.233l3.403,-2.268c0.941,0.707 2.111,-0.548 1.333,-1.438l1.9,-3.371c0.812,0.287 1.555,-0.514 1.247,-1.293l3.041,-1.304l0,-0.719Z" style="fill:#649ace;fill-rule:nonzero;"/></g></g></svg>