<?xml version="1.0" encoding="UTF-8" standalone="no"?><!DOCTYPE svg PUBLIC "-//W3C//DTD SVG 1.1//EN" "http://www.w3.org/Graphics/SVG/1.1/DTD/svg11.dtd"><svg width="100%" height="100%" viewBox="0 0 24 24" version="1.1" xmlns="http://www.w3.org/2000/svg" xmlns:xlink="http://www.w3.org/1999/xlink" xml:space="preserve" xmlns:serif="http://www.serif.com/" style="fill-rule:evenodd;clip-rule:evenodd;stroke-linejoin:round;stroke-miterlimit:2;"><circle cx="12" cy="12" r="12" style="fill:#e1ebf2;"/><path id="Business" d="M22.56,12c0,5.828 -4.732,10.56 -10.56,10.56c-5.828,0 -10.56,-4.732 -10.56,-10.56c0,-5.828 4.732,-10.56 10.56,-10.56c5.828,0 10.56,4.732 10.56,10.56Z" style="fill:#fff;"/><clipPath id="_clip1"><path d="M22.56,12c0,5.828 -4.732,10.56 -10.56,10.56c-5.828,0 -10.56,-4.732 -10.56,-10.56c0,-5.828 4.732,-10.56 10.56,-10.56c5.828,0 10.56,4.732 10.56,10.56Z"/></clipPath><g clip-path="url(#_clip1)"><clipPath id="_clip2"><path d="M26.442,15.853l-10.56,-18.29l-9.145,5.28l10.56,18.29l9.145,-5.28Z"/></clipPath><g clip-path="url(#_clip2)"><path d="M21.162,6.708c2.914,5.047 1.182,11.511 -3.865,14.425c-5.048,2.914 -11.512,1.182 -14.426,-3.865c-2.914,-5.047 -1.182,-11.511 3.866,-14.425c5.047,-2.914 11.511,-1.182 14.425,3.865Z" style="fill:#f4f8fc;"/></g><g><path d="M5.767,17.977l0,-0.417l-2.5,0c-0.109,0 -0.216,0.045 -0.294,0.122c-0.077,0.079 -0.122,0.185 -0.122,0.295l0,4.166c0,0.112 0.044,0.217 0.122,0.295c0.079,0.079 0.184,0.122 0.294,0.122l2.5,0c0.112,0 0.216,-0.043 0.295,-0.122c0.078,-0.078 0.122,-0.183 0.122,-0.295l0,-4.166c0,-0.11 -0.044,-0.216 -0.122,-0.295c-0.077,-0.077 -0.185,-0.122 -0.295,-0.122l0,0.417l-0.416,0l0.416,0.417l0,-0.417l-0.416,0l0.416,0Z" style="fill:#1c3752;fill-rule:nonzero;"/><path d="M10.767,13.811l0,-0.417l-2.5,0c-0.109,0 -0.217,0.045 -0.294,0.122c-0.078,0.078 -0.123,0.185 -0.123,0.295l0,8.332c0,0.112 0.044,0.217 0.123,0.295c0.079,0.079 0.183,0.122 0.294,0.122l2.5,0c0.111,0 0.216,-0.043 0.295,-0.122c0.078,-0.078 0.121,-0.183 0.121,-0.295l0,-8.332c0,-0.11 -0.044,-0.217 -0.121,-0.295c-0.078,-0.077 -0.185,-0.122 -0.295,-0.122l0,0.417l-0.417,0l0.417,0.416l0,-0.416l-0.417,0l0.417,0Z" style="fill:#305579;fill-rule:nonzero;"/><path d="M15.766,15.477l0,-0.416l-2.5,0c-0.109,0 -0.216,0.044 -0.294,0.121c-0.077,0.079 -0.122,0.185 -0.122,0.295l0,6.666c0,0.112 0.044,0.217 0.122,0.295c0.08,0.079 0.184,0.122 0.294,0.122l2.5,0c0.112,0 0.216,-0.043 0.295,-0.122c0.079,-0.078 0.122,-0.183 0.122,-0.295l0,-6.666c0,-0.11 -0.044,-0.216 -0.122,-0.295c-0.077,-0.077 -0.185,-0.121 -0.295,-0.121l0,0.416l-0.416,0l0.416,0.417l0,-0.417l-0.416,0l0.416,0Z" style="fill:#1c3752;fill-rule:nonzero;"/><path d="M20.766,9.645l0,-0.417l-2.5,0c-0.109,0 -0.217,0.044 -0.294,0.122c-0.078,0.078 -0.123,0.185 -0.123,0.295l0,12.498c0,0.112 0.045,0.217 0.123,0.295c0.079,0.079 0.183,0.122 0.294,0.122l2.5,0c0.111,0 0.216,-0.043 0.295,-0.122c0.078,-0.078 0.121,-0.183 0.121,-0.295l0,-12.498c0,-0.11 -0.044,-0.217 -0.121,-0.295c-0.078,-0.078 -0.185,-0.122 -0.295,-0.122l0,0.417l-0.417,0l0.417,0.416l0,-0.416l-0.417,0l0.417,0Z" style="fill:#305579;fill-rule:nonzero;"/><path d="M5.425,12.843l3.719,-3.101c0.177,-0.147 0.201,-0.41 0.054,-0.586c-0.148,-0.177 -0.41,-0.201 -0.587,-0.054l-3.72,3.101c-0.176,0.147 -0.2,0.411 -0.053,0.587c0.148,0.177 0.41,0.2 0.587,0.053Z" style="fill:#1c3752;fill-rule:nonzero;"/><path d="M10.173,9.548l3.445,1.148c0.218,0.073 0.455,-0.045 0.528,-0.263c0.072,-0.219 -0.045,-0.455 -0.264,-0.527l-3.445,-1.149c-0.219,-0.073 -0.454,0.046 -0.528,0.264c-0.072,0.218 0.046,0.454 0.264,0.527Z" style="fill:#1c3752;fill-rule:nonzero;"/><path d="M18.658,5.085l-3.916,4.568c-0.15,0.174 -0.129,0.437 0.045,0.587c0.175,0.15 0.438,0.129 0.588,-0.045l3.916,-4.568c0.149,-0.175 0.129,-0.438 -0.046,-0.587c-0.174,-0.15 -0.437,-0.13 -0.587,0.045Z" style="fill:#1c3752;fill-rule:nonzero;"/><path d="M0.895,13.658l3.617,-0.313c0.23,-0.02 0.4,-0.222 0.38,-0.451c-0.02,-0.23 -0.222,-0.399 -0.451,-0.379l-3.618,0.314c-0.23,0.019 -0.399,0.221 -0.38,0.451c0.02,0.229 0.223,0.399 0.452,0.378Z" style="fill:#1c3752;fill-rule:nonzero;"/><path d="M5.957,13.056l-0.96,0c0,0.265 0.48,0 0.48,0l0.48,0c0,-0.796 -0.644,-1.44 -1.44,-1.44c-0.795,0 -1.439,0.644 -1.44,1.44c0.001,0.796 0.645,1.44 1.44,1.44c0.796,0 1.44,-0.645 1.44,-1.44Z" style="fill:#1c3752;fill-rule:nonzero;"/><path d="M10.477,8.89l-0.48,0c0,0.265 0,-0.266 0,0l0.96,0c0,-0.796 -0.644,-1.44 -1.44,-1.44c-0.795,0 -1.439,0.644 -1.44,1.44c0.001,0.796 0.645,1.44 1.44,1.44c0.796,0 1.44,-0.645 1.44,-1.44l-0.48,0Z" style="fill:#305579;fill-rule:nonzero;"/><path d="M15.476,10.557l-0.48,0c0,0.264 0,-0.266 0,0l0.96,0c0,-0.796 -0.644,-1.44 -1.44,-1.44c-0.795,0 -1.439,0.644 -1.44,1.44c0.001,0.796 0.645,1.44 1.44,1.44c0.796,0 1.44,-0.645 1.44,-1.44l-0.48,0Z" style="fill:#1c3752;fill-rule:nonzero;"/><path d="M20.476,4.724l-0.48,0c0,0.265 0,-0.266 0,0l0.96,0c0,-0.796 -0.644,-1.44 -1.44,-1.44c-0.795,0 -1.439,0.644 -1.44,1.44c0.001,0.796 0.645,1.44 1.44,1.44c0.796,0 1.44,-0.645 1.44,-1.44l-0.48,0Z" style="fill:#305579;fill-rule:nonzero;"/><path d="M2.434,23.472l19.165,0c0.231,0 0.417,-0.187 0.417,-0.417c0,-0.229 -0.186,-0.416 -0.417,-0.416l-19.165,0c-0.23,0 -0.416,0.187 -0.416,0.416c0,0.23 0.186,0.417 0.416,0.417Z" style="fill:#1c3752;fill-rule:nonzero;"/></g></g></svg>