<?xml version="1.0" encoding="UTF-8" standalone="no"?><!DOCTYPE svg PUBLIC "-//W3C//DTD SVG 1.1//EN" "http://www.w3.org/Graphics/SVG/1.1/DTD/svg11.dtd"><svg width="100%" height="100%" viewBox="0 0 24 24" version="1.1" xmlns="http://www.w3.org/2000/svg" xmlns:xlink="http://www.w3.org/1999/xlink" xml:space="preserve" xmlns:serif="http://www.serif.com/" style="fill-rule:evenodd;clip-rule:evenodd;stroke-linejoin:round;stroke-miterlimit:2;"><circle cx="12" cy="12" r="11.52" style="fill:#e1ebf2;"/><path id="Passion" d="M22.56,12c0,5.828 -4.732,10.56 -10.56,10.56c-5.828,0 -10.56,-4.732 -10.56,-10.56c0,-5.828 4.732,-10.56 10.56,-10.56c5.828,0 10.56,4.732 10.56,10.56Z" style="fill:#fff;"/><clipPath id="_clip1"><path d="M22.56,12c0,5.828 -4.732,10.56 -10.56,10.56c-5.828,0 -10.56,-4.732 -10.56,-10.56c0,-5.828 4.732,-10.56 10.56,-10.56c5.828,0 10.56,4.732 10.56,10.56Z"/></clipPath><g clip-path="url(#_clip1)"><g id="Beer"><path d="M12.87,23.302c-0.001,-1.52 -0.004,-5.819 0.015,-5.901c-0.292,0.048 -0.589,0.073 -0.89,0.073c-0.297,0 -0.591,-0.025 -0.88,-0.071c0.019,0.081 0.016,4.38 0.014,5.899c-2.148,0.102 -3.774,0.573 -3.774,1.14c0,0.641 2.079,1.161 4.645,1.161c2.566,0 4.645,-0.52 4.645,-1.161c0,-0.567 -1.626,-1.038 -3.775,-1.14" style="fill:#e1ebf2;fill-rule:nonzero;"/><path d="M7.355,7.604l-0.727,3.088c-0.386,1.641 -0.001,3.369 1.046,4.69c1.047,1.322 2.64,2.092 4.326,2.092l0.779,-0.073l0.421,-9.798l-5.845,0.001Z" style="fill:#fff;fill-rule:nonzero;"/><path d="M12.779,17.401l-0.779,0.073l-0.04,0l-0.039,0l-0.04,-0.001l-0.039,-0.001l-0.039,-0.001l-0.04,-0.002l-0.039,-0.001l-0.039,-0.002l-0.039,-0.003l-0.039,-0.003l-0.04,-0.002l-0.039,-0.004l-0.039,-0.003l-0.039,-0.004l-0.038,-0.004l-0.039,-0.004l-0.039,-0.005l-0.039,-0.005l-0.038,-0.005l-0.039,-0.005l-0.039,-0.006l-0.038,-0.006l-0.038,-0.006l-0.039,-0.006l-0.038,-0.007l-0.038,-0.007l-0.038,-0.007l-0.039,-0.008l-0.038,-0.008l-0.038,-0.008l-0.037,-0.008l-0.038,-0.009l-0.038,-0.008l-0.038,-0.01l-0.037,-0.009l-0.038,-0.009l-0.037,-0.01l-0.037,-0.011l-0.038,-0.01l-0.037,-0.011l-0.037,-0.01l-0.037,-0.012l-0.037,-0.011l-0.037,-0.012l-0.036,-0.012l-0.037,-0.012l-0.036,-0.012l-0.037,-0.013l-0.036,-0.013l-0.036,-0.013l-0.037,-0.014l-0.036,-0.013l-0.036,-0.014l-0.035,-0.014l-0.036,-0.015l-0.036,-0.015l-0.035,-0.015l-0.036,-0.015l-0.035,-0.015l-0.035,-0.016l-0.035,-0.016l-0.035,-0.016l-0.035,-0.016l-0.035,-0.017l-0.034,-0.017l-0.035,-0.017l-0.034,-0.017l-0.035,-0.018l-0.034,-0.018l-0.034,-0.018l-0.034,-0.018l-0.033,-0.019l-0.034,-0.019l-0.034,-0.019l-0.033,-0.019l-0.033,-0.02l-0.033,-0.019l-0.033,-0.02l-0.033,-0.02l-0.033,-0.021l-0.032,-0.021l-0.033,-0.021l-0.032,-0.021l-0.032,-0.021l-0.032,-0.022l-0.032,-0.022l-0.032,-0.022l-0.032,-0.022l-0.031,-0.022l-0.031,-0.023l-0.031,-0.023l-0.031,-0.023l-0.031,-0.024l-0.031,-0.023l-0.03,-0.024l-0.031,-0.024l-0.03,-0.025l-0.03,-0.024l-0.03,-0.025l-0.029,-0.025l-0.03,-0.025l-0.029,-0.025l-0.03,-0.026l-0.029,-0.026l-0.029,-0.026l-0.028,-0.026l-0.029,-0.027l-0.028,-0.026l-0.028,-0.027l-0.028,-0.028l-0.028,-0.027l-0.028,-0.027l-0.027,-0.028l-0.028,-0.028l-0.027,-0.028l-0.027,-0.029l-0.026,-0.028l-0.027,-0.029l-0.026,-0.029l-0.027,-0.03l-0.026,-0.029l-0.025,-0.03l-0.026,-0.03l-0.025,-0.03l-0.026,-0.03l-0.025,-0.03l-0.024,-0.031l-0.025,-0.031l-0.024,-0.031l-0.025,-0.031l-0.024,-0.031l-0.023,-0.032l-0.024,-0.032l-0.023,-0.031l-0.023,-0.032l-0.023,-0.032l-0.022,-0.032l-0.022,-0.033l-0.022,-0.032l-0.022,-0.033l-0.021,-0.033l-0.022,-0.032l-0.021,-0.033l-0.02,-0.034l-0.021,-0.033l-0.02,-0.033l-0.02,-0.034l-0.02,-0.033l-0.019,-0.034l-0.02,-0.034l-0.019,-0.034l-0.018,-0.034l-0.019,-0.034l-0.018,-0.034l-0.018,-0.035l-0.018,-0.034l-0.017,-0.035l-0.018,-0.035l-0.017,-0.034l-0.016,-0.035l-0.017,-0.035l-0.016,-0.036l-0.016,-0.035l-0.016,-0.035l-0.015,-0.036l-0.016,-0.035l-0.015,-0.036l-0.014,-0.036l-0.015,-0.036l-0.014,-0.035l-0.014,-0.036l-0.014,-0.037l-0.013,-0.036l-0.013,-0.036l-0.013,-0.036l-0.013,-0.037l-0.012,-0.036l-0.012,-0.037l-0.012,-0.037l-0.012,-0.036l-0.011,-0.037l-0.011,-0.037l-0.011,-0.037l-0.011,-0.037l-0.01,-0.037l-0.01,-0.038l-0.01,-0.037l-0.01,-0.037l-0.009,-0.038l-0.009,-0.037l-0.009,-0.038l-0.008,-0.037l-0.009,-0.038l-0.008,-0.037l-0.007,-0.038l-0.008,-0.038l-0.007,-0.038l-0.007,-0.038l-0.007,-0.038l-0.006,-0.038l-0.006,-0.038l-0.006,-0.038l-0.006,-0.038l-0.005,-0.038l-0.005,-0.038l-0.005,-0.039l-0.004,-0.038l-0.005,-0.038l-0.004,-0.039l-0.003,-0.038l-0.004,-0.038l-0.003,-0.039l-0.003,-0.038l-0.003,-0.039l-0.002,-0.039l-0.002,-0.038l-0.002,-0.039l-0.002,-0.038l-0.001,-0.039l-0.001,-0.039l-0.001,-0.038l0,-0.039l-0.001,-0.039l0,-0.039l0.001,-0.038l0,-0.039l0.001,-0.039l0.001,-0.039l0.002,-0.039l0.001,-0.038l0.002,-0.039l0.003,-0.039l0.002,-0.039l0.003,-0.039l0.003,-0.038l0.003,-0.039l0.004,-0.039l0.004,-0.039l0.004,-0.039l0.004,-0.038l0.005,-0.039l0.005,-0.039l0.005,-0.039l0.006,-0.039l0.006,-0.038l0.006,-0.039l0.006,-0.039l0.007,-0.038l0.007,-0.039l0.007,-0.039l0.007,-0.038l0.008,-0.039l0.008,-0.038l0.009,-0.039l0.008,-0.039l0.009,-0.038l0.727,-3.088l5.845,-0.001l-0.421,9.798Zm-4.686,-8.865l-0.557,2.368l-0.008,0.034l-0.007,0.032l-0.007,0.032l-0.006,0.032l-0.007,0.032l-0.006,0.032l-0.006,0.032l-0.006,0.032l-0.005,0.032l-0.006,0.032l-0.005,0.033l-0.005,0.032l-0.004,0.032l-0.005,0.032l-0.004,0.032l-0.004,0.033l-0.003,0.032l-0.004,0.032l-0.003,0.032l-0.003,0.033l-0.003,0.032l-0.002,0.032l-0.003,0.032l-0.002,0.033l-0.001,0.032l-0.002,0.032l-0.002,0.032l-0.001,0.033l-0.001,0.032l0,0.032l-0.001,0.032l0,0.033l0,0.032l0,0.032l0.001,0.032l0,0.032l0.001,0.032l0.001,0.033l0.001,0.032l0.002,0.032l0.002,0.032l0.002,0.032l0.002,0.032l0.002,0.032l0.003,0.032l0.003,0.032l0.003,0.032l0.003,0.032l0.004,0.031l0.004,0.032l0.004,0.032l0.004,0.032l0.004,0.032l0.005,0.031l0.005,0.032l0.005,0.032l0.005,0.031l0.006,0.032l0.006,0.031l0.006,0.032l0.006,0.031l0.006,0.031l0.007,0.032l0.007,0.031l0.007,0.031l0.007,0.031l0.008,0.032l0.007,0.031l0.008,0.031l0.009,0.031l0.008,0.031l0.009,0.03l0.008,0.031l0.009,0.031l0.01,0.031l0.009,0.03l0.01,0.031l0.01,0.03l0.01,0.031l0.01,0.03l0.011,0.03l0.01,0.031l0.011,0.03l0.011,0.03l0.012,0.03l0.011,0.03l0.012,0.03l0.012,0.029l0.012,0.03l0.013,0.03l0.013,0.029l0.012,0.03l0.013,0.029l0.014,0.029l0.013,0.03l0.014,0.029l0.014,0.029l0.014,0.029l0.014,0.029l0.015,0.028l0.015,0.029l0.015,0.029l0.015,0.028l0.015,0.029l0.016,0.028l0.015,0.028l0.016,0.028l0.017,0.028l0.016,0.028l0.017,0.028l0.017,0.028l0.017,0.027l0.017,0.028l0.017,0.027l0.018,0.027l0.018,0.028l0.018,0.027l0.018,0.027l0.019,0.027l0.018,0.026l0.019,0.027l0.019,0.026l0.019,0.027l0.02,0.026l0.02,0.026l0.019,0.026l0.021,0.026l0.02,0.026l0.02,0.026l0.021,0.025l0.021,0.026l0.021,0.025l0.021,0.025l0.021,0.025l0.022,0.024l0.021,0.025l0.022,0.024l0.022,0.024l0.022,0.024l0.022,0.024l0.023,0.024l0.022,0.023l0.023,0.023l0.023,0.023l0.023,0.023l0.023,0.023l0.023,0.023l0.024,0.022l0.023,0.022l0.024,0.022l0.024,0.022l0.024,0.022l0.024,0.021l0.024,0.021l0.024,0.022l0.025,0.02l0.025,0.021l0.025,0.021l0.024,0.02l0.026,0.02l0.025,0.02l0.025,0.02l0.026,0.02l0.025,0.019l0.026,0.02l0.026,0.019l0.026,0.019l0.026,0.018l0.026,0.019l0.026,0.018l0.027,0.018l0.027,0.018l0.026,0.018l0.027,0.018l0.027,0.017l0.027,0.017l0.027,0.017l0.028,0.017l0.027,0.017l0.028,0.016l0.027,0.016l0.028,0.016l0.028,0.016l0.028,0.016l0.028,0.015l0.028,0.015l0.028,0.015l0.029,0.015l0.028,0.015l0.029,0.014l0.028,0.015l0.029,0.014l0.029,0.013l0.029,0.014l0.029,0.013l0.029,0.014l0.029,0.013l0.03,0.013l0.029,0.012l0.03,0.013l0.029,0.012l0.03,0.012l0.03,0.012l0.03,0.011l0.03,0.012l0.03,0.011l0.03,0.011l0.03,0.011l0.03,0.01l0.031,0.01l0.03,0.011l0.031,0.009l0.03,0.01l0.031,0.01l0.031,0.009l0.03,0.009l0.031,0.009l0.031,0.009l0.031,0.008l0.031,0.008l0.031,0.008l0.032,0.008l0.031,0.007l0.031,0.008l0.032,0.007l0.031,0.007l0.032,0.007l0.031,0.006l0.032,0.006l0.032,0.006l0.031,0.006l0.032,0.006l0.032,0.005l0.032,0.005l0.032,0.005l0.032,0.005l0.032,0.004l0.032,0.005l0.032,0.004l0.033,0.003l0.032,0.004l0.032,0.003l0.033,0.003l0.032,0.003l0.032,0.003l0.033,0.002l0.032,0.003l0.033,0.002l0.033,0.001l0.032,0.002l0.033,0.001l0.033,0.001l0.014,0.001l0.343,-8.005l-4.133,0Z" style="fill:#e1ebf2;"/><clipPath id="_clip2"><rect x="12" y="7.603" width="5.519" height="9.871"/></clipPath><g clip-path="url(#_clip2)"><path d="M17.372,10.692c0.386,1.641 0.001,3.369 -1.046,4.69c-1.047,1.322 -2.64,2.092 -4.326,2.092c-1.686,0 -3.279,-0.77 -4.326,-2.092c-1.047,-1.321 -1.432,-3.049 -1.046,-4.69l0.727,-3.089l9.29,0l0.727,3.089Z" style="fill:#e1ebf2;fill-rule:nonzero;"/></g><path d="M6.547,12.829c0.148,0.922 0.528,1.803 1.122,2.553c1.047,1.322 2.64,2.092 4.326,2.092c1.686,0 3.279,-0.77 4.326,-2.092c0.594,-0.75 0.974,-1.631 1.122,-2.553l-10.896,0Z" style="fill:#28415b;fill-rule:nonzero;"/><path d="M11.997,17.474c-0.297,0 -0.592,-0.025 -0.882,-0.072c0.019,0.081 0.016,4.381 0.015,5.9c-2.15,0.102 -3.775,0.573 -3.775,1.14c0,0.641 2.08,1.162 4.645,1.162l0,-8.13l-0.003,0" style="fill:#e1ebf2;fill-rule:nonzero;"/><path d="M7.674,15.382c1.046,1.321 2.639,2.092 4.324,2.093c0,0 0.001,-0.001 0.002,-0.001l0,-4.645l-5.448,0c0.148,0.922 0.528,1.803 1.122,2.553" style="fill:#3c5c7f;fill-rule:nonzero;"/></g></g></svg>