<?xml version="1.0" encoding="UTF-8" standalone="no"?><!DOCTYPE svg PUBLIC "-//W3C//DTD SVG 1.1//EN" "http://www.w3.org/Graphics/SVG/1.1/DTD/svg11.dtd"><svg width="100%" height="100%" viewBox="0 0 24 24" version="1.1" xmlns="http://www.w3.org/2000/svg" xmlns:xlink="http://www.w3.org/1999/xlink" xml:space="preserve" xmlns:serif="http://www.serif.com/" style="fill-rule:evenodd;clip-rule:evenodd;stroke-linejoin:round;stroke-miterlimit:2;"><circle cx="12" cy="12" r="11.52" style="fill:#e1ebf2;"/><path id="Globe" d="M22.56,12c0,5.828 -4.732,10.56 -10.56,10.56c-5.828,0 -10.56,-4.732 -10.56,-10.56c0,-5.828 4.732,-10.56 10.56,-10.56c5.828,0 10.56,4.732 10.56,10.56Z" style="fill:#649ace;"/><clipPath id="_clip1"><path id="Globe1" serif:id="Globe" d="M22.56,12c0,5.828 -4.732,10.56 -10.56,10.56c-5.828,0 -10.56,-4.732 -10.56,-10.56c0,-5.828 4.732,-10.56 10.56,-10.56c5.828,0 10.56,4.732 10.56,10.56Z"/></clipPath><g clip-path="url(#_clip1)"><path d="M32.66,13.095l-11.308,-11.308l-17.698,17.697l11.309,11.309l17.697,-17.698Z" style="fill:#558ec5;"/></g><g id="Earth"><clipPath id="_clip2"><path d="M22.56,12c0,5.828 -4.732,10.56 -10.56,10.56c-5.828,0 -10.56,-4.732 -10.56,-10.56c0,-5.828 4.732,-10.56 10.56,-10.56c5.828,0 10.56,4.732 10.56,10.56Z"/></clipPath><g clip-path="url(#_clip2)"><path d="M9.563,11.628l-2.843,1.218l-1.218,-3.249l3.655,0l2.437,-3.249l0,-1.219l-4.747,-2.346c-2.261,1.267 -4.007,3.342 -4.85,5.833l1.88,4.23l2.437,2.031l3.249,6.092l1.219,0l2.03,-6.092l-3.249,-3.249Z" style="fill:#407c7b;fill-rule:nonzero;"/><path d="M9.563,11.628l-2.843,1.218l-1.218,-3.249l3.655,0l2.437,-3.249l0,-1.219l-4.747,-2.346c-2.261,1.267 -4.007,3.342 -4.85,5.833l1.88,4.23l2.437,2.031l0.676,1.268l3.545,-3.545l-0.972,-0.972Z" style="fill:#418987;fill-rule:nonzero;"/><path d="M22.56,12c0,-3.994 -2.218,-7.47 -5.489,-9.264l-2.634,4.39l2.031,1.219l2.03,-1.625l1.219,1.625l1.218,0l0,1.218l-4.061,-0.406l-1.625,2.437l-0.812,4.468l1.625,2.03l0.326,3.513c3.641,-1.666 6.172,-5.339 6.172,-9.605" style="fill:#407c7b;fill-rule:nonzero;"/><path d="M14.437,7.126l0.982,0.589l3.599,-3.598c-0.594,-0.528 -1.245,-0.996 -1.947,-1.381l-2.634,4.39Z" style="fill:#418987;fill-rule:nonzero;"/></g></g></svg>