<?xml version="1.0" encoding="UTF-8" standalone="no"?><!DOCTYPE svg PUBLIC "-//W3C//DTD SVG 1.1//EN" "http://www.w3.org/Graphics/SVG/1.1/DTD/svg11.dtd"><svg width="100%" height="100%" viewBox="0 0 24 24" version="1.1" xmlns="http://www.w3.org/2000/svg" xmlns:xlink="http://www.w3.org/1999/xlink" xml:space="preserve" xmlns:serif="http://www.serif.com/" style="fill-rule:evenodd;clip-rule:evenodd;stroke-linejoin:round;stroke-miterlimit:2;"><circle cx="12" cy="12" r="11.52" style="fill:#e1ebf2;"/><path id="Toast" d="M22.56,12c0,5.828 -4.732,10.56 -10.56,10.56c-5.828,0 -10.56,-4.732 -10.56,-10.56c0,-5.828 4.732,-10.56 10.56,-10.56c5.828,0 10.56,4.732 10.56,10.56Z" style="fill:#fff;"/><clipPath id="_clip1"><path d="M22.56,12c0,5.828 -4.732,10.56 -10.56,10.56c-5.828,0 -10.56,-4.732 -10.56,-10.56c0,-5.828 4.732,-10.56 10.56,-10.56c5.828,0 10.56,4.732 10.56,10.56Z"/></clipPath><g clip-path="url(#_clip1)"><g id="Location"><g id="Map"><path d="M1.233,13.989l1.929,4.54l0.797,0.011l1.566,-4.382l-4.292,-0.169Z" style="fill:#f0ede5;fill-rule:nonzero;"/><path d="M8.654,5.395l-5.452,-0.076l-1.464,3.268l-0.772,4.111l5.081,0l2.607,-7.303Z" style="fill:#cbe6a3;fill-rule:nonzero;"/><path d="M10.313,1.31l-1.796,0.368l-3.507,1.595l-1.482,2.282l5.254,0.179l1.531,-4.424Z" style="fill:#cbe6a3;fill-rule:nonzero;"/><path d="M8.114,11.237l-2.607,7.303l7.372,0c0.686,-2.921 2.3,-5.477 4.016,-7.303l-8.781,0Z" style="fill:#e9e7e3;fill-rule:nonzero;"/><path d="M18.469,9.777c0.679,-0.537 2.746,-1.787 3.322,-2.028l-1.327,-2.338l-10.262,-0.016l-1.566,4.382l9.833,0Z" style="fill:#e9e7e3;fill-rule:nonzero;"/><path d="M8.258,22.549l4.9,0.338l3.925,-0.86l3.238,-2.921l-16.156,0.386l4.093,3.057" style="fill:#cbe6a3;fill-rule:nonzero;"/><path d="M14.387,18.54l5.922,0l-3.779,-4.531c-0.906,1.289 -1.694,2.826 -2.143,4.531" style="fill:#cbe6a3;fill-rule:nonzero;"/><path d="M22.463,8.799c-1.185,0.547 -4.173,3.024 -5.017,4.023l4.765,5.718l1.483,0l-1.231,-9.741Z" style="fill:#e9e7e3;fill-rule:nonzero;"/><path d="M8.114,11.237l-2.607,7.303l0.059,0l7.302,-7.303l-4.754,0Z" style="fill:#f0ede5;fill-rule:nonzero;"/><path d="M11.308,0.972l-2.672,8.805l5.693,0l5.456,-5.426l-2.946,-2.389l-5.531,-0.99Z" style="fill:#f0ede5;fill-rule:nonzero;"/><path d="M21.822,7.703c-1.56,0.84 -1.568,0.846 -3.353,2.074l-9.833,0l1.528,-4.35l10.547,-0.005l-1.133,-1.293l-9.05,-0.032l1.087,-2.803l-1.532,0.123l-0.986,2.674l-4.662,0.014l-0.907,1.315l5.119,0.009l-2.6,7.269l-4.85,0.015l0.067,1.43l4.261,0.015l-1.566,4.382l1.548,0l2.607,-7.303l8.781,0c-1.716,1.826 -3.33,4.382 -4.016,7.303l1.508,0c0.449,-1.705 1.237,-3.242 2.143,-4.531l3.779,4.531l1.902,0l-4.765,-5.718c0.844,-0.998 3.017,-2.862 4.925,-3.7" style="fill:#fff;fill-rule:nonzero;"/><rect x="2.927" y="18.518" width="18.555" height="1.459" style="fill:#fed89d;"/></g><g id="Pin"><path d="M12.002,3.955c1.339,0 2.425,1.085 2.425,2.425c0,1.339 -2.425,6.063 -2.425,6.063c0,0 -2.425,-4.724 -2.425,-6.063c0,-1.34 1.085,-2.425 2.425,-2.425" style="fill:#f75850;fill-rule:nonzero;"/><path d="M13.012,6.38c0,0.558 -0.452,1.01 -1.01,1.01c-0.558,0 -1.011,-0.452 -1.011,-1.01c0,-0.558 0.453,-1.011 1.011,-1.011c0.558,0 1.01,0.453 1.01,1.011" style="fill:#5c1410;fill-rule:nonzero;"/></g></g></g></svg>