<?xml version="1.0" encoding="UTF-8" standalone="no"?><!DOCTYPE svg PUBLIC "-//W3C//DTD SVG 1.1//EN" "http://www.w3.org/Graphics/SVG/1.1/DTD/svg11.dtd"><svg width="100%" height="100%" viewBox="0 0 24 24" version="1.1" xmlns="http://www.w3.org/2000/svg" xmlns:xlink="http://www.w3.org/1999/xlink" xml:space="preserve" xmlns:serif="http://www.serif.com/" style="fill-rule:evenodd;clip-rule:evenodd;stroke-linejoin:round;stroke-miterlimit:2;"><path d="M24,12c0,6.623 -5.377,12 -12,12c-6.623,0 -12,-5.377 -12,-12c0,-6.623 5.377,-12 12,-12c6.623,0 12,5.377 12,12Z" style="fill:#fff;"/><clipPath id="_clip1"><path d="M24,12c0,6.623 -5.377,12 -12,12c-6.623,0 -12,-5.377 -12,-12c0,-6.623 5.377,-12 12,-12c6.623,0 12,5.377 12,12Z"/></clipPath><g clip-path="url(#_clip1)"><clipPath id="_clip2"><path d="M28.411,16.379l-12,-20.785l-10.392,6l12,20.785l10.392,-6Z"/></clipPath><g clip-path="url(#_clip2)"><path d="M22.411,5.986c3.312,5.736 1.344,13.081 -4.392,16.393c-5.736,3.311 -13.081,1.343 -16.392,-4.393c-3.312,-5.735 -1.344,-13.081 4.392,-16.392c5.736,-3.312 13.081,-1.343 16.392,4.392Z" style="fill:#f4f8fc;"/></g><g><path d="M4.917,19.829l0,-0.474l-2.84,0c-0.124,0 -0.247,0.051 -0.335,0.138c-0.088,0.09 -0.139,0.211 -0.139,0.336l0,4.734c0,0.127 0.05,0.246 0.139,0.335c0.09,0.089 0.209,0.138 0.335,0.138l2.84,0c0.127,0 0.245,-0.049 0.335,-0.138c0.089,-0.089 0.139,-0.208 0.139,-0.335l0,-4.734c0,-0.125 -0.05,-0.246 -0.139,-0.336c-0.088,-0.087 -0.21,-0.138 -0.335,-0.138l0,0.474l-0.473,0l0.473,0.473l0,-0.473l-0.473,0l0.473,0Z" style="fill:#1c3752;fill-rule:nonzero;"/><path d="M10.599,15.094l0,-0.473l-2.841,0c-0.124,0 -0.246,0.05 -0.334,0.138c-0.088,0.089 -0.14,0.21 -0.14,0.335l0,9.469c0,0.127 0.051,0.246 0.14,0.335c0.09,0.089 0.208,0.138 0.334,0.138l2.841,0c0.126,0 0.245,-0.049 0.335,-0.138c0.089,-0.089 0.138,-0.208 0.138,-0.335l0,-9.469c0,-0.125 -0.05,-0.246 -0.138,-0.335c-0.088,-0.088 -0.21,-0.138 -0.335,-0.138l0,0.473l-0.474,0l0.474,0.474l0,-0.474l-0.474,0l0.474,0Z" style="fill:#649ace;fill-rule:nonzero;"/><path d="M16.28,16.988l0,-0.473l-2.841,0c-0.124,0 -0.246,0.05 -0.334,0.138c-0.088,0.089 -0.139,0.21 -0.139,0.335l0,7.575c0,0.127 0.05,0.246 0.139,0.335c0.09,0.089 0.208,0.138 0.334,0.138l2.841,0c0.127,0 0.245,-0.049 0.335,-0.138c0.089,-0.089 0.138,-0.208 0.138,-0.335l0,-7.575c0,-0.125 -0.05,-0.246 -0.138,-0.335c-0.088,-0.088 -0.21,-0.138 -0.335,-0.138l0,0.473l-0.474,0l0.474,0.473l0,-0.473l-0.474,0l0.474,0Z" style="fill:#1c3752;fill-rule:nonzero;"/><path d="M21.961,10.36l0,-0.474l-2.841,0c-0.124,0 -0.246,0.051 -0.334,0.139c-0.088,0.089 -0.139,0.21 -0.139,0.335l0,14.203c0,0.127 0.05,0.246 0.139,0.335c0.09,0.089 0.209,0.138 0.334,0.138l2.841,0c0.127,0 0.245,-0.049 0.335,-0.138c0.089,-0.089 0.139,-0.208 0.139,-0.335l0,-14.203c0,-0.125 -0.051,-0.246 -0.139,-0.335c-0.088,-0.088 -0.21,-0.139 -0.335,-0.139l0,0.474l-0.473,0l0.473,0.473l0,-0.473l-0.473,0l0.473,0Z" style="fill:#649ace;fill-rule:nonzero;"/><path d="M4.528,12.958l4.227,-3.523c0.201,-0.168 0.228,-0.466 0.061,-0.667c-0.168,-0.201 -0.466,-0.228 -0.667,-0.061l-4.227,3.524c-0.201,0.167 -0.228,0.467 -0.061,0.667c0.168,0.201 0.466,0.228 0.667,0.06Z" style="fill:#1c3752;fill-rule:nonzero;"/><path d="M9.924,9.213l3.915,1.305c0.248,0.083 0.517,-0.051 0.599,-0.299c0.083,-0.249 -0.051,-0.516 -0.299,-0.599l-3.915,-1.305c-0.249,-0.083 -0.516,0.052 -0.6,0.3c-0.082,0.248 0.052,0.516 0.3,0.598Z" style="fill:#1c3752;fill-rule:nonzero;"/><path d="M19.565,4.142l-4.449,5.19c-0.17,0.198 -0.147,0.497 0.051,0.668c0.199,0.17 0.498,0.147 0.668,-0.051l4.45,-5.191c0.17,-0.199 0.147,-0.498 -0.052,-0.668c-0.198,-0.17 -0.497,-0.147 -0.668,0.052Z" style="fill:#1c3752;fill-rule:nonzero;"/><path d="M4.917,13.2l-0.947,0c0,0.262 0.474,0 0.474,0l0.473,0c0,-0.785 -0.635,-1.42 -1.42,-1.42c-0.784,0 -1.419,0.635 -1.42,1.42c0.001,0.785 0.636,1.421 1.42,1.421c0.785,0 1.42,-0.636 1.42,-1.421Z" style="fill:#1c3752;fill-rule:nonzero;"/><path d="M10.125,8.466l-0.473,0c0,0.261 0,-0.262 0,0l0.947,0c0,-0.785 -0.636,-1.42 -1.421,-1.42c-0.784,0 -1.419,0.635 -1.42,1.42c0.001,0.785 0.636,1.42 1.42,1.42c0.785,0 1.421,-0.636 1.421,-1.42l-0.474,0Z" style="fill:#649ace;fill-rule:nonzero;"/><path d="M15.806,10.36l-0.473,0c0,0.261 0,-0.262 0,0l0.947,0c0,-0.785 -0.636,-1.421 -1.42,-1.421c-0.785,0 -1.42,0.636 -1.421,1.421c0.001,0.785 0.636,1.42 1.421,1.42c0.784,0 1.42,-0.636 1.42,-1.42l-0.474,0Z" style="fill:#1c3752;fill-rule:nonzero;"/><path d="M21.488,3.732l-0.474,0c0,0.261 0,-0.263 0,0l0.947,0c0,-0.785 -0.635,-1.421 -1.42,-1.421c-0.784,0 -1.42,0.636 -1.421,1.421c0.001,0.785 0.637,1.42 1.421,1.42c0.785,0 1.42,-0.636 1.42,-1.42l-0.473,0Z" style="fill:#649ace;fill-rule:nonzero;"/><path d="M1.13,25.036l21.778,0c0.262,0 0.473,-0.212 0.473,-0.473c0,-0.261 -0.211,-0.473 -0.473,-0.473l-21.778,0c-0.262,0 -0.474,0.212 -0.474,0.473c0,0.261 0.212,0.473 0.474,0.473Z" style="fill:#1c3752;fill-rule:nonzero;"/></g></g></svg>