<?xml version="1.0" encoding="UTF-8" standalone="no"?><!DOCTYPE svg PUBLIC "-//W3C//DTD SVG 1.1//EN" "http://www.w3.org/Graphics/SVG/1.1/DTD/svg11.dtd"><svg width="100%" height="100%" viewBox="0 0 97 49" version="1.1" xmlns="http://www.w3.org/2000/svg" xmlns:xlink="http://www.w3.org/1999/xlink" xml:space="preserve" xmlns:serif="http://www.serif.com/" style="fill-rule:evenodd;clip-rule:evenodd;stroke-linecap:round;stroke-linejoin:round;stroke-miterlimit:2;"><g id="Row-1---2" serif:id="Row 1 &amp; 2" opacity="0.05"><g id="Content-Writer" serif:id="Content Writer"><path d="M83.576,30.996l7.097,0" style="fill:none;stroke:#030404;stroke-width:0.6px;"/><rect x="83.576" y="32.931" width="3.226" height="3.871" style="fill:none;stroke:#030404;stroke-width:0.6px;"/><path d="M88.737,34.222l1.936,0" style="fill:none;stroke:#030404;stroke-width:0.6px;"/><path d="M88.092,35.512l2.581,0" style="fill:none;stroke:#030404;stroke-width:0.6px;"/><path d="M88.092,36.803l2.581,0" style="fill:none;stroke:#030404;stroke-width:0.6px;"/><path d="M83.576,38.093l7.097,0" style="fill:none;stroke:#030404;stroke-width:0.6px;"/><path d="M83.576,39.383l7.097,0" style="fill:none;stroke:#030404;stroke-width:0.6px;"/><path d="M83.576,40.674l7.097,0" style="fill:none;stroke:#030404;stroke-width:0.6px;"/><path d="M93.899,32.286l1.291,0l0,9.678c0,0.356 -0.289,0.646 -0.646,0.646c-0.355,0 -0.645,-0.29 -0.645,-0.646l0,-11.936l-1.29,0l0,1.29" style="fill:none;stroke:#030404;stroke-width:0.6px;"/><path d="M94.544,43.9l-10.968,0c-1.069,0 -1.936,-0.866 -1.936,-1.936l0,-12.904l10.969,0l0,12.904c0,1.07 0.867,1.936 1.935,1.936c1.07,0 1.936,-0.866 1.936,-1.936l0,-10.968l-2.581,0" style="fill:none;stroke:#030404;stroke-width:0.6px;"/></g><g id="Director"><path d="M60.802,32.037l0,-7.557" style="fill:none;stroke:#030404;stroke-width:0.7px;"/><path d="M69.732,32.037l0,-7.557" style="fill:none;stroke:#030404;stroke-width:0.7px;"/><rect x="60.802" y="25.167" width="8.93" height="3.435" style="fill:none;stroke:#030404;stroke-width:0.7px;"/><path d="M69.732,32.037l-8.93,0l-1.374,2.06l11.678,0l-1.374,-2.06Z" style="fill:none;stroke:#030404;stroke-width:0.7px;"/><path d="M59.428,34.097l0,-3.434" style="fill:none;stroke:#030404;stroke-width:0.7px;"/><path d="M60.802,30.663l-2.748,0" style="fill:none;stroke:#030404;stroke-width:0.7px;"/><path d="M71.106,34.097l0,-3.434" style="fill:none;stroke:#030404;stroke-width:0.7px;"/><path d="M69.732,30.663l2.748,0" style="fill:none;stroke:#030404;stroke-width:0.7px;"/><path d="M60.458,34.097l9.961,6.183" style="fill:none;stroke:#030404;stroke-width:0.7px;"/><path d="M70.076,34.097l-9.961,6.183" style="fill:none;stroke:#030404;stroke-width:0.7px;"/></g><g id="Design"><path d="M35.049,43.137l0.235,-0.236c-1.434,-1.434 -2.149,-3.311 -2.15,-5.19c0.001,-1.88 0.716,-3.756 2.15,-5.19c1.434,-1.433 3.311,-2.148 5.189,-2.149c1.88,0.001 3.756,0.716 5.19,2.149c1.434,1.434 2.149,3.311 2.15,5.19c-0.001,1.88 -0.717,3.756 -2.15,5.19c-0.652,0.652 -1.504,0.977 -2.359,0.978c-0.855,-0.001 -1.706,-0.326 -2.359,-0.978l-2.83,-2.831c-0.195,-0.195 -0.453,-0.294 -0.708,-0.293c-0.255,-0.001 -0.513,0.098 -0.708,0.293c-0.194,0.195 -0.293,0.453 -0.292,0.708c-0.001,0.255 0.098,0.513 0.293,0.708c0.196,0.195 0.292,0.449 0.293,0.707c-0.001,0.257 -0.097,0.511 -0.294,0.709c-0.195,0.196 -0.45,0.292 -0.707,0.293c-0.257,-0.001 -0.512,-0.097 -0.708,-0.294l-0.235,0.236l-0.237,0.236c0.325,0.324 0.754,0.489 1.18,0.488c0.426,0.001 0.855,-0.163 1.179,-0.488c0.325,-0.327 0.489,-0.755 0.489,-1.18c0,-0.427 -0.164,-0.855 -0.489,-1.18c-0.066,-0.066 -0.097,-0.149 -0.097,-0.235c0,-0.087 0.031,-0.17 0.098,-0.236c0.066,-0.066 0.148,-0.097 0.235,-0.098c0.087,0.001 0.17,0.032 0.236,0.098l2.83,2.831c0.782,0.78 1.808,1.173 2.831,1.172c1.024,0.001 2.05,-0.391 2.831,-1.172c1.562,-1.563 2.345,-3.614 2.345,-5.662c0,-2.048 -0.783,-4.099 -2.345,-5.661c-1.563,-1.563 -3.614,-2.345 -5.662,-2.345c-2.047,0 -4.098,0.782 -5.661,2.345c-1.562,1.561 -2.345,3.613 -2.345,5.661c0,2.048 0.783,4.099 2.345,5.662l0.237,-0.236Z" style="fill:#030404;fill-rule:nonzero;"/><path d="M44.011,35.117l-0.235,-0.237c-0.131,0.131 -0.3,0.195 -0.472,0.196c-0.172,-0.001 -0.342,-0.065 -0.472,-0.196c-0.131,-0.13 -0.195,-0.299 -0.195,-0.471c0,-0.172 0.065,-0.341 0.194,-0.47l0.001,-0.001c0.132,-0.132 0.301,-0.196 0.472,-0.197c0.172,0.001 0.34,0.065 0.471,0.197l0.001,0.001c0.131,0.13 0.195,0.298 0.195,0.47c0,0.171 -0.064,0.341 -0.195,0.472l0.235,0.236l0.236,0.235c0.26,-0.259 0.391,-0.602 0.391,-0.943c0,-0.34 -0.131,-0.684 -0.391,-0.943l0.001,0.001c-0.259,-0.261 -0.604,-0.393 -0.944,-0.392c-0.341,-0.001 -0.684,0.131 -0.944,0.391l0.001,0c-0.261,0.258 -0.392,0.602 -0.391,0.943c-0.001,0.34 0.13,0.684 0.391,0.944c0.259,0.259 0.603,0.39 0.943,0.389c0.34,0.001 0.683,-0.13 0.943,-0.389l-0.236,-0.236Z" style="fill:#030404;fill-rule:nonzero;"/><path d="M44.672,38.183l0.236,-0.236c-0.066,-0.066 -0.097,-0.15 -0.098,-0.236c0.001,-0.087 0.033,-0.17 0.097,-0.235c0.067,-0.067 0.15,-0.098 0.236,-0.099c0.088,0.001 0.171,0.032 0.236,0.098c0.067,0.066 0.098,0.15 0.098,0.236c0,0.085 -0.031,0.169 -0.099,0.236l0.002,0c-0.066,0.066 -0.15,0.097 -0.237,0.098c-0.086,-0.001 -0.169,-0.033 -0.235,-0.098l-0.236,0.236l-0.236,0.236c0.194,0.194 0.452,0.293 0.707,0.292c0.256,0.001 0.514,-0.098 0.708,-0.292l0.001,-0.001c0.194,-0.195 0.293,-0.452 0.292,-0.707c0.001,-0.255 -0.098,-0.513 -0.293,-0.708c-0.194,-0.195 -0.453,-0.293 -0.708,-0.292c-0.254,-0.001 -0.513,0.098 -0.707,0.292c-0.195,0.195 -0.293,0.453 -0.293,0.708c0,0.254 0.098,0.513 0.293,0.708l0.236,-0.236Z" style="fill:#030404;fill-rule:nonzero;"/><path d="M42.361,41.958l0.235,-0.236c-0.195,-0.197 -0.292,-0.451 -0.293,-0.708c0.001,-0.258 0.098,-0.513 0.293,-0.708c0.196,-0.196 0.451,-0.293 0.708,-0.294c0.258,0.001 0.511,0.098 0.707,0.293c0.196,0.197 0.293,0.451 0.294,0.708c-0.001,0.257 -0.098,0.512 -0.294,0.709c-0.195,0.195 -0.45,0.291 -0.707,0.292c-0.257,-0.001 -0.512,-0.097 -0.708,-0.292l-0.235,0.236l-0.236,0.236c0.324,0.324 0.753,0.488 1.179,0.487c0.425,0.001 0.854,-0.163 1.179,-0.487c0.325,-0.326 0.489,-0.755 0.489,-1.181c0,-0.426 -0.163,-0.855 -0.489,-1.179c-0.324,-0.325 -0.754,-0.489 -1.179,-0.488c-0.426,-0.001 -0.855,0.163 -1.179,0.488c-0.325,0.324 -0.489,0.753 -0.489,1.18c0,0.425 0.164,0.854 0.489,1.179l0.236,-0.235Z" style="fill:#030404;fill-rule:nonzero;"/><path d="M40.001,32.994l-0.236,0.235c0.131,0.132 0.195,0.3 0.196,0.473c-0.001,0.17 -0.065,0.339 -0.196,0.47c-0.13,0.131 -0.3,0.195 -0.471,0.196c-0.172,-0.001 -0.34,-0.065 -0.471,-0.196c-0.132,-0.131 -0.196,-0.3 -0.196,-0.471c0,-0.172 0.064,-0.341 0.195,-0.471l0.001,-0.001c0.131,-0.131 0.299,-0.194 0.471,-0.195c0.172,0.001 0.34,0.064 0.471,0.195l0.236,-0.235l0.236,-0.236c-0.259,-0.26 -0.602,-0.392 -0.943,-0.391c-0.34,-0.001 -0.683,0.13 -0.944,0.391l0.002,-0.001c-0.261,0.259 -0.393,0.603 -0.393,0.944c0,0.34 0.132,0.684 0.392,0.943c0.259,0.26 0.603,0.392 0.943,0.391c0.34,0.001 0.684,-0.131 0.943,-0.391c0.26,-0.26 0.391,-0.603 0.391,-0.942c0,-0.341 -0.131,-0.685 -0.391,-0.944l-0.236,0.236Z" style="fill:#030404;fill-rule:nonzero;"/></g><g id="Product-Lead---left" serif:id="Product Lead - left"><path d="M24.48,39.32l-0.014,-12.801l-4.5,-2.039l-5.781,2.025l-4.571,-2.025l0.013,12.802l4.548,2.024l5.791,-2.024l4.514,2.038Z" style="fill:none;stroke:#030404;stroke-width:0.6px;stroke-linecap:butt;"/><path d="M10.905,26.693l0,9.724l3.27,1.295l5.791,-1.941l3.209,1.265l0,-9.394l-3.209,-1.56l-5.781,1.937l-3.28,-1.326Z" style="fill:none;stroke:#030404;stroke-width:0.6px;stroke-linecap:butt;"/><path d="M18.654,29.942l0,-3.421" style="fill:none;stroke:#030404;stroke-width:0.6px;"/><path d="M10.905,33.41l3.33,1.219l2.482,-0.852l0,3.083" style="fill:none;stroke:#030404;stroke-width:0.6px;"/><path d="M18.654,36.211l0,-3.04l1.238,-0.592l3.283,1.265" style="fill:none;stroke:#030404;stroke-width:0.6px;"/><path d="M10.905,29.276l3.229,1.292l2.563,-0.646" style="fill:none;stroke:#030404;stroke-width:0.6px;"/><path d="M12.197,29.793l0,-1.143" style="fill:none;stroke:#030404;stroke-width:0.6px;"/><path d="M14.78,30.405l0,-1.109" style="fill:none;stroke:#030404;stroke-width:0.6px;"/><path d="M13.488,30.309l0,-1.013" style="fill:none;stroke:#030404;stroke-width:0.6px;"/></g><g id="Support"><path d="M76.815,13.448l-4.335,0l0,-1.936l4.326,0" style="fill:none;stroke:#030404;stroke-width:0.7px;"/><path d="M80.868,15.555l0,4.345l-1.936,0l0,-4.345" style="fill:none;stroke:#030404;stroke-width:0.7px;"/><path d="M82.975,11.512l4.345,0l0,1.936l-4.355,0" style="fill:none;stroke:#030404;stroke-width:0.7px;"/><path d="M78.932,9.395l0,-4.335l1.936,0l0,4.345" style="fill:none;stroke:#030404;stroke-width:0.7px;"/><path d="M83.126,12.48c0,1.782 -1.445,3.226 -3.226,3.226c-1.782,0 -3.226,-1.444 -3.226,-3.226c0,-1.782 1.444,-3.226 3.226,-3.226c1.781,0 3.226,1.444 3.226,3.226Z" style="fill:none;stroke:#030404;stroke-width:0.7px;"/><path d="M80.868,5.774c2.967,0.426 5.314,2.771 5.738,5.738" style="fill:none;stroke:#030404;stroke-width:0.7px;"/><path d="M73.194,11.512c0.424,-2.967 2.771,-5.312 5.738,-5.738" style="fill:none;stroke:#030404;stroke-width:0.7px;"/><path d="M78.932,19.186c-2.967,-0.424 -5.314,-2.771 -5.738,-5.738" style="fill:none;stroke:#030404;stroke-width:0.7px;"/><path d="M86.606,13.448c-0.424,2.967 -2.771,5.314 -5.738,5.738" style="fill:none;stroke:#030404;stroke-width:0.7px;"/></g><g id="Marketing"><path d="M62.392,4.257l0,-0.309l-13.294,0l0,-1.237l12.985,0l0,1.546l0.309,0l0,-0.309l0,0.309l0.31,0l0,-1.855c0,-0.081 -0.033,-0.16 -0.091,-0.219c-0.057,-0.057 -0.137,-0.09 -0.219,-0.09l-13.603,0c-0.081,0 -0.161,0.033 -0.218,0.09c-0.058,0.059 -0.091,0.138 -0.091,0.219l0,1.855c0,0.083 0.033,0.161 0.091,0.219c0.059,0.058 0.136,0.09 0.218,0.09l13.603,0c0.083,0 0.161,-0.032 0.219,-0.09c0.059,-0.058 0.091,-0.136 0.091,-0.219l-0.31,0Z" style="fill:#030404;fill-rule:nonzero;"/><path d="M48.802,13.223l13.578,0c0.171,0 0.309,-0.139 0.309,-0.309c0,-0.171 -0.138,-0.309 -0.309,-0.309l-13.578,0c-0.171,0 -0.309,0.138 -0.309,0.309c0,0.17 0.138,0.309 0.309,0.309Z" style="fill:#030404;fill-rule:nonzero;"/><path d="M61.156,4.257l0,-0.309l-11.13,0c-0.081,0 -0.161,0.033 -0.218,0.09c-0.058,0.059 -0.091,0.138 -0.091,0.219l0,8.657c0,0.083 0.032,0.16 0.091,0.219c0.058,0.058 0.136,0.09 0.218,0.09l11.13,0c0.083,0 0.16,-0.032 0.219,-0.09c0.058,-0.059 0.09,-0.136 0.09,-0.219l0,-8.657c0,-0.081 -0.033,-0.16 -0.09,-0.219c-0.058,-0.057 -0.138,-0.09 -0.219,-0.09l0,0.309l-0.309,0l0,8.348l-10.512,0l0,-8.039l10.821,0l0,-0.309l-0.309,0l0.309,0Z" style="fill:#030404;fill-rule:nonzero;"/><path d="M55.282,12.914l0,1.817l0.618,0l0,-1.817" style="fill:#030404;fill-rule:nonzero;"/><path d="M56.518,15.696l-0.309,0c0,0.342 -0.277,0.618 -0.618,0.619c-0.341,-0.001 -0.618,-0.277 -0.619,-0.619c0.001,-0.34 0.278,-0.617 0.619,-0.618c0.341,0.001 0.618,0.278 0.618,0.618l0.618,0c0,-0.682 -0.553,-1.236 -1.236,-1.236c-0.683,0 -1.236,0.554 -1.237,1.236c0.001,0.684 0.554,1.237 1.237,1.237c0.683,0 1.236,-0.553 1.236,-1.237l-0.309,0Z" style="fill:#030404;fill-rule:nonzero;"/><path d="M56.209,8.586l-0.309,0c-0.002,1.194 -0.969,2.161 -2.164,2.164c-1.195,-0.003 -2.162,-0.97 -2.164,-2.164c0.002,-1.195 0.969,-2.162 2.164,-2.165c1.195,0.003 2.162,0.97 2.164,2.165l0.618,0c0,-1.538 -1.245,-2.783 -2.782,-2.783c-1.537,0 -2.782,1.245 -2.783,2.783c0.001,1.537 1.246,2.782 2.783,2.782c1.537,0 2.782,-1.245 2.782,-2.782l-0.309,0Z" style="fill:#030404;fill-rule:nonzero;"/><path d="M52.241,6.591l1.226,2.148c0.056,0.096 0.158,0.156 0.269,0.156l2.473,0c0.171,0 0.309,-0.139 0.309,-0.309c0,-0.171 -0.138,-0.31 -0.309,-0.31l-2.293,0l-1.139,-1.991c-0.084,-0.149 -0.273,-0.2 -0.421,-0.115c-0.149,0.084 -0.2,0.273 -0.115,0.421Z" style="fill:#030404;fill-rule:nonzero;"/><path d="M53.431,8.636l0.407,2.44c0.029,0.168 0.188,0.282 0.357,0.254c0.168,-0.028 0.282,-0.187 0.254,-0.356l-0.408,-2.439c-0.028,-0.169 -0.188,-0.283 -0.356,-0.254c-0.168,0.027 -0.282,0.187 -0.254,0.355Z" style="fill:#030404;fill-rule:nonzero;"/><path d="M58.077,6.421l1.816,0c0.171,0 0.309,-0.138 0.309,-0.309c0,-0.17 -0.138,-0.309 -0.309,-0.309l-1.816,0c-0.171,0 -0.309,0.139 -0.309,0.309c0,0.171 0.138,0.309 0.309,0.309Z" style="fill:#030404;fill-rule:nonzero;"/><path d="M58.077,7.658l1.816,0c0.171,0 0.309,-0.139 0.309,-0.309c0,-0.171 -0.138,-0.309 -0.309,-0.309l-1.816,0c-0.171,0 -0.309,0.138 -0.309,0.309c0,0.17 0.138,0.309 0.309,0.309Z" style="fill:#030404;fill-rule:nonzero;"/><path d="M58.077,8.895l1.816,0c0.171,0 0.309,-0.139 0.309,-0.309c0,-0.171 -0.138,-0.31 -0.309,-0.31l-1.816,0c-0.171,0 -0.309,0.139 -0.309,0.31c0,0.17 0.138,0.309 0.309,0.309Z" style="fill:#030404;fill-rule:nonzero;"/></g><g id="Admin"><path d="M34.064,19.591l0,-0.309l-7.111,0l0,-9.894l6.802,0l0,10.203l0.309,0l0,-0.309l0,0.309l0.309,0l0,-10.512c0,-0.083 -0.032,-0.16 -0.09,-0.218c-0.059,-0.059 -0.136,-0.091 -0.219,-0.091l-7.42,0c-0.081,0 -0.161,0.033 -0.218,0.09c-0.058,0.059 -0.091,0.138 -0.091,0.219l0,10.512c0,0.083 0.032,0.16 0.091,0.219c0.059,0.058 0.136,0.09 0.218,0.09l7.42,0c0.083,0 0.16,-0.032 0.219,-0.09c0.058,-0.059 0.09,-0.136 0.09,-0.219l-0.309,0Z" style="fill:#030404;fill-rule:nonzero;"/><path d="M26.644,14.953l-1.546,0l0,-7.729c0.002,-0.854 0.692,-1.544 1.546,-1.546c0.854,0.002 1.545,0.692 1.546,1.546c-0.001,0.854 -0.692,1.544 -1.546,1.546l0,0.309l0.309,0l0,-0.928l1.418,0.001c0.17,0 0.309,-0.139 0.309,-0.309c0,-0.171 -0.139,-0.309 -0.309,-0.309l-1.727,-0.001c-0.081,0 -0.161,0.033 -0.218,0.091c-0.058,0.058 -0.091,0.137 -0.091,0.219l0,1.236c0,0.083 0.032,0.161 0.091,0.219c0.059,0.058 0.136,0.09 0.218,0.09c1.196,0 2.164,-0.969 2.164,-2.164c0,-1.195 -0.968,-2.164 -2.164,-2.164c-1.195,0 -2.163,0.969 -2.164,2.164l0,8.038c0,0.083 0.032,0.161 0.091,0.219c0.059,0.059 0.136,0.091 0.218,0.091l1.855,0c0.171,0 0.309,-0.139 0.309,-0.31c0,-0.17 -0.138,-0.308 -0.309,-0.308l0,-0.001Z" style="fill:#030404;fill-rule:nonzero;"/><path d="M34.064,9.388c1.196,0 2.164,-0.969 2.164,-2.164c0,-1.195 -0.968,-2.164 -2.164,-2.164l-7.42,0c-0.17,0 -0.309,0.139 -0.309,0.309c0,0.171 0.139,0.309 0.309,0.309l7.42,0c0.854,0.002 1.545,0.692 1.546,1.546c-0.001,0.854 -0.692,1.544 -1.546,1.546c-0.17,0 -0.309,0.139 -0.309,0.309c0,0.171 0.139,0.309 0.309,0.309Z" style="fill:#030404;fill-rule:nonzero;"/><path d="M30.354,11.862l2.473,0c0.172,0 0.31,-0.139 0.31,-0.309c0,-0.171 -0.138,-0.31 -0.31,-0.31l-2.473,0c-0.17,0 -0.309,0.139 -0.309,0.31c0,0.17 0.139,0.309 0.309,0.309Z" style="fill:#030404;fill-rule:nonzero;"/><path d="M30.354,14.335l2.473,0c0.172,0 0.31,-0.139 0.31,-0.309c0,-0.171 -0.138,-0.309 -0.31,-0.309l-2.473,0c-0.17,0 -0.309,0.138 -0.309,0.309c0,0.17 0.139,0.309 0.309,0.309Z" style="fill:#030404;fill-rule:nonzero;"/><path d="M30.354,16.808l2.473,0c0.172,0 0.31,-0.138 0.31,-0.309c0,-0.17 -0.138,-0.309 -0.31,-0.309l-2.473,0c-0.17,0 -0.309,0.139 -0.309,0.309c0,0.171 0.139,0.309 0.309,0.309Z" style="fill:#030404;fill-rule:nonzero;"/><path d="M27.663,11.462l0.309,0.309c0.058,0.059 0.136,0.091 0.218,0.091c0.083,0 0.16,-0.032 0.219,-0.091l1.237,-1.236c0.12,-0.121 0.12,-0.317 0,-0.437c-0.121,-0.122 -0.317,-0.122 -0.438,0l-1.018,1.017l-0.09,-0.091c-0.121,-0.12 -0.317,-0.12 -0.438,0.001c-0.121,0.121 -0.121,0.317 0.001,0.437Z" style="fill:#030404;fill-rule:nonzero;"/><path d="M27.663,13.936l0.309,0.309c0.058,0.058 0.136,0.09 0.218,0.09c0.083,0 0.16,-0.032 0.219,-0.09l1.237,-1.237c0.12,-0.121 0.12,-0.317 0,-0.437c-0.121,-0.121 -0.317,-0.121 -0.438,0l-1.018,1.017l-0.09,-0.09c-0.121,-0.121 -0.317,-0.121 -0.438,0c-0.121,0.121 -0.121,0.317 0.001,0.438Z" style="fill:#030404;fill-rule:nonzero;"/><path d="M39.011,18.663l-0.309,0c-0.001,0.342 -0.277,0.618 -0.619,0.619c-0.341,-0.001 -0.617,-0.277 -0.618,-0.619l0,-8.965c0.001,-0.342 0.278,-0.618 0.618,-0.619c0.342,0.001 0.618,0.277 0.619,0.619l0,8.965l0.618,0l0,-8.965c0,-0.684 -0.553,-1.237 -1.237,-1.237c-0.682,0 -1.236,0.553 -1.236,1.237l0,8.965c0,0.684 0.554,1.237 1.236,1.237c0.684,0 1.237,-0.553 1.237,-1.237l-0.309,0Z" style="fill:#030404;fill-rule:nonzero;"/><path d="M37.156,18.663l1.855,0c0.171,0 0.309,-0.138 0.309,-0.309c0,-0.17 -0.138,-0.309 -0.309,-0.309l-1.855,0c-0.171,0 -0.309,0.139 -0.309,0.309c0,0.171 0.138,0.309 0.309,0.309Z" style="fill:#030404;fill-rule:nonzero;"/><path d="M37.156,14.335l1.855,0c0.171,0 0.309,-0.139 0.309,-0.309c0,-0.171 -0.138,-0.309 -0.309,-0.309l-1.855,0c-0.171,0 -0.309,0.138 -0.309,0.309c0,0.17 0.138,0.309 0.309,0.309Z" style="fill:#030404;fill-rule:nonzero;"/><path d="M36.228,14.953l0,-4.637c0.001,-0.341 0.278,-0.618 0.619,-0.618l0.309,0c0.171,0 0.309,-0.139 0.309,-0.31c0,-0.17 -0.138,-0.309 -0.309,-0.309l-0.309,0c-0.683,0 -1.236,0.554 -1.237,1.237l0,4.637c0,0.171 0.139,0.309 0.309,0.309c0.171,0 0.309,-0.138 0.309,-0.309Z" style="fill:#030404;fill-rule:nonzero;"/></g><g id="Developer---left" serif:id="Developer - left"><rect x="0.48" y="9.41" width="15.113" height="6.87" style="fill:none;stroke:#000;stroke-width:0.6px;"/><path d="M8.38,0.48c0,0.569 0.462,1.374 1.03,1.374l4.466,0c1.328,0 2.404,0.733 2.404,2.061c0,1.328 -1.076,2.061 -2.404,2.061l-9.274,0c-1.138,0 -2.061,1.266 -2.061,2.404l0,1.03" style="fill:none;stroke:#000;stroke-width:0.6px;"/><rect x="3.228" y="14.906" width="9.617" height="1.374" style="fill:none;stroke:#000;stroke-width:0.6px;"/><path d="M1.854,10.784l12.365,0" style="fill:none;stroke:#000;stroke-width:0.6px;"/><path d="M1.854,12.158l12.365,0" style="fill:none;stroke:#000;stroke-width:0.6px;"/><path d="M1.854,13.532l12.365,0" style="fill:none;stroke:#000;stroke-width:0.6px;"/></g></g></svg>