<?xml version="1.0" encoding="UTF-8" standalone="no"?><!DOCTYPE svg PUBLIC "-//W3C//DTD SVG 1.1//EN" "http://www.w3.org/Graphics/SVG/1.1/DTD/svg11.dtd"><svg width="100%" height="100%" viewBox="0 0 24 24" version="1.1" xmlns="http://www.w3.org/2000/svg" xmlns:xlink="http://www.w3.org/1999/xlink" xml:space="preserve" xmlns:serif="http://www.serif.com/" style="fill-rule:evenodd;clip-rule:evenodd;stroke-linejoin:round;stroke-miterlimit:2;"><circle cx="12" cy="12" r="11.52" style="fill:#e1ebf2;"/><path id="Toast" d="M22.56,12c0,5.828 -4.732,10.56 -10.56,10.56c-5.828,0 -10.56,-4.732 -10.56,-10.56c0,-5.828 4.732,-10.56 10.56,-10.56c5.828,0 10.56,4.732 10.56,10.56Z" style="fill:#a17cc2;"/><clipPath id="_clip1"><path d="M22.56,12c0,5.828 -4.732,10.56 -10.56,10.56c-5.828,0 -10.56,-4.732 -10.56,-10.56c0,-5.828 4.732,-10.56 10.56,-10.56c5.828,0 10.56,4.732 10.56,10.56Z"/></clipPath><g clip-path="url(#_clip1)"><g id="Champagne"><path d="M20.927,21.556c-0.83,0.255 -1.987,0.47 -2.47,-1.014l-1.036,-3.177c-0.038,-0.117 0.002,-0.245 0.099,-0.32c0.758,-0.581 1.107,-1.596 0.794,-2.556l-2.785,-8.548c-0.049,-0.152 -0.213,-0.235 -0.365,-0.185l-3.86,1.257c-0.153,0.05 -0.236,0.214 -0.186,0.366l2.785,8.547c0.312,0.96 1.192,1.575 2.147,1.599c0.123,0.002 0.23,0.083 0.268,0.199l1.036,3.178c0.483,1.483 -0.579,1.991 -1.399,2.275c-0.142,0.049 -0.235,0.2 -0.178,0.373c0.049,0.153 0.213,0.236 0.365,0.186l4.963,-1.617c0.153,-0.049 0.236,-0.213 0.186,-0.365c-0.056,-0.172 -0.22,-0.241 -0.364,-0.198" style="fill:#e1ebf2;fill-rule:nonzero;"/><path d="M15.164,5.756c0.152,-0.05 0.316,0.033 0.365,0.186l2.785,8.547c0.313,0.96 -0.036,1.975 -0.794,2.556c-0.097,0.075 -0.137,0.203 -0.099,0.32l1.036,3.177c0.483,1.484 1.64,1.269 2.47,1.014c0.143,-0.044 0.307,0.024 0.364,0.198c0.05,0.152 -0.033,0.316 -0.186,0.365l-2.506,0.817l-5.045,-16.656l1.61,-0.524Z" style="fill:#e1ebf2;fill-rule:nonzero;"/><g id="Right-glass-glare" serif:id="Right glass glare"><path d="M11.277,7.008c-0.152,0.05 -0.235,0.214 -0.184,0.366l1.83,5.531l2.453,-0.65l-1.871,-5.81l-2.228,0.563Z" style="fill:#fff;fill-rule:nonzero;"/><path d="M11.277,7.008c-0.152,0.05 -0.235,0.214 -0.184,0.366l2.017,6.096l1.799,-1.152l-1.27,0.521l-1.818,-5.399l1.997,-0.627l-0.148,-0.557l-2.393,0.752Z" style="fill:#e1ebf2;fill-rule:nonzero;"/></g><path d="M16.835,17.422c-1.218,0.398 -2.529,-0.27 -2.926,-1.487l-1.038,-3.187c0.319,-0.32 0.855,-0.682 1.667,-0.682c0.989,0 2.114,-0.269 2.729,-0.809l1.055,3.239c0.395,1.218 -0.269,2.529 -1.487,2.926" style="fill:#f7e7ce;fill-rule:nonzero;"/><path d="M14.82,13.571c0,0.16 -0.129,0.29 -0.29,0.29c-0.16,0 -0.29,-0.13 -0.29,-0.29c0,-0.16 0.13,-0.29 0.29,-0.29c0.161,0 0.29,0.13 0.29,0.29" style="fill:#e3d3ba;fill-rule:nonzero;"/><path d="M15.4,15.601c0,0.16 -0.129,0.29 -0.29,0.29c-0.16,0 -0.29,-0.13 -0.29,-0.29c0,-0.161 0.13,-0.29 0.29,-0.29c0.161,0 0.29,0.129 0.29,0.29" style="fill:#e3d3ba;fill-rule:nonzero;"/><path d="M17.267,11.257l1.056,3.239c0.385,1.19 -0.242,2.467 -1.407,2.895l-1.606,-5.378c0.757,-0.102 1.499,-0.354 1.957,-0.756" style="fill:#e3d3ba;fill-rule:nonzero;"/><path d="M17.536,13.861c0,0.32 -0.26,0.58 -0.58,0.58c-0.321,0 -0.58,-0.26 -0.58,-0.58c0,-0.32 0.259,-0.58 0.58,-0.58c0.32,0 0.58,0.26 0.58,0.58" style="fill:#d5c5ac;fill-rule:nonzero;"/><path d="M3.124,21.556c0.831,0.255 1.987,0.47 2.471,-1.014l1.035,-3.177c0.038,-0.117 -0.001,-0.245 -0.099,-0.32c-0.758,-0.581 -1.106,-1.596 -0.794,-2.556l2.785,-8.548c0.05,-0.152 0.214,-0.235 0.366,-0.185l3.86,1.257c0.152,0.05 0.235,0.214 0.186,0.366l-2.785,8.547c-0.313,0.96 -1.192,1.575 -2.147,1.599c-0.123,0.002 -0.231,0.083 -0.269,0.199l-1.035,3.178c-0.484,1.483 0.578,1.991 1.399,2.275c0.142,0.049 0.234,0.2 0.178,0.373c-0.05,0.153 -0.213,0.236 -0.366,0.186l-4.963,-1.617c-0.152,-0.049 -0.235,-0.213 -0.186,-0.365c0.056,-0.172 0.221,-0.241 0.364,-0.198" style="fill:#e1ebf2;fill-rule:nonzero;"/><path d="M8.687,12.26l-2.007,-0.665l-0.943,2.894c-0.312,0.96 0.037,1.975 0.794,2.556c0.098,0.075 0.137,0.203 0.099,0.32l-1.035,3.177c-0.484,1.484 -1.641,1.269 -2.471,1.014c-0.142,-0.044 -0.307,0.024 -0.363,0.198c-0.05,0.152 0.033,0.316 0.185,0.365l2.506,0.817l3.235,-10.676Z" style="fill:#e1ebf2;fill-rule:nonzero;"/><g id="Left-glass-glare" serif:id="Left glass glare"><path d="M8.888,5.756c-0.153,-0.05 -0.316,0.033 -0.366,0.186l-1.805,5.539l1.966,0.791l1.815,-5.992l-1.61,-0.524Z" style="fill:#fff;fill-rule:nonzero;"/><path d="M8.888,5.756c-0.153,-0.05 -0.316,0.033 -0.366,0.186l-1.989,6.105l2.132,0.139l-1.332,-0.334l1.736,-5.426l1.258,0.42l0.171,-0.566l-1.61,-0.524Z" style="fill:#e1ebf2;fill-rule:nonzero;"/></g><path d="M7.217,17.422c1.218,0.398 2.528,-0.27 2.926,-1.487l1.038,-3.187c-0.319,-0.32 -0.856,-0.682 -1.668,-0.682c-0.988,0 -2.114,-0.269 -2.728,-0.809l-1.056,3.239c-0.394,1.218 0.27,2.529 1.488,2.926" style="fill:#e3d3ba;fill-rule:nonzero;"/><path d="M9.231,13.571c0,0.16 0.13,0.29 0.29,0.29c0.16,0 0.29,-0.13 0.29,-0.29c0,-0.16 -0.13,-0.29 -0.29,-0.29c-0.16,0 -0.29,0.13 -0.29,0.29" style="fill:#d5c5ac;fill-rule:nonzero;"/><path d="M8.651,15.601c0,0.16 0.13,0.29 0.29,0.29c0.16,0 0.29,-0.13 0.29,-0.29c0,-0.161 -0.13,-0.29 -0.29,-0.29c-0.16,0 -0.29,0.129 -0.29,0.29" style="fill:#d5c5ac;fill-rule:nonzero;"/><path d="M5.811,10.028c-0.579,0.153 -0.945,0.519 -1.098,1.098c-0.022,0.085 -0.141,0.085 -0.164,0c-0.153,-0.579 -0.519,-0.945 -1.098,-1.098c-0.085,-0.022 -0.085,-0.142 0,-0.164c0.579,-0.153 0.945,-0.519 1.098,-1.098c0.023,-0.085 0.142,-0.085 0.164,0c0.153,0.579 0.519,0.945 1.098,1.098c0.085,0.022 0.085,0.142 0,0.164" style="fill:#f4ebac;fill-rule:nonzero;"/><path d="M19.781,7.083c-0.579,0.153 -0.945,0.519 -1.098,1.098c-0.023,0.085 -0.142,0.085 -0.164,0c-0.153,-0.579 -0.519,-0.945 -1.098,-1.098c-0.086,-0.023 -0.086,-0.142 0,-0.164c0.579,-0.153 0.945,-0.519 1.098,-1.099c0.022,-0.085 0.141,-0.085 0.164,0c0.153,0.58 0.519,0.946 1.098,1.099c0.085,0.022 0.085,0.141 0,0.164" style="fill:#f4ebac;fill-rule:nonzero;"/><path d="M6.785,11.257l-1.056,3.239c-0.385,1.19 0.241,2.467 1.407,2.895l1.605,-5.378c-0.757,-0.102 -1.498,-0.354 -1.956,-0.756" style="fill:#f7e7ce;fill-rule:nonzero;"/><path d="M6.516,13.861c0,0.32 0.26,0.58 0.58,0.58c0.32,0 0.58,-0.26 0.58,-0.58c0,-0.32 -0.26,-0.58 -0.58,-0.58c-0.32,0 -0.58,0.26 -0.58,0.58" style="fill:#e3d3ba;fill-rule:nonzero;"/></g></g></svg>