<?xml version="1.0" encoding="UTF-8" standalone="no"?><!DOCTYPE svg PUBLIC "-//W3C//DTD SVG 1.1//EN" "http://www.w3.org/Graphics/SVG/1.1/DTD/svg11.dtd"><svg width="100%" height="100%" viewBox="0 0 24 24" version="1.1" xmlns="http://www.w3.org/2000/svg" xmlns:xlink="http://www.w3.org/1999/xlink" xml:space="preserve" xmlns:serif="http://www.serif.com/" style="fill-rule:evenodd;clip-rule:evenodd;stroke-linejoin:round;stroke-miterlimit:2;"><circle cx="12" cy="12" r="12" style="fill:#e1ebf2;"/><g id="Communities"><path d="M22.56,12c0,5.832 -4.728,10.56 -10.56,10.56c-5.832,0 -10.56,-4.728 -10.56,-10.56c0,-5.832 4.728,-10.56 10.56,-10.56c5.832,0 10.56,4.728 10.56,10.56" style="fill:#fff;fill-rule:nonzero;"/><clipPath id="_clip1"><path d="M26.442,15.853l-10.56,-18.29l-9.145,5.28l10.56,18.29l9.145,-5.28Z"/></clipPath><g clip-path="url(#_clip1)"><path d="M21.162,6.708c2.914,5.047 1.182,11.511 -3.865,14.425c-5.048,2.914 -11.512,1.182 -14.426,-3.865c-2.914,-5.047 -1.182,-11.511 3.866,-14.425c5.047,-2.914 11.511,-1.182 14.425,3.865Z" style="fill:#f4f8fc;"/></g><path d="M9.563,11.628l-2.843,1.218l-1.219,-3.249l3.656,0l2.437,-3.249l0,-1.219l-4.747,-2.346c-2.261,1.267 -4.007,3.342 -4.85,5.834l1.88,4.229l2.437,2.031l3.249,6.092l1.218,0l2.031,-6.092l-3.249,-3.249Z" style="fill:#1c3752;fill-rule:nonzero;"/><path d="M22.56,12c0,-3.994 -2.218,-7.47 -5.489,-9.264l-2.634,4.39l2.031,1.219l2.03,-1.625l1.219,1.625l1.218,0l0,1.218l-4.061,-0.406l-1.625,2.437l-0.812,4.468l1.625,2.03l0.326,3.513c3.641,-1.666 6.172,-5.339 6.172,-9.605" style="fill:#1c3752;fill-rule:nonzero;"/></g></svg>