<?xml version="1.0" encoding="UTF-8" standalone="no"?><!DOCTYPE svg PUBLIC "-//W3C//DTD SVG 1.1//EN" "http://www.w3.org/Graphics/SVG/1.1/DTD/svg11.dtd"><svg width="100%" height="100%" viewBox="0 0 24 24" version="1.1" xmlns="http://www.w3.org/2000/svg" xmlns:xlink="http://www.w3.org/1999/xlink" xml:space="preserve" xmlns:serif="http://www.serif.com/" style="fill-rule:evenodd;clip-rule:evenodd;stroke-linejoin:round;stroke-miterlimit:2;"><circle cx="12" cy="12" r="11.52" style="fill:#e1ebf2;"/><path id="Uplift" d="M22.56,12c0,5.828 -4.732,10.56 -10.56,10.56c-5.828,0 -10.56,-4.732 -10.56,-10.56c0,-5.828 4.732,-10.56 10.56,-10.56c5.828,0 10.56,4.732 10.56,10.56Z" style="fill:#fff;"/><clipPath id="_clip1"><path d="M22.56,12c0,5.828 -4.732,10.56 -10.56,10.56c-5.828,0 -10.56,-4.732 -10.56,-10.56c0,-5.828 4.732,-10.56 10.56,-10.56c5.828,0 10.56,4.732 10.56,10.56Z"/></clipPath><g clip-path="url(#_clip1)"><g id="Planting"><path d="M17.394,11.137c-1.434,1.656 -3.235,2.44 -4.029,1.754c-0.003,-0.003 -0.009,-0.007 -0.012,-0.013c-0.771,-0.692 -0.25,-2.582 1.175,-4.225c1.403,-1.618 3.919,-1.747 4.026,-1.754l0.003,0c0,0 0.272,2.582 -1.163,4.238" style="fill:#5585b3;fill-rule:nonzero;"/><path d="M18.554,6.9l-5.201,5.978c-0.771,-0.692 -0.25,-2.582 1.175,-4.225c1.403,-1.618 3.919,-1.747 4.026,-1.753" style="fill:#649ace;fill-rule:nonzero;"/><path d="M7.536,14.274c1.508,0.771 3.026,0.812 3.396,0.09c0.001,-0.003 0.005,-0.007 0.005,-0.012c0.353,-0.719 -0.568,-1.923 -2.066,-2.688c-1.474,-0.754 -3.314,-0.119 -3.393,-0.092l-0.002,0.001c0,0 0.552,1.929 2.06,2.701" style="fill:#5585b3;fill-rule:nonzero;"/><path d="M5.478,11.572l5.459,2.78c0.353,-0.72 -0.568,-1.923 -2.065,-2.689c-1.475,-0.753 -3.315,-0.117 -3.394,-0.091" style="fill:#649ace;fill-rule:nonzero;"/><path d="M12.006,17.365c0.326,0 0.636,0.034 0.919,0.094c-0.137,-2.829 -0.591,-11.614 -0.919,-11.614c-0.327,0 -0.781,8.785 -0.918,11.614c0.283,-0.06 0.592,-0.094 0.918,-0.094" style="fill:#e1ebf2;fill-rule:nonzero;"/><path d="M17.183,19.237c-0.214,-0.968 -1.076,-1.691 -2.107,-1.691c-0.646,0 -0.848,0.231 -1.151,0.266l-0.002,0c-0.435,-0.306 -1.149,-0.506 -1.957,-0.506c-0.808,0 -1.521,0.2 -1.956,0.506l-0.002,0c-0.36,-0.042 -0.523,-0.266 -1.172,-0.266c-1.033,0 -1.894,0.724 -2.108,1.692c-0.723,0.061 -1.305,0.446 -1.448,0.948l3.283,2.374l3.523,0.151l2.539,-0.151l2.66,-0.947l1.608,-1.187c-0.145,-0.507 -0.977,-1.134 -1.71,-1.189" style="fill:#1c3752;fill-rule:nonzero;"/><path d="M11.966,17.305c-0.808,0 -1.521,0.201 -1.956,0.507l-0.002,0c-0.36,-0.042 -0.523,-0.267 -1.172,-0.267c-1.033,0 -1.894,0.725 -2.108,1.693c-0.723,0.061 -1.545,0.446 -1.688,0.947l1.107,1.188l1.863,0.732l4.076,-4.796c-0.04,-0.001 -0.079,-0.004 -0.12,-0.004" style="fill:#3c5c7f;fill-rule:nonzero;"/></g></g></svg>