<?xml version="1.0" encoding="UTF-8" standalone="no"?><!DOCTYPE svg PUBLIC "-//W3C//DTD SVG 1.1//EN" "http://www.w3.org/Graphics/SVG/1.1/DTD/svg11.dtd"><svg width="100%" height="100%" viewBox="0 0 72 72" version="1.1" xmlns="http://www.w3.org/2000/svg" xmlns:xlink="http://www.w3.org/1999/xlink" xml:space="preserve" xmlns:serif="http://www.serif.com/" style="fill-rule:evenodd;clip-rule:evenodd;stroke-linejoin:round;stroke-miterlimit:2;"><path d="M0,72l72,-72l0,72l-72,0Z" style="fill-opacity:0.1;"/><g><path d="M22.95,20.688c0,-1.153 0.935,-2.088 2.088,-2.088l15.312,0l8.7,7.308l0,25.404c0,1.153 -0.935,2.088 -2.088,2.088l-21.924,0c-1.153,0 -2.088,-0.935 -2.088,-2.088l0,-30.624Z" style="fill:#fff;fill-rule:nonzero;"/><path d="M40.35,18.6l0,5.22c0,1.153 0.935,2.088 2.088,2.088l6.612,0l-8.7,-7.308Z" style="fill:#e1ebf2;fill-rule:nonzero;"/><path d="M38.175,28.387c0,0.301 -0.244,0.544 -0.544,0.544l-9.787,0c-0.3,0 -0.544,-0.243 -0.544,-0.544c0,-0.3 0.244,-0.543 0.544,-0.543l9.787,0c0.3,0 0.544,0.243 0.544,0.543" style="fill:#567e9a;fill-rule:nonzero;"/><path d="M44.7,32.737c0,0.301 -0.244,0.544 -0.544,0.544l-16.312,0c-0.3,0 -0.544,-0.243 -0.544,-0.544c0,-0.3 0.244,-0.543 0.544,-0.543l16.312,0c0.3,0 0.544,0.243 0.544,0.543" style="fill:#567e9a;fill-rule:nonzero;"/><path d="M44.7,37.087c0,0.301 -0.244,0.544 -0.544,0.544l-16.312,0c-0.3,0 -0.544,-0.243 -0.544,-0.544c0,-0.3 0.244,-0.543 0.544,-0.543l16.312,0c0.3,0 0.544,0.243 0.544,0.543" style="fill:#567e9a;fill-rule:nonzero;"/><path d="M44.7,41.437c0,0.301 -0.244,0.544 -0.544,0.544l-16.312,0c-0.3,0 -0.544,-0.243 -0.544,-0.544c0,-0.3 0.244,-0.543 0.544,-0.543l16.312,0c0.3,0 0.544,0.243 0.544,0.543" style="fill:#567e9a;fill-rule:nonzero;"/><g><path d="M56.663,20.805c0,3.583 -0.637,6.612 -1.697,9.167l0,0.006c-1.044,0.777 -3.23,2.246 -4.828,2.246c0.973,0.326 2.234,0.554 3.501,0.391c-1.625,2.729 -3.653,5.212 -6.78,4.736c0.56,0.288 1.229,0.555 1.957,0.723c-3.627,2.897 -8.072,4.038 -12.272,4.481c0,-8.7 6.428,-21.75 20.119,-21.75" style="fill:#bea881;fill-rule:nonzero;"/><path d="M56.663,20.805c-13.243,0 -20.119,12.502 -20.119,21.75l20.117,-21.664c0,-0.03 0.002,-0.057 0.002,-0.086" style="fill:#e0d3bb;fill-rule:nonzero;"/><path d="M32.737,44.73l0,2.145l2.175,-0.514l21.751,-25.556l-23.926,23.925Z" style="fill:#6b3d35;fill-rule:nonzero;"/></g></g></svg>